<svg width="199" height="122" viewBox="0 0 199 122" fill="none" xmlns="http://www.w3.org/2000/svg">
<path opacity="0.8" fill-rule="evenodd" clip-rule="evenodd" d="M40.255 22.7083C42.2911 16.3043 44.1859 12.3172 45.9364 10.7452C50.7839 6.39443 57.4863 8.7623 58.9113 9.10144C63.917 10.2961 62.2894 2.43474 66.5841 0.836809C69.4463 -0.227968 71.8002 1.0736 73.6474 4.7415C75.2827 1.31955 77.7748 -0.247828 81.1237 0.0317335C86.1478 0.454895 87.906 17.337 94.8096 13.6416C101.715 9.94471 110.18 9.09991 113.796 14.5934C114.577 15.7819 114.877 13.938 120.193 7.64253C125.509 1.34552 130.809 -1.42871 141.684 2.23767C146.628 3.90282 150.694 8.41705 153.886 15.7788C153.886 26.2861 161.656 32.5067 177.192 34.4361C200.499 37.331 182.408 62.2609 153.886 69.5616C125.363 76.8638 59.6944 80.8051 24.0587 62.3571C0.301535 50.061 5.70032 36.8437 40.2535 22.7083H40.255Z" fill="url(#paint0_linear)"/>
<path d="M98.697 115.556C122.431 115.556 141.671 111.126 141.671 105.66C141.671 100.195 122.431 95.7642 98.697 95.7642C74.9632 95.7642 55.7231 100.195 55.7231 105.66C55.7231 111.126 74.9632 115.556 98.697 115.556Z" fill="url(#paint1_linear)"/>
<path opacity="0.675" fill-rule="evenodd" clip-rule="evenodd" d="M171.248 118.015C138.937 126.078 28.647 116.855 16.9081 112.643C11.1946 110.592 6.04451 106.734 1.45953 101.07C0.946372 100.436 0.623818 99.6715 0.529144 98.8634C0.43447 98.0554 0.571541 97.2371 0.924517 96.5033C1.27749 95.7695 1.83197 95.15 2.52387 94.7165C3.21577 94.2829 4.01685 94.053 4.83455 94.0532H197.56C201.56 104.652 192.79 112.639 171.248 118.015Z" fill="url(#paint2_linear)"/>
<path d="M131.67 79.1404L116.974 62.0428C116.627 61.6349 116.195 61.3064 115.708 61.0796C115.221 60.8529 114.691 60.7333 114.153 60.729H82.553C81.469 60.729 80.4387 61.224 79.7323 62.0428L65.0361 79.1404V88.5263H131.67V79.1404Z" fill="url(#paint3_linear)"/>
<path d="M127.506 88.877L114.643 73.9854C114.332 73.6337 113.949 73.3528 113.519 73.1617C113.089 72.9706 112.623 72.8738 112.153 72.8778H84.5536C83.6062 72.8778 82.6803 73.2689 82.063 73.9854L69.2002 88.877V97.056H127.506V88.877Z" fill="url(#paint4_linear)"/>
<path d="M131.67 99.283C131.67 100.586 131.081 101.758 130.15 102.543L129.961 102.696C129.224 103.252 128.323 103.553 127.397 103.551H69.3109C68.7858 103.551 68.2837 103.457 67.82 103.282L67.5897 103.191C66.8298 102.854 66.1842 102.306 65.731 101.612C65.2778 100.919 65.0364 100.109 65.0361 99.2815V79.2432H81.2033C82.9891 79.2432 84.4279 80.7051 84.4279 82.4787V82.5017C84.4279 84.2768 85.8835 85.7082 87.6693 85.7082H109.037C109.896 85.7074 110.719 85.3682 111.326 84.7649C111.934 84.1617 112.276 83.3434 112.279 82.4894C112.279 80.7082 113.719 79.2432 115.503 79.2432H131.672L131.67 99.283Z" fill="url(#paint5_linear)"/>
<defs>
<linearGradient id="paint0_linear" x1="102.889" y1="56.447" x2="102.889" y2="-13.3418" gradientUnits="userSpaceOnUse">
<stop stop-color="#DEDEDE" stop-opacity="0"/>
<stop offset="1" stop-color="#A9A9A9" stop-opacity="0.3"/>
</linearGradient>
<linearGradient id="paint1_linear" x1="94.2191" y1="115.556" x2="94.2191" y2="95.7642" gradientUnits="userSpaceOnUse">
<stop stop-color="white" stop-opacity="0"/>
<stop offset="1" stop-color="#96A1C5" stop-opacity="0.373"/>
</linearGradient>
<linearGradient id="paint2_linear" x1="99.5" y1="121.213" x2="99.5" y2="88.7096" gradientUnits="userSpaceOnUse">
<stop stop-color="white" stop-opacity="0"/>
<stop offset="1" stop-color="#919191" stop-opacity="0.15"/>
</linearGradient>
<linearGradient id="paint3_linear" x1="98.3533" y1="60.729" x2="98.3533" y2="73.2239" gradientUnits="userSpaceOnUse">
<stop stop-color="#F5E553"/>
<stop offset="1" stop-color="#FAAD14"/>
</linearGradient>
<linearGradient id="paint4_linear" x1="106.134" y1="97.056" x2="106.134" y2="71.5924" gradientUnits="userSpaceOnUse">
<stop stop-color="#FFE58F"/>
<stop offset="1" stop-color="#FEE23D"/>
</linearGradient>
<linearGradient id="paint5_linear" x1="98.354" y1="79.2432" x2="98.354" y2="103.551" gradientUnits="userSpaceOnUse">
<stop stop-color="#FAD114"/>
<stop offset="1" stop-color="#FAAD14"/>
</linearGradient>
</defs>
</svg>

