<svg id="Layer_1" data-name="Layer 1" xmlns="http://www.w3.org/2000/svg" xmlns:xlink="http://www.w3.org/1999/xlink" viewBox="0 0 128 128"><defs><style>.cls-1{fill:none;}.cls-2{clip-path:url(#clip-path);}.cls-3{fill:#fff;}</style><clipPath id="clip-path"><rect class="cls-1" width="128" height="128"/></clipPath></defs><title>icon</title><rect width="128" height="128"/><g class="cls-2"><path class="cls-3" d="M73.3,73.44l-24,24a3.57,3.57,0,0,0-1,2.51v2.59a3.55,3.55,0,0,0,3.56,3.55h24a3.55,3.55,0,0,0,3.56-3.55V76a3.56,3.56,0,0,0-6.07-2.51"/><path class="cls-3" d="M66.21,27.73a3.44,3.44,0,0,0-4.91-4.81L43.57,40.66c-2.16,2.15-1.67,5,1.2,6a3.6,3.6,0,0,0,3.75-.84s10.9-11,17.69-18.12"/><path class="cls-3" d="M54.48,61.4,87.75,28.13A3.64,3.64,0,0,0,82.61,23L49.34,56.26a3.59,3.59,0,0,0-1.07,2.57,3.64,3.64,0,0,0,6.21,2.57"/><path class="cls-3" d="M43.91,21.92H22.56a3.68,3.68,0,0,0-3.69,3.65c-.05,4.72-.08,12.89-.1,17.63a3.7,3.7,0,0,0,3.69,3.7h3.85a3.69,3.69,0,0,0,2.61-1.08l17.6-17.61a3.68,3.68,0,0,0-2.61-6.29"/><path class="cls-3" d="M103,23,49.33,76.83A3.64,3.64,0,0,0,54.48,82L78.3,58.15a3.65,3.65,0,0,0,1.07-2.57v-5A3.63,3.63,0,0,1,83,46.9h17.09a9.1,9.1,0,0,0,9.1-9.11V27.21l0-1.57A3.63,3.63,0,0,0,103,23"/></g></svg>