<svg id="Layer_1" data-name="Layer 1" xmlns="http://www.w3.org/2000/svg" viewBox="0 0 254.76 55.92">
  <defs>
    <style>
      .cls-1 {
        fill: #fff;
      }
    </style>
  </defs>
  <title>Logo</title>
  <path class="cls-1" d="M36.23,34.23,20.29,50.17a2.36,2.36,0,0,0-.69,1.67v1.72A2.36,2.36,0,0,0,22,55.92H37.9a2.36,2.36,0,0,0,2.36-2.36V35.9a2.36,2.36,0,0,0-4-1.67"/>
  <path class="cls-1" d="M31.51,3.86A2.28,2.28,0,0,0,28.25.67L16.47,12.45c-1.43,1.43-1.11,3.33.8,4a2.41,2.41,0,0,0,2.49-.56S27,8.57,31.51,3.86"/>
  <path class="cls-1" d="M23.72,26.23,45.83,4.12A2.41,2.41,0,0,0,44.12,0a2.39,2.39,0,0,0-1.71.71L20.3,22.81a2.44,2.44,0,0,0-.7,1.71,2.41,2.41,0,0,0,4.12,1.71"/>
  <path class="cls-1" d="M16.7,0H2.51A2.45,2.45,0,0,0,.06,2.42C0,5.56,0,11,0,14.14a2.44,2.44,0,0,0,2.45,2.45H5a2.44,2.44,0,0,0,1.73-.71L18.43,4.18A2.45,2.45,0,0,0,16.7,0"/>
  <path class="cls-1" d="M56,.72,20.3,36.48a2.44,2.44,0,0,0-.7,1.71,2.41,2.41,0,0,0,4.12,1.71L39.55,24.07a2.41,2.41,0,0,0,.71-1.71V19a2.42,2.42,0,0,1,2.41-2.42H54a6,6,0,0,0,6-6v-7l0-1A2.41,2.41,0,0,0,56,.72"/>
  <path class="cls-1" d="M88.52,41.44a2.07,2.07,0,0,1-.59-1.56V21.78h-6.1q-2,0-2-1.77c0-1.19.67-1.78,2-1.78H98.35c1.34,0,2,.59,2,1.78s-.67,1.77-2,1.77h-6.1v18.1a2.11,2.11,0,0,1-.58,1.56,2.13,2.13,0,0,1-1.56.59A2.15,2.15,0,0,1,88.52,41.44Z"/>
  <path class="cls-1" d="M121.61,40.15a1.69,1.69,0,0,1-.62,1.31,2.14,2.14,0,0,1-1.42.53,1.9,1.9,0,0,1-1-.28,2,2,0,0,1-.74-.89l-2-4.49H104l-2,4.49a2,2,0,0,1-.74.89,2,2,0,0,1-1,.28,2.17,2.17,0,0,1-1.41-.53,1.68,1.68,0,0,1-.64-1.31,2,2,0,0,1,.21-.87l9.25-19.88a2.17,2.17,0,0,1,.92-1,2.66,2.66,0,0,1,2.64,0,2.19,2.19,0,0,1,.93,1l9.28,19.88A2.12,2.12,0,0,1,121.61,40.15ZM105.49,33h8.85l-4.43-10Z"/>
  <path class="cls-1" d="M144.25,18.65a2.17,2.17,0,0,1,.55,1.56V39.88a2.22,2.22,0,0,1-.57,1.58,1.94,1.94,0,0,1-1.47.6,1.92,1.92,0,0,1-1.64-.77L128.88,25.37V39.88a2.34,2.34,0,0,1-.53,1.58,1.89,1.89,0,0,1-1.48.6,1.86,1.86,0,0,1-1.47-.6,2.3,2.3,0,0,1-.54-1.58V20.21a2.14,2.14,0,0,1,.57-1.56,2,2,0,0,1,1.51-.59,1.9,1.9,0,0,1,1.61.77l12.2,15.86V20.21a2.17,2.17,0,0,1,.55-1.56,1.91,1.91,0,0,1,1.46-.59A2,2,0,0,1,144.25,18.65Z"/>
  <path class="cls-1" d="M171.51,40.15a1.66,1.66,0,0,1-.62,1.31,2.14,2.14,0,0,1-1.42.53,1.9,1.9,0,0,1-1-.28,1.87,1.87,0,0,1-.73-.89l-2-4.49H153.92l-2,4.49A1.85,1.85,0,0,1,150.13,42a2.19,2.19,0,0,1-1.41-.53,1.67,1.67,0,0,1-.63-1.31,2,2,0,0,1,.2-.87l9.25-19.88a2.22,2.22,0,0,1,.92-1,2.66,2.66,0,0,1,1.32-.35,2.73,2.73,0,0,1,1.33.35,2.22,2.22,0,0,1,.92,1l9.28,19.88A2,2,0,0,1,171.51,40.15ZM155.39,33h8.85l-4.42-10Z"/>
  <path class="cls-1" d="M178,41.44a2.11,2.11,0,0,1-.59-1.56V21.78h-6.1q-2,0-2-1.77c0-1.19.67-1.78,2-1.78h16.52c1.34,0,2,.59,2,1.78s-.67,1.77-2,1.77h-6.1v18.1A2,2,0,0,1,179.59,42,2.15,2.15,0,0,1,178,41.44Z"/>
  <path class="cls-1" d="M192.93,41.32a2,2,0,0,1-.54-1.47V20.21a2,2,0,0,1,2.15-2.15,2.15,2.15,0,0,1,1.59.59,2.11,2.11,0,0,1,.58,1.56v18.1h9.42q2,0,2,1.77c0,1.19-.67,1.78-2,1.78H194.44A2,2,0,0,1,192.93,41.32Z"/>
  <path class="cls-1" d="M214.26,40.69a10,10,0,0,1-3.91-4.23A14.27,14.27,0,0,1,209,30a14.19,14.19,0,0,1,1.36-6.42,9.75,9.75,0,0,1,3.9-4.21,11.81,11.81,0,0,1,6-1.47,11.68,11.68,0,0,1,6,1.47,9.79,9.79,0,0,1,3.89,4.21A14.19,14.19,0,0,1,231.47,30a14.14,14.14,0,0,1-1.38,6.43,9.87,9.87,0,0,1-3.9,4.23,12.84,12.84,0,0,1-11.93,0Zm11.06-4.23A9.93,9.93,0,0,0,227.15,30c0-2.8-.61-4.93-1.83-6.42a6.94,6.94,0,0,0-10.19,0c-1.22,1.49-1.83,3.62-1.83,6.42a9.93,9.93,0,0,0,1.83,6.43,6.89,6.89,0,0,0,10.19,0Z"/>
  <path class="cls-1" d="M240.4,40.69a9.9,9.9,0,0,1-3.94-4.23A14.27,14.27,0,0,1,235.09,30a14.19,14.19,0,0,1,1.37-6.42,9.9,9.9,0,0,1,3.94-4.21,11.81,11.81,0,0,1,6-1.47,13.14,13.14,0,0,1,4.16.65,10.94,10.94,0,0,1,3.45,1.9,1.83,1.83,0,0,1,.6.7,2.22,2.22,0,0,1,.17.9,1.88,1.88,0,0,1-.4,1.24,1.2,1.2,0,0,1-1,.51,2.51,2.51,0,0,1-1.38-.47,9.75,9.75,0,0,0-2.68-1.49,8.53,8.53,0,0,0-2.75-.42,6.43,6.43,0,0,0-5.28,2.18q-1.78,2.18-1.79,6.4t1.79,6.43a6.46,6.46,0,0,0,5.28,2.18,8,8,0,0,0,2.67-.43A13.57,13.57,0,0,0,252,36.73a4.6,4.6,0,0,1,.67-.33,1.91,1.91,0,0,1,.71-.14,1.22,1.22,0,0,1,1,.5,1.92,1.92,0,0,1,.4,1.24,2.21,2.21,0,0,1-.17.89,1.81,1.81,0,0,1-.6.72,10.94,10.94,0,0,1-3.45,1.9,13.14,13.14,0,0,1-4.16.65A11.81,11.81,0,0,1,240.4,40.69Z"/>
</svg>
