<svg xmlns="http://www.w3.org/2000/svg" viewBox="0 0 540.50665 123.13333">
  <g transform="matrix(.13333 0 0 -.13333 0 123.133)">
    <path d="M323.4 97c1-.6 2-.8 2.6-1zm-4 496.6c-23 0-41.8 19.5-41.8 43.6 0 24 18.7 43.5 41.8 43.5h52.4c5.7 12.5 12 24.4 18.6 36 11.6 20 25 39 40 57 76 91.4 190 149.8 316.7 149.8H773c30 0 59-3.4 87-9.5 28.3-6.2 55.4-15.3 81.2-27 121-54.8 211.3-166.8 237.4-301.4h6.3v-.2c80.2 0 153.3-32.7 206.2-85.3 53.3-52.8 86.4-126.2 86.4-207h.3v-.3h-.3c0-80.8-33.2-154-86.6-207.3-53-52.5-126-85-206-85.2V0H386v.2c-29 0-57 4.2-83 12-1.3.4-2.5.7-3.6 1.2l-9.4 3c-.7.4-1.4.6-2 .8-20.8 7.5-40.4 17-58.7 29l-1 .4-2.3 1.6-.3.2-2.3 1.5c-.7.3-1.3.8-2 1.3-4.3 3-8.2 5.7-11.7 8.4-18.8 14.3-22.8 41.5-9 61 13.6 19.4 40 23.5 58.7 9.2l8-6 1.4-.8 2.3-1.4 2-1.4c13-8.4 27.2-15.4 42.2-20.8.5 0 1.2-.3 1.7-.6 2.7-1 4.8-1.6 6.4-2l2.6-.8c19.3-6 39.6-9 60-9v.2h798.7c57.7 0 110.2 23.3 148 60.8 37.6 37.2 60.8 88.4 60.8 144.5v.2c0 56-23.3 107-60.8 144.3-38 37.6-90.4 61-148 61h-42.4c-21.3 0-39.6 17-41.7 39.3-11.5 120-88 221.8-193.3 269.5-20.5 9.5-42 16.7-64.6 21.7-22.7 5-46.2 7.6-70 7.6v-.2h-25.6c-101.4 0-192.4-46.4-253-119.2-11.6-14-22-29-31.5-45.2-9.4-16-17.4-32.8-24-50v-.5c-6.4-16-21.5-27.3-39-27.3h-80" class="rescale-logo-main-color" fill-rule="evenodd"></path>
    <path d="M300.6 152h121c13.8 0 25 11.7 25 26V288c0 37 40 78.7 75.7 78.7H628c14 0 25.2 11.6 25.2 26V518c0 14.3-11.3 26-25 26H507c-14 0-25.2-11.7-25.2-26V408.2c0-37-40-78.4-75.7-78.4H300.6c-13.8 0-25-11.8-25-26V178c0-14.3 11.2-26 25-26" fill="#479abd" fill-rule="evenodd"></path>
    <path d="M92.7 152h121c13.8 0 25 11.7 25 26V288c0 37 40 78.7 76 78.7h105.6c13.7 0 25 11.6 25 26v128c0 14.4-11.3 26-25 26H314.6c-35.8 0-76 41.7-76 78.8V735c0 14.2-11 26-25 26h-121c-13.7 0-25-11.8-25-26V609.3c0-14.3 11.3-26 25-26h106c35.5 0 75.5-41.5 75.5-78.6v-96.6c0-37-40-78.4-75.5-78.4H92.7c-13.8 0-25-11.8-25-26V178c0-14.3 11.2-26 25-26" class="rescale-logo-main-color" fill-rule="evenodd"></path>
    <path d="M137 399.8V484c0 16-12.5 29-28 29H28c-15.5 0-28-13-28-29v-84.2c0-16 12.5-29 28-29h81c15.5 0 28 13 28 29" class="rescale-logo-darkest-gray" fill-rule="evenodd"></path>
    <path d="M776.5 262.5v73.3c0 14-11 25.2-24.2 25.2h-70.7c-13.3 0-24.3-11.3-24.3-25.2v-73.3c0-13.8 11-25.3 24.3-25.3h70.7c13.3 0 24.2 11.5 24.2 25.3" class="rescale-logo-lightest-gray" fill-rule="evenodd"></path>
    <path d="M696 609.2v67.4c0 13-10.2 23.3-22.5 23.3h-65c-12.3 0-22.4-10.5-22.4-23.4v-67.4c0-12.8 10.2-23.3 22.5-23.3h65c12.3 0 22.4 10.4 22.4 23.2M841.4 415v68.3c0 13-10.3 23.6-22.7 23.6h-66c-12.3 0-22.5-10.8-22.5-23.7V415c0-13 10.2-23.6 22.6-23.6h66c12.3 0 22.6 10.6 22.6 23.5" class="rescale-logo-mid-gray" fill-rule="evenodd"></path>
    <path d="M944.6 374.3v44.5c0 8.6-6.6 15.5-14.7 15.5h-43.2c-8 0-15-7-15-15.5v-44.5c0-8.4 7-15.3 15-15.3h43c8.2 0 14.8 7 14.8 15.3" class="rescale-logo-lightest-gray" fill-rule="evenodd"></path>
    <path d="M1672 157l1 286.6c0 54-1.2 93.8-3.5 129.4v1h68l3.4-81.4h.8c19 55.3 64.6 91 116.5 91 7.4 0 13.4-.8 20.8-2.7l.8-.3v-72.2l-3 .3c-7.7.8-15 1.5-24.5 1.5-50.2 0-89.6-37.3-100.2-95.2-1.6-11-2.5-23-2.5-35.7V157H1672M2210.7 407.7c.2 15.3-2 62.5-32.6 93.7-17.5 18-41 27-70 27-74 0-108-64.8-114.7-120.7zm-88.2-259.2c-124.6 0-205 82.5-205 210.2 0 133 80.7 225.7 196.4 225.7 126.6 0 171.6-106 171.6-196.5 0-15.6-1-27.8-2.6-36.4l-.2-.8-290.5 1c2-89 54.4-142.2 140.5-142.2 56.4 0 89.6 10.4 114.5 20.5l1 .6 14.3-55-.7-.5c-27-12-73-26.5-139.5-26.5M2466.4 147.6c-42.8 0-85.5 10.7-117 29.3l-.8.3 18.6 58.6 1-.8c22.7-13.4 62.4-29 100-29 49.2 0 78.7 22.7 78.7 60.7 0 34.6-20 54.4-75.8 75.3-73.8 27-111.3 66.7-111.3 118.4 0 71.2 60.6 122.8 144 122.8 39 0 77-9.7 102-26l.5-.3-18.6-56-1.2.7c-27.4 15.7-55.8 23.8-84.4 23.8-46.7 0-67.6-28-67.6-55.6 0-35 24-50 77.4-70.3 76.8-28.7 109.5-66.5 109.5-126.2 0-76.7-61-126.2-155.3-126.2M2894.3 147.6c-126 0-207.7 84-207.7 213.7 0 130.8 92 222.2 224 222.2 47 0 86-12 105-22.4l.8-.3-17.7-59.4-1 .6c-25 13-54.2 19.5-87 19.5-100.7 0-145.7-78.8-145.7-156.8 0-92.2 57.5-154.2 143-154.2 42 0 70.2 10 92.2 19.6l1 .6 13.5-58.5-.7-.3c-24.4-11.6-68.7-24-119.7-24M3309.2 369c-108 0-162.6-31.2-162.6-92.6 0-52.4 35.8-71 69.3-71 57.2 0 90 37 101 68.7 2.2 6.8 3.4 14.8 3.4 23.8v71l-11.2.2zM3197 147.6c-88 0-128 62.3-128 120.2 0 100.2 87.8 155.4 247 155.4h2.6v7.5c0 43.4-16 95-91.6 95h-1.7c-40 0-79.5-11-108.4-30.6l-1-.7-18 52.6.7.3c36.3 22.7 87.8 36.2 137.8 36.2 132 0 159.6-93 159.6-170.8V257.5c0-39.6 2-73 6-99.3l.3-1.2h-69.8l-7 52.3h-1.6c-19.8-29.6-64.2-61.7-127-61.7M3515 157h77.5v611H3515zM3979 407.7c0 15.3-2 62.5-32.7 93.7-17.5 18-41 27-70 27-74 0-108-64.8-114.8-120.7zm-88.2-259.2c-124.6 0-205 82.5-205 210.2 0 133 80.7 225.7 196.4 225.7 126.7 0 171.6-106 171.6-196.5 0-15.6-.8-27.8-2.6-36.4v-.8l-290.6 1c2-89 54.3-142.2 140.5-142.2 56.5 0 89.6 10.4 114.6 20.5l1 .6 14.3-55-1-.5c-27-12-73-26.5-139.2-26.5" class="rescale-logo-main-color"></path>
  </g>
</svg>