<?xml version="1.0" encoding="UTF-8"?> <!-- Generator: Adobe Illustrator 25.0.0, SVG Export Plug-In . SVG Version: 6.00 Build 0) --> <svg xmlns="http://www.w3.org/2000/svg" xmlns:xlink="http://www.w3.org/1999/xlink" version="1.1" id="Layer_1" x="0px" y="0px" viewBox="0 0 400 245" style="enable-background:new 0 0 400 245;" xml:space="preserve"> <style type="text/css"> .st0{fill:#050507;} .st1{fill:#FDFEFC;} .st2{opacity:0.25;fill:url(#path4400-1_1_);enable-background:new ;} .st3{opacity:0.42;fill:url(#path4400-2-8_1_);enable-background:new ;} .st4{opacity:0.2;fill:url(#path4491-9_1_);enable-background:new ;} .st5{opacity:0.11;fill:#010101;enable-background:new ;} .st6{opacity:0.25;fill:#7D7D7D;enable-background:new ;} .st7{opacity:0.75;fill:#7D7D7D;enable-background:new ;} .st8{fill:#7D7D7D;} .st9{fill:#838385;} .st10{clip-path:url(#SVGID_1_);fill:#010101;fill-opacity:0.2588;} .st11{opacity:0.3;clip-path:url(#SVGID_2_);fill:#010101;enable-background:new ;} .st12{clip-path:url(#SVGID_3_);fill:#838385;} .st13{opacity:0.95;clip-path:url(#SVGID_4_);fill:#7D7D7D;enable-background:new ;} .st14{opacity:0.2;fill:url(#path14483-7-4_1_);enable-background:new ;} .st15{fill:url(#path14296-0_1_);} .st16{clip-path:url(#SVGID_5_);fill:#CC8A2A;} .st17{clip-path:url(#SVGID_6_);fill:#F4C021;} .st18{clip-path:url(#SVGID_7_);fill:url(#path16493_1_);} .st19{fill:url(#path4635-1_1_);} .st20{clip-path:url(#SVGID_8_);fill:#D79A28;} .st21{clip-path:url(#SVGID_9_);fill:#F4BD18;} .st22{fill:url(#path4792-8_1_);} .st23{opacity:0.35;fill:url(#path29714-8-2_1_);enable-background:new ;} .st24{opacity:0.35;fill:url(#path29714-8-3-0_1_);enable-background:new ;} .st25{clip-path:url(#SVGID_10_);fill:url(#path29714-3-9-9_1_);} .st26{clip-path:url(#SVGID_11_);fill:url(#path29714-3-9-3-8_1_);} .st27{fill:url(#path28795-9-5_1_);} .st28{fill:url(#path29465-8_1_);} .st29{clip-path:url(#SVGID_12_);fill:url(#path29551-9_1_);} .st30{fill:url(#path28795-9-2-2_1_);} .st31{fill:url(#path28795-3_1_);} .st32{fill:#161615;} .st33{fill:url(#path28887-6_1_);} .st34{clip-path:url(#SVGID_13_);fill:url(#path28972-5_1_);} .st35{fill:url(#path28795-92-2_1_);} .st36{fill:url(#path28849-2_1_);} .st37{fill:url(#path28461-2_1_);} .st38{fill:#D9B428;} .st39{fill:#5F461B;} .st40{fill:url(#path27476-4_1_);} .st41{fill:#F6DA4A;} .st42{opacity:0.8;fill:url(#path28396-7_1_);enable-background:new ;} .st43{opacity:0.8;fill:url(#path28398-7_1_);enable-background:new ;} .st44{clip-path:url(#SVGID_14_);fill:url(#path28570-8_1_);} </style> <g id="layer2" transform="translate(8,4.6)"> <g id="g463"> <path id="path28712-2" class="st0" d="M191.4-0.6c-5.7-0.1-11.5,1.1-16.5,3.8c-5.4,2.9-9.7,7.5-12.4,12.9 c-2.7,5.4-3.8,11.3-3.9,17.7c-0.3,12.2,0.3,24.9,1.2,36.5c0.2,3.5,0.7,5.6,0.2,9.2c-1.5,7.7-8.2,12.9-11.8,19.6 c-4,7.4-5.6,15.9-8.6,23.7c-2.7,7.2-6.6,14-9.2,21.2c-3.6,10.2-4.7,21.3-2.3,31.8c1.8,8,5.6,15.5,10.8,22c-0.7,1.3-1.5,2.7-2.2,4 c-2.4,4.1-5.3,8-6.6,12.5c-0.7,2.3-0.9,4.7-0.5,7c0.4,2.3,1.6,4.6,3.5,6c1.2,1,2.7,1.6,4.2,1.9c1.5,0.4,3.1,0.4,4.6,0.4 c5.9-0.1,11.6-1.9,17.3-3.4c3.4-0.9,6.8-1.7,10.2-2.4c12.2-2.5,25.7-1.5,37,0.1c3.8,0.6,7.6,1.3,11.4,2.2 c5.9,1.4,11.8,3.2,17.8,3.4c1.6,0,3.2,0,4.8-0.4c1.6-0.3,3.1-1,4.3-2c1.9-1.5,3-3.7,3.5-6.1s0.2-4.8-0.5-7 c-1.4-4.6-4.3-8.4-6.7-12.5c-1-1.6-1.9-3.3-2.8-4.9c7.3-8.2,13.2-17.7,16.6-28.1c3.7-11.4,4.4-23.7,2.8-35.5 c-1.6-11.9-5.3-23.4-10.3-34.3c-6.2-13.7-11.5-18.6-15.2-30.6c-4.1-13-0.7-28.3-3.8-40.1c-1.1-4-2.8-7.8-5-11.3 c-2.6-4.1-5.9-7.8-9.9-10.6C206.9,1.8,199.2-0.5,191.4-0.6L191.4-0.6z"></path> <path id="path29719-5" class="st1" d="M169,67.9c-0.8,1-1.4,2.3-1.7,3.6c-0.3,1.3-0.4,2.6-0.5,4c-0.1,2.7,0.1,5.4-0.6,8 c-0.8,2.8-2.5,5.2-4.1,7.5c-2.9,4-5.8,8.2-7.2,12.9c-0.9,2.9-1.1,5.9-0.8,8.9c-3.2,4.7-6,9.7-8.3,15c-3.5,7.9-5.9,16.4-6.7,25 c-1,10.6,0.3,21.4,4.5,31.2c3,7.1,7.5,13.5,13.3,18.5c2.9,2.6,6.2,4.7,9.7,6.5c12.1,6,27.1,6,39.1-0.4c6.2-3.3,11.5-8.2,16.6-13.1 c3.1-3,6.1-6,8.4-9.6c4.5-6.9,6.1-15.2,7-23.3c1.7-14.2,1.8-29.3-4.5-42.2c-2.1-4.4-5-8.5-8.4-12.1c-0.9-6.2-2.7-12.3-5.3-18 c-1.9-4.1-4.2-8-6-12.2c-0.7-1.7-1.3-3.5-2.1-5.1c-0.8-1.7-1.8-3.3-3.1-4.6c-1.4-1.3-3.1-2.2-4.9-2.8c-1.8-0.6-3.7-0.9-5.6-1 c-3.8-0.2-7.6,0.3-11.4,0.2c-3-0.1-6-0.7-9.1-0.5c-1.5,0.1-3,0.4-4.4,0.9C171.2,65.8,169.9,66.7,169,67.9"></path> </g> <g id="g562"> <radialGradient id="path4400-1_1_" cx="-417.8325" cy="-32.3274" r="21.8526" gradientTransform="matrix(-0.8062 0 0 -0.7634 -188.2083 86.9184)" gradientUnits="userSpaceOnUse"> <stop offset="0" style="stop-color:#010101"></stop> <stop offset="1" style="stop-color:#010101;stop-opacity:0.2489"></stop> </radialGradient> <path id="path4400-1" class="st2" d="M155.6,106c0.8,1.2-0.5,5.4,18.4,2.7c0,0-3.3,0.4-6.6,1.1c-5.1,1.7-9.5,3.6-12.9,6.1 c-3.4,2.5-5.9,5.7-9,8.5c0,0,5-9.2,6.3-12c1.3-2.8-0.2-2.6,0.8-6.7c1-4.1,3.4-8,3.4-8S154,103.6,155.6,106z"></path> <radialGradient id="path4400-2-8_1_" cx="350.4207" cy="-44.9551" r="21.8526" gradientTransform="matrix(1 0 0 -0.7634 -142.0002 86.9184)" gradientUnits="userSpaceOnUse"> <stop offset="0" style="stop-color:#010101"></stop> <stop offset="1" style="stop-color:#010101;stop-opacity:0.2489"></stop> </radialGradient> <path id="path4400-2-8" class="st3" d="M216.3,104.9c-3.8,2.7-6.1,2.4-10.8,2.9c-4.7,0.5-17.3,0.3-17.3,0.3s1.8,0,5.9,0.7 c4.1,0.8,12.3,1.5,17,3.3c4.7,1.8,6.4,2.3,9.2,4.1c4,2.5,7,6.5,10.8,9.3c0,0,0.2-3.7-1.4-6.5c-1.6-2.8-5.7-7.1-7-11.2 c-1.2-4.1-1.8-12.1-1.8-12.1S220.2,102.3,216.3,104.9L216.3,104.9z"></path> <radialGradient id="path4491-9_1_" cx="321.2284" cy="87.5191" r="8.6525" gradientTransform="matrix(1 0 0 -1.0692 -142.0002 210.9924)" gradientUnits="userSpaceOnUse"> <stop offset="0" style="stop-color:#010101"></stop> <stop offset="1" style="stop-color:#010101;stop-opacity:0.2489"></stop> </radialGradient> <path id="path4491-9" class="st4" d="M180.1,99.2c-0.1,1.2-0.3,2.3-0.6,3.5c-0.1,0.6-0.2,1.1-0.4,1.7s-0.5,1-0.9,1.4 c-0.4,0.3-0.8,0.6-1.3,0.8c-1.8,0.8-3.7,1.4-5.7,1.6c0.8,0.1,1.6,0.1,2.3,0.2c0.5,0.1,1,0.1,1.5,0.2c0.5,0.1,0.9,0.3,1.3,0.6 c0.4,0.3,0.8,0.8,1,1.2c0.5,1,0.7,2,0.8,3.1c0.1,1.4,0.1,2.8,0,4.1c0.1-0.9,0.3-1.8,0.6-2.7c0.5-1.6,1.4-3.1,2.5-4.3 c0.4-0.5,0.9-0.9,1.5-1.3c1.7-1.2,3.8-1.7,5.8-1.4c-2,0.1-4.1-0.6-5.7-1.8c-0.8-0.6-1.6-1.4-2.1-2.3 C179.9,102.5,179.7,100.8,180.1,99.2"></path> <path id="path4542-7" class="st5" d="M175.2,126.4c-1,3.7-1.7,7.5-2,11.4c-0.5,5.4-0.4,10.9-0.7,16.4c-0.2,4.6-0.8,9.3,0,13.9 c0.4,2.2,1.1,4.3,2,6.3c0.2-0.8,0.3-1.5,0.3-2.3c0.3-3.7-0.3-7.4-0.5-11.1c-0.4-6.5,0.5-13,0.9-19.5 C175.6,136.4,175.5,131.4,175.2,126.4L175.2,126.4"></path> <path id="path28767-9-3" class="st6" d="M157.7,89.6c-0.1-1.1-1.7-1.3-2.5-0.7c-0.6,0.5-1.2,2.1-0.7,2.8 C155.4,92.7,157.8,91.2,157.7,89.6z"></path> <path id="path15189-4" class="st7" d="M240.2,120.9c0.9-0.1,6.8,4.8,6,6.7c-0.8,1.8-2.3,0.7-3.4,0.7c-1.1,0-4,1.3-4.5,0.5 c-0.5-0.8,1.3-2.8,2.2-4.5C241.3,123,239.3,121,240.2,120.9L240.2,120.9z"></path> <path id="path28767-3" class="st8" d="M204.5,9.7c-2,1.4-1.2,3.2-0.3,5.1s-1.9,7-2,7.2c0,0.2,5.5-2.6,7.1-4.5 c1.8-2.2,6.3,3,6.1,2.2C215.4,18.3,206.6,8.3,204.5,9.7z"></path> <path id="path4596-3" class="st9" d="M220,70.3c-1.7,1.6,0.8,3.9,2,6.7c0.7,1.7,2.8,4.2,4.8,3.8c1.5-0.3,2.4-2.5,2.3-4 c-0.3-2.9-2.8-3.6-4.6-4.6C223.1,71.4,221.2,69.2,220,70.3z"></path> <g> <defs> <path id="SVGID_29_" d="M169,67.9c-0.8,1-1.4,2.3-1.7,3.6c-0.3,1.3-0.4,2.6-0.5,4c-0.1,2.7,0.1,5.4-0.6,8 c-0.8,2.8-2.5,5.2-4.1,7.5c-2.9,4-5.8,8.2-7.2,12.9c-0.9,2.9-1.1,5.9-0.8,8.9c-3.2,4.7-6,9.7-8.3,15c-3.5,7.9-5.9,16.4-6.7,25 c-1,10.6,0.3,21.4,4.5,31.2c3,7.1,7.5,13.5,13.3,18.5c2.9,2.6,6.2,4.7,9.7,6.5c12.1,6,27.1,6,39.1-0.4 c6.2-3.3,11.5-8.2,16.6-13.1c3.1-3,6.1-6,8.4-9.6c4.5-6.9,6.1-15.2,7-23.3c1.7-14.2,1.8-29.3-4.5-42.2c-2.1-4.4-5-8.5-8.4-12.1 c-0.9-6.2-2.7-12.3-5.3-18c-1.9-4.1-4.2-8-6-12.2c-0.7-1.7-1.3-3.5-2.1-5.1c-0.8-1.7-1.8-3.3-3.1-4.6c-1.4-1.3-3.1-2.2-4.9-2.8 c-1.8-0.6-3.7-0.9-5.6-1c-3.8-0.2-7.6,0.3-11.4,0.2c-3-0.1-6-0.7-9.1-0.5c-1.5,0.1-3,0.4-4.4,0.9 C171.2,65.8,169.9,66.7,169,67.9"></path> </defs> <clipPath id="SVGID_1_"> <use xlink:href="#SVGID_29_" style="overflow:visible;"></use> </clipPath> <path id="path28461-8-7" class="st10" d="M167.1,82.1c1.4,3.9,4.1,7.3,7.3,9.9c1.1,0.9,2.2,1.7,3.5,2.2c1.3,0.6,2.7,0.9,4,0.8 c1.4-0.1,2.6-0.6,3.8-1.3c1.2-0.7,2.3-1.5,3.4-2.2c2-1.2,4.1-2.3,6.1-3.4c2.5-1.3,4.8-2.9,6.9-4.8c0.9-0.9,1.8-1.8,2.9-2.6 c1-0.7,2.3-1.3,3.6-1.2c1,0.1,1.9,0.5,2.8,0.7c0.5,0.1,1,0.2,1.4,0.1c0.5-0.1,0.9-0.3,1.3-0.6c0.4-0.4,0.6-1,0.6-1.6 s-0.2-1.2-0.5-1.7c-0.5-1-1.4-1.9-1.8-3.1c-0.3-1-0.3-2.1-0.2-3.1c0-1,0-2.1-0.5-3.1c-0.4-0.7-1-1.3-1.7-1.6 c-0.7-0.4-1.5-0.6-2.3-0.6c-1.6-0.1-3.2,0.2-4.8,0.3c-2.1,0.1-4.2-0.1-6.4,0c-2.6,0.2-5.2,0.9-7.9,0.9c-3,0-6-1-9-0.5 c-1.3,0.2-2.5,0.7-3.7,1.1c-1.2,0.4-2.5,0.8-3.8,0.8c-1.5,0-2.9-0.5-4.4-0.6c-0.7-0.1-1.5,0-2.2,0.3c-0.7,0.3-1.3,0.7-1.7,1.4 c-0.2,0.4-0.3,0.8-0.3,1.2c0,0.4,0,0.8,0.1,1.3c0.2,0.8,0.6,1.6,0.9,2.4C165.9,76.1,166.1,79.2,167.1,82.1"></path> </g> <g> <defs> <path id="SVGID_31_" d="M169,67.9c-0.8,1-1.4,2.3-1.7,3.6c-0.3,1.3-0.4,2.6-0.5,4c-0.1,2.7,0.1,5.4-0.6,8 c-0.8,2.8-2.5,5.2-4.1,7.5c-2.9,4-5.8,8.2-7.2,12.9c-0.9,2.9-1.1,5.9-0.8,8.9c-3.2,4.7-6,9.8-8.3,15c-3.5,7.9-5.9,16.4-6.7,25 c-1,10.6,0.3,21.4,4.5,31.2c3,7.1,7.5,13.5,13.3,18.5c2.9,2.6,6.2,4.7,9.7,6.5c12.1,6,27.1,6,39.1-0.4 c6.2-3.3,11.5-8.2,16.6-13.1c3.1-3,6.1-6,8.4-9.6c4.5-6.9,6.1-15.2,7-23.3c1.7-14.2,1.8-29.3-4.5-42.2c-2.1-4.4-5-8.5-8.4-12.1 c-0.9-6.2-2.7-12.3-5.3-18c-1.9-4.1-4.2-8-6-12.2c-0.7-1.7-1.3-3.5-2.1-5.1s-1.8-3.3-3.1-4.6c-1.4-1.3-3.1-2.2-4.9-2.8 c-1.8-0.6-3.7-0.9-5.6-1c-3.8-0.2-7.6,0.3-11.4,0.2c-3-0.1-6-0.7-9.1-0.5c-1.5,0.1-3,0.4-4.4,0.9 C171.2,65.8,169.9,66.7,169,67.9"></path> </defs> <clipPath id="SVGID_2_"> <use xlink:href="#SVGID_31_" style="overflow:visible;"></use> </clipPath> <path id="path28461-84-3" class="st11" d="M163.3,70.9c2.6,1.6,5,3.6,7,5.9c1.8,2.1,3.4,4.5,5.8,6.1c1.7,1.1,3.7,1.7,5.8,1.9 c2.4,0.2,4.9-0.1,7.2-0.8c2.2-0.6,4.3-1.4,6.2-2.5c3.7-2.1,6.7-5.1,10.8-6.5c0.9-0.3,1.8-0.5,2.7-0.9c0.9-0.4,1.7-0.9,2.1-1.7 c0.4-0.8,0.4-1.6,0.5-2.4c0.1-0.9,0.4-1.7,0.6-2.6c0.2-0.9,0.2-1.8-0.2-2.6c-0.3-0.7-1-1.2-1.7-1.5c-0.7-0.3-1.5-0.5-2.3-0.5 c-1.6-0.1-3.2,0.3-4.8,0.4c-2.1,0.2-4.2-0.1-6.4,0c-2.6,0.1-5.2,0.6-7.9,0.7c-3,0.1-6-0.3-9-0.4c-1.3,0-2.6,0-3.9,0.2 c-1.3,0.2-2.5,0.6-3.6,1.3c-1.1,0.6-1.9,1.5-2.9,2.3c-0.5,0.4-1,0.7-1.6,1c-0.6,0.3-1.2,0.4-1.8,0.5c-0.3,0-0.7,0-1,0 c-0.5,0.1-1,0.4-1.4,0.8C163.3,69.8,163.2,70.4,163.3,70.9L163.3,70.9"></path> </g> </g> <g id="g481"> <path id="path29705-5-0" class="st0" d="M242.7,117.1c4.9,3.9,7.9,9.8,8.9,16c0.7,4.8,0.3,9.7-0.8,14.5s-2.8,9.3-4.4,13.9 c-0.7,1.8-1.3,3.7-1.6,5.6c-0.3,1.9-0.1,4,0.8,5.7c1.1,2,3,3.3,5.2,3.9c2.1,0.6,4.4,0.6,6.5,0.1c2.1-0.5,5.7-1.2,7.4-2.6 c4.4-3.4,5.4-9.3,6.5-14.6c1.1-5.4,0.6-11.1-0.4-16.6c-1.3-7.5-3.5-14.8-6.3-21.9c-2.1-5.2-4.7-10.2-7.8-14.8 c-3.1-4.5-7.4-8.1-10.6-12.5c-1.1-1.5-2.5-3.1-3.6-4.7c-2.4-3.3-1.8-2.7-3.3-4.9c-1.1-1.6-2.7-2.1-4.5-2.8s-3.8-0.9-5.6-0.4 c-2.4,0.7-4.4,2.6-5.4,4.9c-1,2.3-1.2,4.9-0.8,7.4c0.5,3.2,2,6.1,3.6,8.9c1.9,3.1,4,6.2,6.8,8.5 C236.2,113.1,239.7,114.7,242.7,117.1"></path> <path id="path14967-1-0" class="st0" d="M151.2,92.8c-5.6,6.4-11.5,12.6-14.6,19.6c-1.6,3.5-2.3,7.3-3.4,11 c-1.2,4.2-2.9,8.3-4.8,12.2c-1.7,3.7-3.6,7.2-5.5,10.8c-1.4,2.6-2.8,5.3-3.3,8.2c-0.4,2.3-0.2,4.7,0.4,6.9 c0.6,2.3,1.5,4.4,2.6,6.5c4.5,8.8,11.3,16.5,19.3,22.3c3.6,2.6,7.6,4.9,11.6,6.8c2.2,1,4.6,1.9,7,2c1.2,0,2.5-0.2,3.6-0.7 c1.1-0.5,2.1-1.3,2.8-2.3c0.8-1.3,1.1-2.8,0.9-4.3c-0.2-1.5-0.7-2.9-1.5-4.2c-1.9-3.1-4.9-5.4-7.8-7.6c-6.3-4.8-12.3-10-18.1-15.3 c-1.6-1.5-3.3-3.1-4.4-5c-1.1-1.9-1.7-4-2.1-6.1c-1.1-5.9-0.8-12,1.2-17.7c0.8-2.2,1.8-4.3,2.8-6.4c1.7-3.7,3.4-7.4,5.6-10.7 c2.8-4.2,6.6-7.7,8.9-12.2c1.9-3.8,2.7-8,3.5-12.2c0.6-3.3,1.7-6.5,2.3-9.8C157.1,86.6,153.5,90,151.2,92.8L151.2,92.8z"></path> </g> <g id="g514"> <g> <defs> <path id="SVGID_33_" d="M242.7,117.1c4.9,3.9,7.9,9.8,8.9,16c0.7,4.8,0.3,9.7-0.8,14.5c-1.1,4.7-2.8,9.3-4.4,13.9 c-0.7,1.8-1.3,3.7-1.6,5.6c-0.3,1.9-0.1,4,0.8,5.7c1.1,2,3,3.3,5.2,3.9c2.1,0.6,4.4,0.6,6.5,0.1c2.1-0.5,4.1-1.6,5.8-2.9 c4.4-3.4,7.1-8.7,8.1-14.2c1-5.5,0.6-11.1-0.4-16.6c-1.3-7.5-3.5-14.8-6.3-21.9c-2.1-5.2-4.7-10.2-7.8-14.8 c-3.1-4.5-7.4-8.1-10.6-12.5c-1.1-1.5-2.5-3.1-3.6-4.7c-2.4-3.3-1.8-2.7-3.3-4.9c-1.1-1.6-2.7-2.1-4.5-2.8 c-1.8-0.7-3.8-0.9-5.6-0.4c-2.4,0.7-4.4,2.6-5.4,4.9c-1,2.3-1.2,4.9-0.8,7.4c0.5,3.2,2,6.1,3.6,8.9c1.9,3.1,4,6.2,6.8,8.5 C236.2,113.1,239.7,114.7,242.7,117.1"></path> </defs> <clipPath id="SVGID_3_"> <use xlink:href="#SVGID_33_" style="overflow:visible;"></use> </clipPath> <path id="path29705-9" class="st12" d="M231.3,109.6c0.4,0.4,0.8,0.8,1.2,1.1c3,2.4,4.6,5.2,7.6,7.6c4.9,3.9,10,10.6,10.9,16.8 c0.8,4.8-0.2,7.4-1.5,13.1c-1.2,5.7-4.7,13.7-6.6,19.1c-0.7,2.2,1.5,1.3,1.2,3.6c-0.1,1.1-0.2,2.3,0,3.4c0-0.2,0-0.4,0.1-0.7 c0.4-3.1,1.3-6.1,2.4-9.1c2-5.7,4.3-11.2,5.9-17.1s1.4-10,0.6-15c-1-6.3-4.7-12.1-9.9-16C239.5,113.7,235.2,111.9,231.3,109.6 L231.3,109.6z"></path> </g> <g> <defs> <path id="SVGID_35_" d="M151.2,92.8c-5.6,6.4-11.5,12.6-14.6,19.6c-1.6,3.5-2.3,7.3-3.4,11c-1.2,4.2-2.9,8.3-4.8,12.2 c-1.7,3.7-3.6,7.2-5.5,10.8c-1.4,2.6-2.8,5.3-3.3,8.2c-0.4,2.3-0.2,4.7,0.4,6.9s1.5,4.4,2.6,6.5c4.5,8.8,11.3,16.5,19.3,22.3 c3.6,2.6,7.6,4.9,11.6,6.8c2.2,1,4.6,1.9,7,2c1.2,0,2.5-0.2,3.6-0.7s2.1-1.3,2.8-2.3c0.8-1.3,1.1-2.8,0.9-4.3 c-0.2-1.5-0.7-2.9-1.5-4.2c-1.9-3.1-4.9-5.4-7.8-7.6c-6.3-4.8-12.3-10-18.1-15.3c-1.6-1.5-3.3-3.1-4.4-5c-1.1-1.9-1.7-4-2.1-6.1 c-1.1-5.9-0.8-12,1.2-17.7c0.8-2.2,1.8-4.3,2.8-6.4c1.7-3.7,3.4-7.4,5.6-10.7c2.8-4.2,6.6-7.7,8.9-12.2c1.9-3.8,2.7-8,3.5-12.2 c0.6-3.3,1.7-6.5,2.3-9.8C157.1,86.6,153.5,90,151.2,92.8L151.2,92.8z"></path> </defs> <clipPath id="SVGID_4_"> <use xlink:href="#SVGID_35_" style="overflow:visible;"></use> </clipPath> <path id="path15007-0" class="st13" d="M144.7,116.1c-1.9,1.7-3.5,3.7-4.7,5.8c-2.1,3.6-3.4,7.6-4.9,11.4 c-1.2,2.9-2.5,5.7-2.7,8.8c-0.1,1.6,0.2,3.2,0.2,4.7c0.1,1.6-0.1,3.2-0.9,4.6c-0.6,1.2-1.7,2.1-3,2.5c1.7,0.6,3.2,1.7,4.3,3.1 c0.9,1.2,1.5,2.6,2.2,3.9c0.6,1,1.4,2,2.3,2.7c0.9,0.8,2.1,1.3,3.3,1.4c1.6,0.2,3.4-0.3,4.6-1.5c-1.5-14.4-0.1-29.1,4.1-42.9 c0.3-0.9,0.5-1.8,0.6-2.7c0.1-0.9-0.1-1.9-0.7-2.6c-0.3-0.4-0.7-0.7-1.1-0.9c-0.4-0.2-0.9-0.3-1.4-0.2c-0.5,0.1-1,0.2-1.3,0.5 C145.3,115.3,144.9,115.7,144.7,116.1L144.7,116.1"></path> </g> </g> <g id="g457"> <g id="g444"> <linearGradient id="path14483-7-4_1_" gradientUnits="userSpaceOnUse" x1="378.6452" y1="-10.4521" x2="381.5945" y2="-32.46" gradientTransform="matrix(1.0269 0 0 -1 -144.3942 183.0378)"> <stop offset="0" style="stop-color:#010101"></stop> <stop offset="1" style="stop-color:#010101;stop-opacity:0"></stop> </linearGradient> <path id="path14483-7-4" class="st14" d="M275.4,199c-0.4,1.2-0.9,2.4-1.7,3.5c-1.6,2.4-4,4.2-6.3,5.9c-4,2.8-8.2,5.5-11.9,8.7 c-2.5,2.2-4.8,4.6-6.9,7.2c-1.8,2.2-3.5,4.5-5.6,6.4c-2.1,2-4.5,3.5-7.2,4.4c-3.2,1.1-6.6,1-9.7,0.2c-2.2-0.6-4.3-1.5-5.6-3.3 c-1.3-1.8-1.8-4.1-1.9-6.4c-0.3-4.1,0.2-8.3,0.7-12.4c0.4-3.5,0.7-6.9,0.9-10.3c0.3-6.3-0.2-12.5-1-18.6c-0.1-1-0.3-2-0.2-3.1 c0.1-1.1,0.4-2.1,1.2-3c0.7-0.7,1.6-1.2,2.6-1.4c0.9-0.2,1.9-0.2,2.9-0.3c2.2-0.1,4.5-0.2,6.7,0c1.4,0.1,2.8,0.4,4.2,0.5 c2.3,0.2,4.7,0.1,7.1-0.6c2.5-0.7,4.9-2.1,7.5-2.5c1-0.2,2.1-0.1,3.1,0c1,0.1,2.1,0.4,2.9,1.1c0.6,0.5,1.1,1.1,1.4,1.8 c0.5,1.1,0.8,2.2,1,3.4c0.2,1.1,0.2,2.1,0.5,3.2c0.4,1.7,1.5,3.1,2.7,4.3c1.2,1.2,2.6,2.1,4.1,3c1.4,0.9,2.8,1.8,4.4,2.5 c0.7,0.3,1.4,0.7,2.1,1.1c0.7,0.4,1.3,0.9,1.8,1.5C275.3,196.7,275.5,197.9,275.4,199L275.4,199"></path> <linearGradient id="path14296-0_1_" gradientUnits="userSpaceOnUse" x1="471.9474" y1="-49.1685" x2="510.3082" y2="13.0267" gradientTransform="matrix(1 0 0 -1 -242.0002 183.0378)"> <stop offset="0" style="stop-color:#3D2C13"></stop> <stop offset="1" style="stop-color:#AC7A2B"></stop> </linearGradient> <path id="path14296-0" class="st15" d="M289,205.8c-2.1,2.5-5,4.1-7.9,5.6c-4.9,2.5-10.1,4.7-14.7,7.8c-3.1,2-6,4.4-8.7,7 c-2.3,2.2-4.5,4.5-7,6.4c-2.6,1.9-5.6,3.2-8.8,3.7c-3.9,0.6-7.8-0.2-11.4-1.7c-2.5-1.1-4.9-2.7-6.4-5c-1.4-2.3-1.8-5.2-1.8-7.9 c0-4.8,0.9-9.6,1.7-14.4c0.7-4,1.4-7.9,1.8-11.9c0.8-7.3,0.8-14.6,0.3-22c-0.1-1.2-0.2-2.5,0-3.7c0.2-1.2,0.7-2.4,1.6-3.2 c0.9-0.7,2-1.1,3.1-1.1c1.1-0.1,2.3,0.1,3.4,0.3c2.6,0.4,5.3,0.7,7.9,1.4c1.6,0.4,3.2,1,4.8,1.4c2.7,0.7,5.6,1.1,8.4,0.8 c3-0.4,5.9-1.5,9-1.4c1.2,0,2.5,0.3,3.7,0.6c1.2,0.4,2.4,0.9,3.3,1.8c0.7,0.7,1.1,1.6,1.5,2.4c0.5,1.3,0.8,2.8,0.9,4.2 c0.1,1.3,0.1,2.5,0.3,3.8c0.4,2.1,1.5,3.9,2.8,5.5c1.3,1.6,2.9,3,4.5,4.3c1.6,1.3,3.2,2.7,4.9,3.9c0.8,0.6,1.6,1.1,2.4,1.7 s1.5,1.3,2,2.2c0.7,1.2,0.8,2.6,0.4,3.9C290.7,203.4,290,204.6,289,205.8L289,205.8z"></path> <g> <defs> <path id="SVGID_37_" d="M289,205.8c-2.1,2.5-5,4.1-7.9,5.6c-4.9,2.5-10.1,4.7-14.7,7.8c-3.1,2-6,4.4-8.7,7 c-2.3,2.2-4.5,4.5-7,6.4c-2.6,1.9-5.6,3.2-8.8,3.7c-3.9,0.6-7.8-0.2-11.4-1.7c-2.5-1.1-4.9-2.7-6.4-5c-1.4-2.3-1.8-5.2-1.8-7.9 c0-4.8,0.9-9.6,1.7-14.4c0.7-4,1.4-7.9,1.8-11.9c0.8-7.3,0.8-14.6,0.3-22c-0.1-1.2-0.2-2.5,0-3.7c0.2-1.2,0.7-2.4,1.6-3.2 c0.9-0.7,2-1.1,3.1-1.1c1.1-0.1,2.3,0.1,3.4,0.3c2.6,0.4,5.3,0.7,7.9,1.4c1.6,0.4,3.2,1,4.8,1.4c2.7,0.7,5.6,1.1,8.4,0.8 c3-0.4,5.9-1.5,9-1.4c1.2,0,2.5,0.3,3.7,0.6c1.2,0.4,2.4,0.9,3.3,1.8c0.7,0.7,1.1,1.6,1.5,2.4c0.5,1.3,0.8,2.8,0.9,4.2 c0.1,1.3,0.1,2.5,0.3,3.8c0.4,2.1,1.5,3.9,2.8,5.5c1.3,1.6,2.9,3,4.5,4.3c1.6,1.3,3.2,2.7,4.9,3.9c0.8,0.6,1.6,1.1,2.4,1.7 c0.8,0.6,1.5,1.3,2,2.2c0.7,1.2,0.8,2.6,0.4,3.9C290.7,203.4,290,204.6,289,205.8L289,205.8z"></path> </defs> <clipPath id="SVGID_5_"> <use xlink:href="#SVGID_37_" style="overflow:visible;"></use> </clipPath> <path id="path14296-3-7" class="st16" d="M288.8,199.5c-0.5,1.2-1.2,2.4-2.1,3.4c-1.9,2.2-4.6,3.7-7.2,5 c-4.5,2.3-9.2,4.2-13.4,7c-2.8,1.8-5.5,4-7.9,6.3c-2.1,2-4.1,4.1-6.4,5.8c-2.4,1.7-5.1,2.9-8,3.3c-3.5,0.5-7.1-0.2-10.4-1.6 c-2.3-1-4.5-2.4-5.8-4.5c-1.3-2.1-1.6-4.7-1.6-7.1c0-4.4,0.8-8.7,1.6-13c0.6-3.6,1.3-7.1,1.6-10.7c0.7-6.5,0.7-13.2,0.2-19.7 c-0.1-1.1-0.2-2.2,0-3.3c0.2-1.1,0.6-2.2,1.5-2.9c0.8-0.7,1.8-1,2.9-1c1-0.1,2.1,0.1,3.1,0.3c2.4,0.4,4.8,0.6,7.2,1.2 c1.5,0.4,2.9,0.9,4.4,1.3c2.5,0.7,5.1,1,7.6,0.7c2.7-0.3,5.4-1.3,8.2-1.3c1.1,0,2.3,0.2,3.3,0.6c1.1,0.3,2.2,0.8,3,1.6 c0.6,0.6,1,1.4,1.4,2.2c0.5,1.2,0.8,2.5,0.9,3.8c0,1.4-0.3,2.7-0.1,4c0.1,1.1,0.6,2.1,1.2,3c0.6,0.9,1.3,1.8,2,2.6 c1.4,1.6,2.7,3.3,4.5,4.5c2,1.4,4.3,2.2,6.3,3.6c0.6,0.4,1.2,0.8,1.6,1.4C289,197,289.2,198.3,288.8,199.5L288.8,199.5"></path> </g> <g> <defs> <path id="SVGID_39_" d="M289,205.8c-2.1,2.5-5,4.1-7.9,5.6c-4.9,2.5-10.1,4.7-14.7,7.8c-3.1,2-6,4.4-8.7,7 c-2.3,2.2-4.5,4.5-7,6.4c-2.6,1.9-5.6,3.2-8.8,3.7c-3.9,0.6-7.8-0.2-11.4-1.7c-2.5-1.1-4.9-2.7-6.4-5c-1.4-2.3-1.8-5.2-1.8-7.9 c0-4.8,0.9-9.6,1.7-14.4c0.7-4,1.4-7.9,1.8-11.9c0.8-7.3,0.8-14.6,0.3-22c-0.1-1.2-0.2-2.5,0-3.7c0.2-1.2,0.7-2.4,1.6-3.2 c0.9-0.7,2-1.1,3.1-1.1c1.1-0.1,2.3,0.1,3.4,0.3c2.6,0.4,5.3,0.7,7.9,1.4c1.6,0.4,3.2,1,4.8,1.4c2.7,0.7,5.6,1.1,8.4,0.8 c3-0.4,5.9-1.5,9-1.4c1.2,0,2.5,0.3,3.7,0.6c1.2,0.4,2.4,0.9,3.3,1.8c0.7,0.7,1.1,1.6,1.5,2.4c0.5,1.3,0.8,2.8,0.9,4.2 c0.1,1.3,0.1,2.5,0.3,3.8c0.4,2.1,1.5,3.9,2.8,5.5c1.3,1.6,2.9,3,4.5,4.3c1.6,1.3,3.2,2.7,4.9,3.9c0.8,0.6,1.6,1.1,2.4,1.7 c0.8,0.6,1.5,1.3,2,2.2c0.7,1.2,0.8,2.6,0.4,3.9C290.7,203.4,290,204.6,289,205.8L289,205.8z"></path> </defs> <clipPath id="SVGID_6_"> <use xlink:href="#SVGID_39_" style="overflow:visible;"></use> </clipPath> <path id="path14296-3-1-9" class="st17" d="M288.5,198.1c-0.5,1.2-1.3,2.4-2.1,3.4c-2,2.4-4.6,4-7.4,5.1 c-4.6,1.7-9.6,2-14.1,3.9c-2.8,1.2-5.2,3-7.7,4.7c-2,1.4-4.1,2.7-6.3,3.7c-2.5,1.1-5.2,1.7-7.9,2.1c-1.7,0.3-3.4,0.5-5.2,0.4 c-1.7-0.1-3.5-0.5-5-1.4c-1.2-0.7-2.2-1.6-2.8-2.9c-0.7-1.4-0.8-3-0.8-4.6c0-4.2,0.9-8.3,0.9-12.5c0-3.6-0.7-7.2-1-10.8 c-0.4-7,1.1-14.1-0.2-20.9c-0.2-1.1-0.5-2.2-0.5-3.3c0-0.6,0.1-1.1,0.3-1.6c0.2-0.5,0.5-1,0.9-1.3c0.4-0.3,0.8-0.4,1.2-0.5 c0.4-0.1,0.9-0.1,1.3,0c0.9,0.1,1.7,0.5,2.5,0.7c2.4,0.7,5,0.7,7.4,1.2c1.5,0.3,3,0.9,4.5,1.3c2.6,0.7,5.2,1,7.8,0.7 c2.8-0.3,5.6-1.4,8.4-1.3c1.2,0,2.3,0.2,3.4,0.6c1.1,0.3,2.2,0.8,3.1,1.7c0.6,0.6,1,1.4,1.4,2.2c0.5,1.2,0.9,2.5,0.9,3.8 c0,0.7-0.1,1.4-0.2,2c-0.1,0.7-0.1,1.4,0.1,2c0.2,0.7,0.5,1.3,0.9,1.8c0.4,0.5,0.8,1,1.2,1.6c1.1,1.5,1.9,3.2,2.8,4.9 s1.9,3.3,3.3,4.5c1.9,1.6,4.4,2.3,6.5,3.6c0.6,0.4,1.2,0.8,1.7,1.4c0.3,0.5,0.6,1.1,0.7,1.7 C288.8,196.9,288.7,197.5,288.5,198.1L288.5,198.1"></path> </g> <g> <defs> <path id="SVGID_41_" d="M289,205.8c-2.1,2.5-5,4.1-7.9,5.6c-4.9,2.5-10.1,4.7-14.7,7.8c-3.1,2-6,4.4-8.7,7 c-2.3,2.2-4.5,4.5-7,6.4c-2.6,1.9-5.6,3.2-8.8,3.7c-3.9,0.6-7.8-0.2-11.4-1.7c-2.5-1.1-4.9-2.7-6.4-5c-1.4-2.3-1.8-5.2-1.8-7.9 c0-4.8,0.9-9.6,1.7-14.4c0.7-4,1.4-7.9,1.8-11.9c0.8-7.3,0.8-14.6,0.3-22c-0.1-1.2-0.2-2.5,0-3.7c0.2-1.2,0.7-2.4,1.6-3.2 c0.9-0.7,2-1.1,3.1-1.1c1.1-0.1,2.3,0.1,3.4,0.3c2.6,0.4,5.3,0.7,7.9,1.4c1.6,0.4,3.2,1,4.8,1.4c2.7,0.7,5.6,1.1,8.4,0.8 c3-0.4,5.9-1.5,9-1.4c1.2,0,2.5,0.3,3.7,0.6c1.2,0.4,2.4,0.9,3.3,1.8c0.7,0.7,1.1,1.6,1.5,2.4c0.5,1.3,0.8,2.8,0.9,4.2 c0.1,1.3,0.1,2.5,0.3,3.8c0.4,2.1,1.5,3.9,2.8,5.5c1.3,1.6,2.9,3,4.5,4.3c1.6,1.3,3.2,2.7,4.9,3.9c0.8,0.6,1.6,1.1,2.4,1.7 s1.5,1.3,2,2.2c0.7,1.2,0.8,2.6,0.4,3.9C290.7,203.4,290,204.6,289,205.8L289,205.8z"></path> </defs> <clipPath id="SVGID_7_"> <use xlink:href="#SVGID_41_" style="overflow:visible;"></use> </clipPath> <linearGradient id="path16493_1_" gradientUnits="userSpaceOnUse" x1="392.0187" y1="13.5693" x2="390.8904" y2="3.415" gradientTransform="matrix(1 0 0 -1 -142.0002 181.0378)"> <stop offset="0" style="stop-color:#F3CD16"></stop> <stop offset="1" style="stop-color:#F3CD16;stop-opacity:0"></stop> </linearGradient> <path id="path16493" class="st18" d="M228.5,167.5c2.6-0.7,4.8,1.3,6.7,2.8c1.2,1,3,0.8,4.5,0.8c2.5-0.1,5,0.4,7.5,0.1 c4.9-0.4,9.7-1.6,14.6-1.8c2.4-0.1,5-0.3,7,1.1c0.8,0.6,2,3,2.8,2.1c-0.3-2.5-2.2-5-4.7-5.7c-2-0.3-4,0.2-6,0.1 c-5.9-0.1-11.8-1.2-17.7-0.9c-4.1,0-8.3-0.2-12.4-0.3c-1.6-0.3-2.2,1.1-3.1,1.7"></path> </g> </g> <g id="g411"> <linearGradient id="path4635-1_1_" gradientUnits="userSpaceOnUse" x1="181.7229" y1="3.0119" x2="219.8016" y2="-60.8757" gradientTransform="matrix(1 0 0 -1 -72.0002 183.0378)"> <stop offset="0" style="stop-color:#B8842C"></stop> <stop offset="1" style="stop-color:#372813"></stop> </linearGradient> <path id="path4635-1" class="st19" d="M125,161.4c1.3-0.5,2.7-0.6,4.1-0.4c1.4,0.3,2.6,0.8,3.8,1.6c2.3,1.6,4,3.8,5.6,6 c3.7,5.1,7.3,10.4,10.6,15.8c2.6,4.4,5.1,9,8.1,13.1c2,2.7,4.2,5.2,6.2,7.9c2,2.7,3.8,5.6,4.7,8.9c1.2,4.2,0.7,8.8-1.3,12.7 c-1.4,2.7-3.6,5.1-6.2,6.7c-2.6,1.6-5.7,2.4-8.8,2.3c-4.9-0.2-9.3-2.6-13.9-4.4c-9.2-3.7-19.3-4.8-28.8-7.7 c-2.9-0.9-5.8-1.9-8.8-2.7c-1.3-0.4-2.6-0.7-3.9-1.2c-1.2-0.6-2.4-1.4-3.1-2.6c-0.5-0.9-0.8-2-0.7-3s0.3-2.1,0.6-3.1 c0.7-2,1.9-3.8,2.6-5.7c1.3-3.2,1.5-6.7,1.3-10.1c-0.2-3.4-0.7-6.8-1-10.2c-0.1-1.5-0.1-3.1,0.1-4.6s0.9-3,2-4 c1-1,2.4-1.6,3.7-1.8c1.4-0.3,2.8-0.3,4.2-0.3c1.4,0,2.8,0.1,4.2,0c1.4-0.1,2.8-0.4,4-1.1c1.2-0.7,2.1-1.7,2.9-2.7 c0.8-1.1,1.4-2.3,2.1-3.4c0.7-1.2,1.3-2.3,2.2-3.4S123.8,161.9,125,161.4"></path> <g> <defs> <path id="SVGID_43_" d="M125,161.4c1.3-0.5,2.7-0.6,4.1-0.4c1.4,0.3,2.6,0.8,3.8,1.6c2.3,1.6,4,3.8,5.6,6 c3.7,5.1,7.3,10.4,10.6,15.8c2.6,4.4,5.1,9,8.1,13.1c2,2.7,4.2,5.2,6.2,7.9c2,2.7,3.8,5.6,4.7,8.9c1.2,4.2,0.7,8.8-1.3,12.7 c-1.4,2.7-3.6,5.1-6.2,6.7c-2.6,1.6-5.7,2.4-8.8,2.3c-4.9-0.2-9.3-2.6-13.9-4.4c-9.2-3.7-19.3-4.8-28.8-7.7 c-2.9-0.9-5.8-1.9-8.8-2.7c-1.3-0.4-2.6-0.7-3.9-1.2c-1.2-0.6-2.4-1.4-3.1-2.6c-0.5-0.9-0.8-2-0.7-3c0-1,0.3-2.1,0.6-3.1 c0.7-2,1.9-3.8,2.6-5.7c1.3-3.2,1.5-6.7,1.3-10.1c-0.2-3.4-0.7-6.8-1-10.2c-0.1-1.5-0.1-3.1,0.1-4.6c0.3-1.5,0.9-3,2-4 c1-1,2.4-1.6,3.7-1.8c1.4-0.3,2.8-0.3,4.2-0.3c1.4,0,2.8,0.1,4.2,0c1.4-0.1,2.8-0.4,4-1.1c1.2-0.7,2.1-1.7,2.9-2.7 c0.8-1.1,1.4-2.3,2.1-3.4c0.7-1.2,1.3-2.3,2.2-3.4S123.8,161.9,125,161.4"></path> </defs> <clipPath id="SVGID_8_"> <use xlink:href="#SVGID_43_" style="overflow:visible;"></use> </clipPath> <path id="path13596-6" class="st20" d="M127,163.6c1.2-0.5,2.5-0.5,3.7-0.2c1.2,0.3,2.4,0.9,3.3,1.6c2,1.5,3.4,3.7,4.7,5.8 c3.2,5.1,6.3,10.3,9.2,15.6c2.2,4,4.3,8.1,7.1,11.7c1.8,2.4,3.9,4.7,5.7,7c1.8,2.4,3.5,5,4.3,7.9c1.1,3.8,0.6,7.9-1.2,11.4 c-1.3,2.5-3.3,4.6-5.7,6c-2.4,1.4-5.2,2.1-8,2c-4.5-0.2-8.5-2.4-12.7-3.9c-8.1-2.9-16.8-3.3-25.1-5.6c-3-0.8-5.9-1.9-8.8-2.6 c-1.3-0.3-2.7-0.6-3.9-1.1c-1.3-0.5-2.4-1.3-3.1-2.5c-0.5-0.9-0.7-1.9-0.7-2.9c0-1,0.3-2,0.6-2.9c0.7-1.9,1.9-3.6,2.6-5.5 c1.1-2.9,1.2-6,1-9c-0.2-3-0.7-6.1-0.9-9.1c-0.1-1.4-0.1-2.7,0.2-4.1c0.3-1.3,0.9-2.6,1.8-3.6c1.1-1,2.5-1.6,4-1.8s3-0.1,4.4,0 c1.5,0.1,3,0.3,4.4,0.2c1.5-0.1,3-0.4,4.2-1.3c1.1-0.8,2-1.9,2.6-3c0.6-1.2,1.1-2.4,1.6-3.7c0.5-1.2,1-2.5,1.8-3.6 C124.7,165.1,125.8,164.1,127,163.6"></path> </g> <g> <defs> <path id="SVGID_45_" d="M125,161.4c1.3-0.5,2.7-0.6,4.1-0.4c1.4,0.3,2.6,0.8,3.8,1.6c2.3,1.6,4,3.8,5.6,6 c3.7,5.1,7.3,10.4,10.6,15.8c2.6,4.4,5.1,9,8.1,13.1c2,2.7,4.2,5.2,6.2,7.9c2,2.7,3.8,5.6,4.7,8.9c1.2,4.2,0.7,8.8-1.3,12.7 c-1.4,2.7-3.6,5.1-6.2,6.7c-2.6,1.6-5.7,2.4-8.8,2.3c-4.9-0.2-9.3-2.6-13.9-4.4c-9.2-3.7-19.3-4.8-28.8-7.7 c-2.9-0.9-5.8-1.9-8.8-2.7c-1.3-0.4-2.6-0.7-3.9-1.2c-1.2-0.6-2.4-1.4-3.1-2.6c-0.5-0.9-0.8-2-0.7-3c0-1,0.3-2.1,0.6-3.1 c0.7-2,1.9-3.8,2.6-5.7c1.3-3.2,1.5-6.7,1.3-10.1c-0.2-3.4-0.7-6.8-1-10.2c-0.1-1.5-0.1-3.1,0.1-4.6c0.3-1.5,0.9-3,2-4 c1-1,2.4-1.6,3.7-1.8c1.4-0.3,2.8-0.3,4.2-0.3c1.4,0,2.8,0.1,4.2,0c1.4-0.1,2.8-0.4,4-1.1c1.2-0.7,2.1-1.7,2.9-2.7 c0.8-1.1,1.4-2.3,2.1-3.4c0.7-1.2,1.3-2.3,2.2-3.4S123.8,161.9,125,161.4"></path> </defs> <clipPath id="SVGID_9_"> <use xlink:href="#SVGID_45_" style="overflow:visible;"></use> </clipPath> <path id="path4635-2-4" class="st21" d="M125.9,160.7c1.1-0.6,2.4-0.7,3.7-0.4c1.2,0.3,2.4,0.9,3.3,1.6c1.9,1.6,3.2,3.8,4.3,6 c2.6,5.1,5.1,10.2,8.2,15c2.3,3.5,4.9,6.7,7.2,10.1c3.1,4.7,5.7,9.8,6.7,15.3c0.7,3.7,0.7,7.7-1.1,11c-1.2,2.2-3.1,4-5.3,5.1 c-2.2,1.1-4.8,1.6-7.3,1.4c-4-0.3-7.5-2.3-11.3-3.6c-6.6-2.4-13.7-3-20.5-4.8c-2.9-0.8-5.7-1.8-8.6-2.4 c-1.3-0.3-2.6-0.5-3.8-0.9c-1.2-0.5-2.4-1.2-3-2.4c-0.4-0.8-0.6-1.7-0.5-2.6c0.1-0.9,0.3-1.8,0.7-2.6c0.7-1.7,1.8-3.2,2.3-4.9 c0.8-2.5,0.5-5.3-0.1-7.9c-0.6-2.6-1.5-5.1-1.8-7.8c-0.1-1.2-0.1-2.4,0.2-3.5c0.3-1.2,0.8-2.3,1.7-3.1c1.1-1.1,2.7-1.6,4.2-1.7 c1.5-0.1,3.1,0.1,4.6,0.3c1.5,0.2,3.1,0.5,4.6,0.4c1.6-0.1,3.1-0.5,4.4-1.4c1.2-0.9,2-2.3,2.4-3.8c0.4-1.4,0.6-3,0.8-4.5 c0.2-1.5,0.4-3,1-4.4C123.6,162.7,124.6,161.4,125.9,160.7"></path> </g> <linearGradient id="path4792-8_1_" gradientUnits="userSpaceOnUse" x1="224.4598" y1="-12.8957" x2="236.4475" y2="-35.4609" gradientTransform="matrix(1 0 0 -1 -72.5305 181.2701)"> <stop offset="0" style="stop-color:#EAC41D"></stop> <stop offset="1" style="stop-color:#EAC41D;stop-opacity:0"></stop> </linearGradient> <path id="path4792-8" class="st22" d="M140,173.3c2.1,3.8,3.3,8.1,5.4,11.9c1.9,3.5,4.1,7.1,6,10.3c0.9,1.4,2.9,3.6,4.9,7.1 c1.8,3.1,3.7,7.4,4.7,8.9c-0.6-1.7-1.8-6.3-3.3-9.5c-1.4-3-3-4.8-3.9-6.4c-1.9-3.2-4-6.1-6-9.2C145.1,182.1,143,177.4,140,173.3 L140,173.3z"></path> </g> </g> <g id="g526"> <radialGradient id="path29714-8-2_1_" cx="354.6986" cy="164.5381" r="13.4394" gradientTransform="matrix(1.3082 0.3505 0.368 -1.3732 -275.4326 281.1037)" gradientUnits="userSpaceOnUse"> <stop offset="0" style="stop-color:#16100B"></stop> <stop offset="0.5907" style="stop-color:#A65D26;stop-opacity:0.8"></stop> <stop offset="1" style="stop-color:#F79226;stop-opacity:0"></stop> </radialGradient> <path id="path29714-8-2" class="st23" d="M263.7,173.1c-0.4-0.9-1.3-1.5-2.2-1.9c-0.9-0.4-1.9-0.5-2.9-0.5c-2,0-3.9,0.5-5.9,0.4 c-1.7-0.1-3.2-0.8-4.9-1.2c-1.7-0.4-3.4-0.6-5.1-0.1c-1.8,0.5-3.3,1.7-4.3,3.2c-0.9,1.4-1.3,3-1.4,4.6c-0.1,1.6,0,3.2,0.2,4.9 c0.1,1.2,0.3,2.3,0.5,3.5c0.3,1.1,0.7,2.3,1.4,3.2c1,1.4,2.5,2.3,4,2.9c2.6,1,5.5,0.9,8.1-0.1c4.5-2,8.3-5.5,10.7-9.8 c0.8-1.6,1.5-3.2,1.9-4.9c0.2-0.7,0.3-1.4,0.3-2.1C264.2,174.4,264.1,173.7,263.7,173.1"></path> <radialGradient id="path29714-8-3-0_1_" cx="377.7781" cy="82.4823" r="13.4394" gradientTransform="matrix(1.3082 0.2534 0.368 -0.9927 -275.4325 161.3476)" gradientUnits="userSpaceOnUse"> <stop offset="0" style="stop-color:#16100B"></stop> <stop offset="0.5907" style="stop-color:#A65D26;stop-opacity:0.8"></stop> <stop offset="1" style="stop-color:#F79226;stop-opacity:0"></stop> </radialGradient> <path id="path29714-8-3-0" class="st24" d="M263.7,170.6c-0.4-0.6-1.3-1.1-2.2-1.4s-1.9-0.4-2.9-0.4c-2,0-3.9,0.4-5.9,0.3 c-1.7-0.1-3.2-0.6-4.9-0.8c-1.7-0.3-3.4-0.4-5.1-0.1c-1.8,0.3-3.3,1.2-4.3,2.3c-0.9,1-1.3,2.2-1.4,3.3s0,2.3,0.2,3.5 c0.1,0.8,0.3,1.7,0.5,2.5s0.7,1.6,1.4,2.3c1,1,2.5,1.7,4,2.1c2.6,0.7,5.5,0.7,8.1-0.1c4.5-1.4,8.3-4,10.7-7.1 c0.8-1.1,1.5-2.3,1.9-3.6c0.2-0.5,0.3-1,0.3-1.5C264.2,171.5,264.1,171,263.7,170.6"></path> </g> <g id="g545"> <path id="path29714-5-4" class="st0" d="M267.5,164.9c-0.3-0.9-0.9-1.7-1.6-2.3c-0.7-0.6-1.5-1.1-2.4-1.5c-1.7-0.7-3.6-1-5.5-1.4 c-1.7-0.3-3.5-0.7-5.2-1c-1.8-0.3-3.7-0.5-5.5-0.1c-1.6,0.4-3,1.2-4.2,2.2s-2.1,2.4-2.8,3.9c-1.2,2.6-1.5,5.5-1.3,8.3 c0.2,2.1,0.7,4.3,2.1,5.9c1.1,1.3,2.7,2.1,4.3,2.6c2.8,0.8,5.9,0.8,8.7-0.1c4.6-1.5,8.7-4.6,11.4-8.6c0.9-1.3,1.7-2.8,2-4.3 C267.9,167.3,267.9,166,267.5,164.9"></path> <g> <defs> <path id="SVGID_47_" d="M267.5,164.9c-0.3-0.9-0.9-1.7-1.6-2.3c-0.7-0.6-1.5-1.1-2.4-1.5c-1.7-0.7-3.6-1-5.5-1.4 c-1.7-0.3-3.5-0.7-5.2-1c-1.8-0.3-3.7-0.5-5.5-0.1c-1.6,0.4-3,1.2-4.2,2.2s-2.1,2.4-2.8,3.9c-1.2,2.6-1.5,5.5-1.3,8.3 c0.2,2.1,0.7,4.3,2.1,5.9c1.1,1.3,2.7,2.1,4.3,2.6c2.8,0.8,5.9,0.8,8.7-0.1c4.6-1.5,8.7-4.6,11.4-8.6c0.9-1.3,1.7-2.8,2-4.3 C267.9,167.3,267.9,166,267.5,164.9"></path> </defs> <clipPath id="SVGID_10_"> <use xlink:href="#SVGID_47_" style="overflow:visible;"></use> </clipPath> <radialGradient id="path29714-3-9-9_1_" cx="1169.1256" cy="-492.3972" r="16.3849" gradientTransform="matrix(0.3603 0.1568 7.246786e-02 -0.1665 -122.6 -102.3262)" gradientUnits="userSpaceOnUse"> <stop offset="0" style="stop-color:#7D7D7D"></stop> <stop offset="1" style="stop-color:#7D7D7D;stop-opacity:0.3294"></stop> </radialGradient> <path id="path29714-3-9-9" class="st25" d="M248.4,157.8c-0.4,0-0.9,0.1-1.3,0.1c-2.8,0.5-5.3,2.2-6.7,4.7 c-1,1.7-1.5,3.7-1.3,5.7c0.1-1.4,0.4-2.7,1.1-4c1.1-2.1,3.2-3.6,5.5-4c1.4-0.3,2.9-0.1,4.3,0.1c1.4,0.2,2.8,0.4,4.1,0.6 c2.1,0.5,4.2,1.2,6,2.4c0.4,0.3,0.8,0.6,1.1,1c0.3,0.4,0.6,0.8,0.7,1.3c0.1,0.7-0.1,1.5-0.4,2.1c-0.4,0.6-0.8,1.2-1.4,1.7 c-0.4,0.4-0.9,0.8-1.3,1.2c2-0.4,4.1-1,5.8-2.1c0.7-0.5,1.4-1.1,1.8-1.9c0.4-0.8,0.6-1.7,0.4-2.5c-0.1-0.6-0.5-1.1-0.8-1.5 s-0.9-0.8-1.3-1.1c-2.1-1.5-4.6-2.5-7.2-2.8c-1.7-0.3-3.3-0.6-5-0.8C251,157.8,249.7,157.7,248.4,157.8L248.4,157.8z"></path> </g> <g> <defs> <path id="SVGID_49_" d="M267.5,164.9c-0.3-0.9-0.9-1.7-1.6-2.3c-0.7-0.6-1.5-1.1-2.4-1.5c-1.7-0.7-3.6-1-5.5-1.4 c-1.7-0.3-3.5-0.7-5.2-1c-1.8-0.3-3.7-0.5-5.5-0.1c-1.6,0.4-3,1.2-4.2,2.2c-1.2,1.1-2.1,2.4-2.8,3.9c-1.2,2.6-1.5,5.5-1.3,8.3 c0.2,2.1,0.7,4.3,2.1,5.9c1.1,1.3,2.7,2.1,4.3,2.6c2.8,0.8,5.9,0.8,8.7-0.1c4.6-1.5,8.7-4.6,11.4-8.6c0.9-1.3,1.7-2.8,2-4.3 C267.9,167.3,267.9,166,267.5,164.9"></path> </defs> <clipPath id="SVGID_11_"> <use xlink:href="#SVGID_49_" style="overflow:visible;"></use> </clipPath> <linearGradient id="path29714-3-9-3-8_1_" gradientUnits="userSpaceOnUse" x1="387.591" y1="18.4212" x2="389.9844" y2="18.5209" gradientTransform="matrix(1 0 0 -1 -142.0002 183.0378)"> <stop offset="0" style="stop-color:#7D7D7D"></stop> <stop offset="1" style="stop-color:#7D7D7D;stop-opacity:0.3294"></stop> </linearGradient> <path id="path29714-3-9-3-8" class="st26" d="M248.4,157.8c-0.4,0-0.9,0.1-1.3,0.1c-2.8,0.5-5.3,2.2-6.7,4.7 c-1,1.7-1.5,3.7-1.3,5.7c0.1-1.4,0.4-2.7,1.1-4c1.1-2.1,3.2-3.6,5.5-4c1.4-0.3,2.9-0.1,4.3,0.1c1.4,0.2,2.8,0.4,4.1,0.6 c2.1,0.5,4.2,1.2,6,2.4c0.4,0.3,0.8,0.6,1.1,1c0.3,0.4,0.6,0.8,0.7,1.3c0.1,0.7-0.1,1.5-0.4,2.1c-0.4,0.6-0.8,1.2-1.4,1.7 c-0.4,0.4-0.9,0.8-1.3,1.2c2-0.4,4.1-1,5.8-2.1c0.7-0.5,1.4-1.1,1.8-1.9c0.4-0.8,0.6-1.7,0.4-2.5c-0.1-0.6-0.5-1.1-0.8-1.5 s-0.9-0.8-1.3-1.1c-2.1-1.5-4.6-2.5-7.2-2.8c-1.7-0.3-3.3-0.6-5-0.8C251,157.8,249.7,157.7,248.4,157.8L248.4,157.8z"></path> </g> </g> <g id="g777"> <g id="g669"> <g id="g643"> <radialGradient id="path28795-9-5_1_" cx="340.5599" cy="192.8182" r="11.6257" gradientTransform="matrix(0.8152 -3.431182e-02 -2.961133e-02 -1.248 -99.8465 299.3177)" gradientUnits="userSpaceOnUse"> <stop offset="0" style="stop-color:#FFFFFD"></stop> <stop offset="0.7573" style="stop-color:#FFFFFD"></stop> <stop offset="1" style="stop-color:#D4D4D4"></stop> </radialGradient> <path id="path28795-9-5" class="st27" d="M170.2,34.8c-1.4,0.1-2.8,0.7-3.8,1.7s-1.8,2.2-2.2,3.6c-0.9,2.7-0.7,5.6-0.5,8.5 c0.2,2.6,0.4,5.2,1.3,7.6c0.5,1.2,1.2,2.3,2.1,3.2c0.9,0.9,2,1.6,3.3,1.9c1.2,0.3,2.4,0.2,3.6-0.1c1.2-0.4,2.2-1,3.1-1.9 c1.3-1.2,2.1-2.8,2.6-4.5c0.5-1.7,0.6-3.5,0.6-5.2c0-2.2-0.3-4.4-1-6.5s-1.8-4.1-3.3-5.7c-0.7-0.8-1.6-1.4-2.6-1.9 C172.3,35,171.3,34.8,170.2,34.8"></path> <g id="g605"> <path id="path29453-9" class="st0" d="M166.8,46.6c-0.3,1.8-0.3,3.7,0.3,5.4c0.4,1.1,1.1,2.2,1.9,3c0.5,0.6,1.1,1.1,1.8,1.4 s1.5,0.5,2.3,0.3c0.7-0.2,1.3-0.6,1.8-1.2c0.5-0.6,0.8-1.2,1-1.9c0.6-2,0.5-4.3-0.1-6.3c-0.5-1.5-1.2-2.9-2.4-3.9 c-0.6-0.5-1.2-0.9-2-1c-0.7-0.2-1.5-0.1-2.2,0.2c-0.8,0.3-1.3,1-1.7,1.7C167.1,45,166.9,45.8,166.8,46.6"></path> <linearGradient id="path29465-8_1_" gradientUnits="userSpaceOnUse" x1="212.1754" y1="140.527" x2="216.8295" y2="132.2061" gradientTransform="matrix(1 0 0 -1 -42.0001 183.0378)"> <stop offset="0" style="stop-color:#767675;stop-opacity:0"></stop> <stop offset="0.2629" style="stop-color:#767675"></stop> <stop offset="0.5" style="stop-color:#767675"></stop> <stop offset="1" style="stop-color:#767675;stop-opacity:0"></stop> </linearGradient> <path id="path29465-8" class="st28" d="M170.6,45.3c0.2,0.5,0.8,0.7,1.2,1.1c0.3,0.4,0.7,0.8,0.9,1.3c0.4,0.9-0.4,2.3,0.4,3 c0.2,0.2,0.7,0.2,0.9,0c0.9-0.8,0.7-2.5,0.3-3.7c-0.3-1.1-1.1-2.1-2.1-2.6c-0.5-0.2-1.2-0.4-1.6-0.1 C170.4,44.5,170.4,45,170.6,45.3z"></path> </g> <g> <defs> <path id="SVGID_51_" d="M170.2,34.8c-1.4,0.1-2.8,0.7-3.8,1.7s-1.8,2.2-2.2,3.6c-0.9,2.7-0.7,5.6-0.5,8.5 c0.2,2.6,0.4,5.2,1.3,7.6c0.5,1.2,1.2,2.3,2.1,3.2c0.9,0.9,2,1.6,3.3,1.9c1.2,0.3,2.4,0.2,3.6-0.1c1.2-0.4,2.2-1,3.1-1.9 c1.3-1.2,2.1-2.8,2.6-4.5c0.5-1.7,0.6-3.5,0.6-5.2c0-2.2-0.3-4.4-1-6.5c-0.7-2.1-1.8-4.1-3.3-5.7c-0.7-0.8-1.6-1.4-2.6-1.9 C172.3,35,171.3,34.8,170.2,34.8"></path> </defs> <clipPath id="SVGID_12_"> <use xlink:href="#SVGID_51_" style="overflow:visible;"></use> </clipPath> <radialGradient id="path29551-9_1_" cx="1400.6229" cy="-1626.1671" r="28.331" gradientTransform="matrix(0.2014 -3.316079e-02 -3.065006e-02 -0.1862 -161.3392 -216.3842)" gradientUnits="userSpaceOnUse"> <stop offset="0" style="stop-color:#C8C8C8"></stop> <stop offset="1" style="stop-color:#7A7A79"></stop> </radialGradient> <path id="path29551-9" class="st29" d="M167.1,40.6c2.1-1.3,4.8-1.6,7.2-1.3s4.9,1,7.3,1.6c1.8,0.5,3.6,0.9,5.2,1.7 c1.7,0.8,3.2,1.9,4.1,3.5c0.1,0.3,0.3,0.5,0.4,0.8c0.2,0.2,0.3,0.5,0.6,0.7c0.2,0.2,0.5,0.3,0.8,0.3c0.1,0,0.3,0,0.4-0.1 c0.1-0.1,0.2-0.2,0.3-0.3c0.1-0.1,0.1-0.3,0.1-0.5c0-0.2,0-0.3-0.1-0.5c-0.6-2.2-2-4.1-3.1-6.1c-0.6-1.2-1.2-2.5-1.8-3.7 c-2.2-4.1-5.9-7.4-10.1-9.5c-4.2-2.1-8.9-3.1-13.6-3.4c-5.4-0.3-10.9,0.3-16.2,1.3c-2.3,0.4-4.7,0.9-6.7,2 c-1,0.6-2,1.3-2.7,2.2c-0.7,0.9-1.3,2-1.4,3.2c-0.2,1.1,0,2.3,0.4,3.3c0.4,1.1,1,2,1.7,2.9c1.4,1.8,3.3,3.1,5,4.7 c1.7,1.5,3.3,3.2,5.2,4.4c0.9,0.6,2,1.1,3.1,1.4c1.1,0.3,2.3,0.4,3.4,0.2c1.2-0.2,2.2-0.8,3.2-1.5s1.7-1.6,2.5-2.5 C163.7,43.7,165.1,41.8,167.1,40.6"></path> </g> <linearGradient id="path28795-9-2-2_1_" gradientUnits="userSpaceOnUse" x1="302.3383" y1="154.5178" x2="313.0284" y2="144.2224" gradientTransform="matrix(1 0 0 -1 -132.0002 183.0378)"> <stop offset="0" style="stop-color:#656565;stop-opacity:0"></stop> <stop offset="0.3063" style="stop-color:#656565;stop-opacity:0.5825"></stop> <stop offset="0.47" style="stop-color:#656565"></stop> <stop offset="0.7283" style="stop-color:#656565;stop-opacity:0.2573"></stop> <stop offset="1" style="stop-color:#656565;stop-opacity:0"></stop> </linearGradient> <path id="path28795-9-2-2" class="st30" d="M176,33.3c2,1.9,3.5,4.2,4.5,6.6c-0.4-2.7-1.1-4.9-2.9-6.6c-1.1-1-2.3-1.9-3.7-2.5 c-1.2-0.5-2.6-0.9-3.3-0.9c-0.8,0-1,0-1.1,0c-0.2,0-0.3,0,0.2,0.1c0.5,0.1,1.6,0.4,2.8,0.9C173.7,31.4,175,32.2,176,33.3z"></path> </g> <g id="g652"> <radialGradient id="path28795-3_1_" cx="225.5112" cy="195.9813" r="11.6257" gradientTransform="matrix(1.0858 -3.431182e-02 -3.943781e-02 -1.248 -35.8195 299.3177)" gradientUnits="userSpaceOnUse"> <stop offset="0" style="stop-color:#FFFFFD"></stop> <stop offset="0.7573" style="stop-color:#FFFFFD"></stop> <stop offset="1" style="stop-color:#D4D4D4"></stop> </radialGradient> <path id="path28795-3" class="st31" d="M195.3,34.8c-2.2,1.5-4.1,3.6-5,6.2c-1.1,3.2-0.7,6.8,0.4,10c1.1,3.3,3,6.4,5.9,8.4 c1.4,1,3.1,1.7,4.8,1.9c1.7,0.2,3.5-0.1,5.1-0.9c1.9-1,3.3-2.7,4.2-4.6c0.9-1.9,1.3-4,1.4-6.2c0.2-2.7-0.1-5.4-1-8 c-1-2.8-2.7-5.3-5.2-6.9c-1.2-0.8-2.6-1.3-4.1-1.5c-1.5-0.2-3-0.1-4.3,0.5C196.8,33.9,196,34.4,195.3,34.8"></path> <g id="g613"> <path id="path28879-6" class="st0" d="M200.5,41.5c-0.8,0.1-1.6,0.3-2.4,0.8c-0.7,0.4-1.3,1-1.8,1.7c-0.9,1.4-1.4,3.1-1.4,4.7 c-0.1,1.3,0.1,2.5,0.5,3.7c0.4,1.2,1.1,2.3,2.1,3.1c1,0.8,2.2,1.3,3.5,1.4c1.3,0.1,2.6-0.3,3.6-1c0.8-0.6,1.5-1.4,2-2.3 c0.5-0.9,0.8-1.9,0.9-2.9c0.2-1.8,0-3.7-0.9-5.3c-0.8-1.6-2.2-2.9-3.9-3.6C202,41.6,201.2,41.5,200.5,41.5"></path> <path id="path28891-5" class="st32" d="M202.4,47c-0.7,0.3-1.8,0.1-2.1,0.8c-0.2,0.4,0.1,1.1,0.5,1.2c0.8,0.3,2.1-0.3,2.4-1.1 c0.1-0.4-0.1-0.9-0.4-1.1C202.7,46.8,202.6,47,202.4,47z"></path> <linearGradient id="path28887-6_1_" gradientUnits="userSpaceOnUse" x1="253.1431" y1="139.8972" x2="258.5024" y2="133.5508" gradientTransform="matrix(1 0 0 -1 -52.0001 183.0378)"> <stop offset="0" style="stop-color:#959494;stop-opacity:0.3922"></stop> <stop offset="0.5" style="stop-color:#959494"></stop> <stop offset="1" style="stop-color:#959494;stop-opacity:0.3922"></stop> </linearGradient> <path id="path28887-6" class="st33" d="M205.6,48.8c0.9-0.9-0.7-3.4-1.9-4.4c-0.9-0.7-3.5-1.5-3.4-0.7c0.1,0.8,1.3,1.8,2.1,2.6 C203.4,47.3,205.2,49.2,205.6,48.8z"></path> </g> <g> <defs> <path id="SVGID_53_" d="M195.3,34.8c-2.2,1.5-4.1,3.6-5,6.2c-1.1,3.2-0.7,6.8,0.4,10c1.1,3.3,3,6.4,5.9,8.4 c1.4,1,3.1,1.7,4.8,1.9c1.7,0.2,3.5-0.1,5.1-0.9c1.9-1,3.3-2.7,4.2-4.6c0.9-1.9,1.3-4,1.4-6.2c0.2-2.7-0.1-5.4-1-8 c-1-2.8-2.7-5.3-5.2-6.9c-1.2-0.8-2.6-1.3-4.1-1.5c-1.5-0.2-3-0.1-4.3,0.5C196.8,33.9,196,34.4,195.3,34.8"></path> </defs> <clipPath id="SVGID_13_"> <use xlink:href="#SVGID_53_" style="overflow:visible;"></use> </clipPath> <linearGradient id="path28972-5_1_" gradientUnits="userSpaceOnUse" x1="379.5149" y1="151.7617" x2="396.5678" y2="141.7892" gradientTransform="matrix(1 0 0 -1 -182.0002 183.0378)"> <stop offset="0" style="stop-color:#757575"></stop> <stop offset="0.125" style="stop-color:#8C8C8C"></stop> <stop offset="0.25" style="stop-color:#A4A4A5"></stop> <stop offset="0.5" style="stop-color:#D4D4D4"></stop> <stop offset="0.6192" style="stop-color:#D4D4D4"></stop> <stop offset="1" style="stop-color:#7D7D7D"></stop> </linearGradient> <path id="path28972-5" class="st34" d="M187,42.9c1.9-1.6,4.1-2.8,6.5-3.5c4.9-1.5,10.4-0.9,14.7,1.8c1.5,0.9,2.8,2.1,4.2,3.2 c1.4,1.1,2.8,2.1,4.5,2.7c0.9,0.3,1.8,0.5,2.8,0.4c0.9-0.1,1.7-0.4,2.4-0.9c0.7-0.5,1.3-1.1,1.7-1.9c0.9-1.5,1.2-3.2,1-4.9 c-0.3-3.4-2.2-6.4-3.8-9.4c-0.5-0.9-1-1.9-1.6-2.8c-1.9-2.7-4.8-4.5-8-5.5c-3.1-1-6.4-1.4-9.7-1.8c-1.5-0.2-2.9-0.4-4.4-0.2 c-1.7,0.2-3.3,0.9-4.9,1.3c-0.8,0.2-1.6,0.3-2.3,0.6c-0.8,0.2-1.5,0.5-2.2,1c-0.9,0.7-1.5,1.8-1.7,3c-0.2,1.1-0.2,2.3,0,3.5 c0.4,2.3,1.2,4.6,1.1,6.9c-0.1,1.6-0.6,3.2-0.5,4.8c0,0.5,0.1,0.9,0.2,1.4"></path> </g> <linearGradient id="path28795-92-2_1_" gradientUnits="userSpaceOnUse" x1="334.8764" y1="154.9981" x2="346.2295" y2="144.2797" gradientTransform="matrix(1 0 0 -1 -132.0002 183.0378)"> <stop offset="0" style="stop-color:#656565;stop-opacity:0"></stop> <stop offset="0.3063" style="stop-color:#656565;stop-opacity:0.5825"></stop> <stop offset="0.47" style="stop-color:#656565"></stop> <stop offset="0.7283" style="stop-color:#656565;stop-opacity:0.2573"></stop> <stop offset="1" style="stop-color:#656565;stop-opacity:0"></stop> </linearGradient> <path id="path28795-92-2" class="st35" d="M203,28.3c-0.4,0.5-0.7,1-1,1.6c1.7,0.4,3.4,1.1,4.8,2c2.8,1.9,5,4.6,6.5,7.7 c0.4-0.4,0.7-0.8,0.9-1.3c-1.5-3.2-3.7-6.1-6.6-8C206.3,29.4,204.7,28.7,203,28.3z"></path> </g> </g> <g id="g735"> <radialGradient id="path28849-2_1_" cx="64.9267" cy="-150.5005" r="12.2719" gradientTransform="matrix(0.6978 -0.5072 -0.4603 -0.6334 67.8114 -7.3358)" gradientUnits="userSpaceOnUse"> <stop offset="0" style="stop-color:#050507"></stop> <stop offset="0.7345" style="stop-color:#050507"></stop> <stop offset="1" style="stop-color:#5D5D5D"></stop> </radialGradient> <path id="path28849-2" class="st36" d="M176.9,53.6c1.4-1.6,2.4-3.5,3.7-5.2c0.7-0.8,1.5-1.6,2.4-2.1c0.9-0.5,2-0.8,3-0.7 c1.2,0.1,2.3,0.7,3.1,1.5c0.9,0.8,1.5,1.8,2,2.9c0.5,1,0.9,2.1,1.6,3c0.8,0.9,1.8,1.6,2.8,2.3c0.5,0.4,0.9,0.8,1.3,1.2 s0.7,1,0.8,1.6c0.1,0.6,0.1,1.2-0.1,1.8c-0.2,0.6-0.6,1.1-1,1.5c-0.9,0.8-2.1,1.3-3.3,1.5c-2.4,0.3-4.9-0.4-7.3-0.3 c-2.5,0.1-4.9,0.9-7.4,0.9c-1.2,0-2.5-0.3-3.5-1.1c-0.5-0.4-1-0.8-1.3-1.3s-0.5-1.1-0.5-1.8c0-0.6,0.1-1.2,0.4-1.7 c0.2-0.5,0.6-1,0.9-1.5C175.2,55.2,176.1,54.5,176.9,53.6"></path> <g id="g712"> <radialGradient id="path28461-2_1_" cx="177.8562" cy="-204.1877" r="24.8207" gradientTransform="matrix(0.9362 -0.3864 -0.2713 -0.6574 -28.2746 -0.7371)" gradientUnits="userSpaceOnUse"> <stop offset="0" style="stop-color:#D1952A"></stop> <stop offset="0.7514" style="stop-color:#D69D28"></stop> <stop offset="0.8658" style="stop-color:#B5802B"></stop> <stop offset="1" style="stop-color:#946327"></stop> </radialGradient> <path id="path28461-2" class="st37" d="M163.4,68.9c0,0.2,0.1,0.5,0.3,0.7c0.2,0.4,0.5,0.6,0.9,0.9c0.3,0.2,0.7,0.4,1,0.7 c1.9,1.2,3.4,2.8,4.7,4.6c1.8,2.3,3.4,4.9,5.8,6.6c1.7,1.2,3.7,1.9,5.8,2.1c2.4,0.2,4.9-0.1,7.2-0.8c2.2-0.6,4.3-1.5,6.2-2.7 c3.7-2.3,6.7-5.6,10.8-7.1c0.9-0.3,1.8-0.6,2.7-1c0.9-0.4,1.7-1,2.1-1.8c0.4-0.8,0.4-1.8,0.5-2.7c0.1-1,0.4-1.9,0.6-2.8 c0.2-1,0.2-2-0.2-2.8c-0.3-0.7-1-1.3-1.7-1.7c-0.7-0.4-1.5-0.5-2.3-0.6c-1.6-0.1-3.2,0.3-4.8,0.5c-2.1,0.2-4.2-0.1-6.4,0 c-2.6,0.1-5.2,0.7-7.9,0.8c-3,0.1-6-0.3-9-0.4c-1.3-0.1-2.6,0-3.9,0.2c-1.3,0.2-2.5,0.7-3.6,1.4c-1,0.7-1.9,1.7-2.8,2.5 c-0.5,0.4-1,0.8-1.6,1.1c-0.6,0.3-1.2,0.4-1.8,0.4c-0.3,0-0.7-0.1-1,0c-0.2,0.1-0.4,0.2-0.5,0.3c-0.1,0.1-0.3,0.3-0.4,0.5 C163.9,68,163.6,68.5,163.4,68.9"></path> <path id="path28487-2" class="st38" d="M175.2,72.1c-0.3,1.3-0.1,2.7,0.5,3.8c0.6,1.1,1.7,2,3,2.5c1.6,0.5,3.4,0.3,4.8-0.5 c0.9-0.4,1.6-1.1,2.1-1.9c0.2-0.4,0.4-0.9,0.5-1.4c0.1-0.5,0-1-0.1-1.4c-0.2-0.5-0.5-0.9-0.9-1.3c-0.4-0.3-0.9-0.6-1.4-0.8 c-1-0.3-2.1-0.3-3.1-0.3c-1.6,0.1-3.2,0.3-4.8,0.6"></path> <path id="path27476-7-8" class="st39" d="M170.1,62.2c-1.1,0.6-2.1,1.3-3.1,2c-0.5,0.4-1.1,0.8-1.3,1.4 c-0.2,0.4-0.2,0.9-0.2,1.3c0,0.5,0,0.9,0,1.4c0,0.3-0.1,0.6-0.1,0.9c0,0.2,0,0.3,0,0.5c0,0.1,0.1,0.3,0.2,0.4 c0.1,0.1,0.3,0.2,0.5,0.3s0.4,0.1,0.6,0.1c0.9,0.2,1.8,0.8,2.5,1.4c0.7,0.6,1.4,1.4,2.1,2c2,1.6,4.7,2.3,7.3,2.4 c2.6,0,5.2-0.5,7.7-1.1c2-0.5,4-0.9,5.9-1.6c3-1.1,5.7-2.7,8.1-4.8c1.1-0.9,2.1-2,3.3-2.7c1.1-0.7,2.3-1.1,3.4-1.8 c0.1-0.1,0.2-0.1,0.3-0.2c0.1-0.1,0.2-0.2,0.2-0.3c0.1-0.2,0.1-0.4,0-0.6c-0.1-0.2-0.2-0.4-0.3-0.5c-0.1-0.2-0.3-0.3-0.5-0.5 c-1.1-1-2.7-1.3-4.2-1.4c-1.5-0.1-3,0-4.5-0.3c-1.4-0.2-2.7-0.7-4-1.2c-1.4-0.5-2.8-0.8-4.3-1c-3.4-0.6-7-0.5-10.4,0.3 C176,59.3,172.9,60.5,170.1,62.2"></path> <linearGradient id="path27476-4_1_" gradientUnits="userSpaceOnUse" x1="306.3097" y1="119.7664" x2="351.3695" y2="120.119" gradientTransform="matrix(1 0 0 -1 -142.0002 183.0378)"> <stop offset="0" style="stop-color:#AC7A2B"></stop> <stop offset="0.1197" style="stop-color:#D7A029"></stop> <stop offset="0.2551" style="stop-color:#ECB91E"></stop> <stop offset="0.3919" style="stop-color:#EAC81C"></stop> <stop offset="0.5274" style="stop-color:#F5D839"></stop> <stop offset="0.7691" style="stop-color:#F6D812"></stop> <stop offset="1" style="stop-color:#F5CD33"></stop> </linearGradient> <path id="path27476-4" class="st40" d="M169.7,58.6c-1.5,1-2.9,2.3-4.1,3.7c-0.7,0.8-1.3,1.7-1.6,2.7c-0.3,0.8-0.4,1.6-0.5,2.4 c-0.1,0.3-0.1,0.6-0.1,0.9c0,0.2,0,0.3,0.1,0.5c0,0.1,0.1,0.3,0.2,0.4c0.2,0.2,0.4,0.3,0.7,0.3c0.3,0.1,0.5,0.1,0.8,0.1 c1.2,0.1,2.2,0.7,3.2,1.4c1,0.7,1.8,1.4,2.8,2.1c2.2,1.4,4.8,2,7.4,2.1s5.2-0.3,7.7-0.8c2-0.4,4-0.9,5.9-1.6 c2.9-1.2,5.6-2.9,8.1-4.8c1.1-0.9,2.3-1.7,3.3-2.7c0.3-0.3,0.7-0.7,1.1-1c0.4-0.3,0.8-0.6,1.2-0.7c0.7-0.2,1.5-0.2,2.2,0 c0.5,0.1,1.1,0.2,1.7,0.2c0.3,0,0.6-0.1,0.8-0.2c0.3-0.1,0.5-0.3,0.7-0.5c0.2-0.3,0.4-0.6,0.4-1c0-0.4-0.1-0.7-0.3-1 c-0.4-0.6-1-1.1-1.7-1.4c-0.9-0.4-1.9-0.6-2.9-0.8c-3-0.7-5.9-1.8-8.6-3.2c-1.4-0.7-2.7-1.4-4-2.2c-1.4-0.7-2.8-1.5-4.3-1.9 c-3.4-1-7-0.7-10.4,0.5C175.6,53.4,172.3,55.6,169.7,58.6L169.7,58.6"></path> <path id="path28357-7" class="st41" d="M193.3,59.3c-0.2-0.2-0.4-0.4-0.7-0.5s-0.6-0.1-0.9,0c-0.6,0.1-1.1,0.4-1.6,0.7 c-1.4,0.9-2.6,2.1-3.6,3.4c-1.4,1.7-2.5,3.6-2.9,5.8c-0.1,0.4-0.1,0.7-0.1,1.1s0.2,0.7,0.4,1c0.2,0.2,0.5,0.4,0.9,0.4 c0.3,0,0.7,0,1-0.1c0.6-0.2,1.1-0.6,1.6-1.1c2.7-2.4,5.1-5.2,6-8.7c0.1-0.3,0.2-0.7,0.2-1.1C193.7,60,193.6,59.6,193.3,59.3"></path> <g id="g681"> <radialGradient id="path28396-7_1_" cx="120.8963" cy="-116.3847" r="2.577" gradientTransform="matrix(1 0 0 -0.5833 67.9998 -13.2169)" gradientUnits="userSpaceOnUse"> <stop offset="0" style="stop-color:#392B14"></stop> <stop offset="0.5547" style="stop-color:#735421"></stop> <stop offset="1" style="stop-color:#AB8D30"></stop> </radialGradient> <path id="path28396-7" class="st42" d="M187,54.4c0.2,0.6,1.1,0.5,1.7,0.8c0.5,0.2,0.9,0.8,1.4,0.8c0.5,0,1.3-0.2,1.4-0.7 c0.1-0.7-0.9-1.1-1.5-1.4c-0.8-0.3-1.9-0.5-2.6-0.1C187.1,54,186.9,54.2,187,54.4L187,54.4z"></path> <radialGradient id="path28398-7_1_" cx="109.291" cy="152.1337" r="1.2246" gradientTransform="matrix(1 0 0 -1.0751 67.9998 218.3972)" gradientUnits="userSpaceOnUse"> <stop offset="0" style="stop-color:#392B14"></stop> <stop offset="0.5547" style="stop-color:#735421"></stop> <stop offset="1" style="stop-color:#AB8D30"></stop> </radialGradient> <path id="path28398-7" class="st43" d="M177.9,54.1c-0.7-0.2-1.9,1-1.5,1.7c0.1,0.2,0.4,0.4,0.6,0.3c0.3-0.2,0.6-0.8,0.9-1.1 C178.2,54.8,178.1,54.2,177.9,54.1z"></path> </g> <g> <defs> <path id="SVGID_55_" d="M185.7,51c-2.2,0-4.4,0.4-6.5,1.1c-3.7,1.3-7,3.6-9.5,6.5c-1.5,1-2.9,2.3-4.1,3.7 c-0.7,0.8-1.3,1.7-1.6,2.7c-0.3,0.8-0.4,1.6-0.5,2.4c-0.1,0.3-0.1,0.6-0.1,0.9c0,0.2,0,0.3,0.1,0.5c0,0,0,0.1,0.1,0.1 c0.1,0.2,0.1,0.4,0.2,0.5c0.2,0.4,0.5,0.6,0.9,0.9c0.3,0.2,0.7,0.4,1,0.7c1.9,1.2,3.4,2.8,4.7,4.6c1.8,2.3,3.4,4.9,5.8,6.6 c1.7,1.2,3.7,1.9,5.8,2.1c2.4,0.2,4.9-0.1,7.2-0.8c2.2-0.6,4.3-1.5,6.2-2.7c3.7-2.3,6.7-5.6,10.8-7.1c0.9-0.3,1.8-0.6,2.7-1 c0.9-0.4,1.7-1,2.1-1.8c0.4-0.8,0.4-1.8,0.5-2.7c0.1-1,0.4-1.9,0.6-2.8c0.2-1,0.2-2-0.2-2.8c-0.1-0.2-0.2-0.4-0.3-0.5 c0-0.4-0.1-0.7-0.3-1c-0.4-0.6-1-1.1-1.7-1.4c-0.9-0.4-1.9-0.6-2.9-0.8c-3-0.7-5.9-1.8-8.6-3.2c-1.4-0.7-2.7-1.4-4-2.2 c-1.4-0.7-2.8-1.5-4.3-1.9C188.4,51.2,187.1,51,185.7,51L185.7,51z"></path> </defs> <clipPath id="SVGID_14_"> <use xlink:href="#SVGID_55_" style="overflow:visible;"></use> </clipPath> <linearGradient id="path28570-8_1_" gradientUnits="userSpaceOnUse" x1="285.8962" y1="236.7789" x2="286.2453" y2="234.5849" gradientTransform="matrix(1.0956 0 0.1702 -1.5181 -144.1268 421.3328)"> <stop offset="0" style="stop-color:#F6CE2E"></stop> <stop offset="1" style="stop-color:#D59B29"></stop> </linearGradient> <path id="path28570-8" class="st44" d="M211.7,63.4c-0.2,1.6-1.3,2.8-2.6,2.8c0,0,0,0,0,0c-1.3,0-2.1-1.3-2-2.8 c0.2-1.6,1.3-2.8,2.6-2.8S211.9,61.9,211.7,63.4C211.7,63.4,211.7,63.4,211.7,63.4z"></path> </g> </g> </g> </g> </g> </svg> 