<?xml version="1.0" encoding="UTF-8" standalone="no"?>
<!-- Generator: Adobe Illustrator 25.0.0, SVG Export Plug-In . SVG Version: 6.00 Build 0) -->

<svg
   version="1.1"
   id="Layer_1"
   x="0px"
   y="0px"
   viewBox="0 0 200 240"
   xml:space="preserve"
   sodipodi:docname="Linux.svg"
   width="200"
   height="240"
   inkscape:version="1.1.2 (0a00cf5339, 2022-02-04)"
   xmlns:inkscape="http://www.inkscape.org/namespaces/inkscape"
   xmlns:sodipodi="http://sodipodi.sourceforge.net/DTD/sodipodi-0.dtd"
   xmlns:xlink="http://www.w3.org/1999/xlink"
   xmlns="http://www.w3.org/2000/svg"
   xmlns:svg="http://www.w3.org/2000/svg"><defs
   id="defs372" /><sodipodi:namedview
   id="namedview370"
   pagecolor="#ffffff"
   bordercolor="#666666"
   borderopacity="1.0"
   inkscape:pageshadow="2"
   inkscape:pageopacity="0.0"
   inkscape:pagecheckerboard="0"
   showgrid="false"
   inkscape:zoom="2.3069359"
   inkscape:cx="134.59412"
   inkscape:cy="125.92461"
   inkscape:window-width="1920"
   inkscape:window-height="1016"
   inkscape:window-x="0"
   inkscape:window-y="0"
   inkscape:window-maximized="1"
   inkscape:current-layer="layer2" /> <style
   type="text/css"
   id="style2"> .st0{fill:#050507;} .st1{fill:#FDFEFC;} .st2{opacity:0.25;fill:url(#path4400-1_1_);enable-background:new ;} .st3{opacity:0.42;fill:url(#path4400-2-8_1_);enable-background:new ;} .st4{opacity:0.2;fill:url(#path4491-9_1_);enable-background:new ;} .st5{opacity:0.11;fill:#010101;enable-background:new ;} .st6{opacity:0.25;fill:#7D7D7D;enable-background:new ;} .st7{opacity:0.75;fill:#7D7D7D;enable-background:new ;} .st8{fill:#7D7D7D;} .st9{fill:#838385;} .st10{clip-path:url(#SVGID_1_);fill:#010101;fill-opacity:0.2588;} .st11{opacity:0.3;clip-path:url(#SVGID_2_);fill:#010101;enable-background:new ;} .st12{clip-path:url(#SVGID_3_);fill:#838385;} .st13{opacity:0.95;clip-path:url(#SVGID_4_);fill:#7D7D7D;enable-background:new ;} .st14{opacity:0.2;fill:url(#path14483-7-4_1_);enable-background:new ;} .st15{fill:url(#path14296-0_1_);} .st16{clip-path:url(#SVGID_5_);fill:#CC8A2A;} .st17{clip-path:url(#SVGID_6_);fill:#F4C021;} .st18{clip-path:url(#SVGID_7_);fill:url(#path16493_1_);} .st19{fill:url(#path4635-1_1_);} .st20{clip-path:url(#SVGID_8_);fill:#D79A28;} .st21{clip-path:url(#SVGID_9_);fill:#F4BD18;} .st22{fill:url(#path4792-8_1_);} .st23{opacity:0.35;fill:url(#path29714-8-2_1_);enable-background:new ;} .st24{opacity:0.35;fill:url(#path29714-8-3-0_1_);enable-background:new ;} .st25{clip-path:url(#SVGID_10_);fill:url(#path29714-3-9-9_1_);} .st26{clip-path:url(#SVGID_11_);fill:url(#path29714-3-9-3-8_1_);} .st27{fill:url(#path28795-9-5_1_);} .st28{fill:url(#path29465-8_1_);} .st29{clip-path:url(#SVGID_12_);fill:url(#path29551-9_1_);} .st30{fill:url(#path28795-9-2-2_1_);} .st31{fill:url(#path28795-3_1_);} .st32{fill:#161615;} .st33{fill:url(#path28887-6_1_);} .st34{clip-path:url(#SVGID_13_);fill:url(#path28972-5_1_);} .st35{fill:url(#path28795-92-2_1_);} .st36{fill:url(#path28849-2_1_);} .st37{fill:url(#path28461-2_1_);} .st38{fill:#D9B428;} .st39{fill:#5F461B;} .st40{fill:url(#path27476-4_1_);} .st41{fill:#F6DA4A;} .st42{opacity:0.8;fill:url(#path28396-7_1_);enable-background:new ;} .st43{opacity:0.8;fill:url(#path28398-7_1_);enable-background:new ;} .st44{clip-path:url(#SVGID_14_);fill:url(#path28570-8_1_);} </style> <g
   id="layer2"
   transform="translate(8,4.6)">        <g
   id="g1432"
   transform="translate(-99.907398,-2.5473042)"><g
     id="g463"> <path
   id="path28712-2"
   class="st0"
   d="m 191.4,-0.6 c -5.7,-0.1 -11.5,1.1 -16.5,3.8 -5.4,2.9 -9.7,7.5 -12.4,12.9 -2.7,5.4 -3.8,11.3 -3.9,17.7 -0.3,12.2 0.3,24.9 1.2,36.5 0.2,3.5 0.7,5.6 0.2,9.2 -1.5,7.7 -8.2,12.9 -11.8,19.6 -4,7.4 -5.6,15.9 -8.6,23.7 -2.7,7.2 -6.6,14 -9.2,21.2 -3.6,10.2 -4.7,21.3 -2.3,31.8 1.8,8 5.6,15.5 10.8,22 -0.7,1.3 -1.5,2.7 -2.2,4 -2.4,4.1 -5.3,8 -6.6,12.5 -0.7,2.3 -0.9,4.7 -0.5,7 0.4,2.3 1.6,4.6 3.5,6 1.2,1 2.7,1.6 4.2,1.9 1.5,0.4 3.1,0.4 4.6,0.4 5.9,-0.1 11.6,-1.9 17.3,-3.4 3.4,-0.9 6.8,-1.7 10.2,-2.4 12.2,-2.5 25.7,-1.5 37,0.1 3.8,0.6 7.6,1.3 11.4,2.2 5.9,1.4 11.8,3.2 17.8,3.4 1.6,0 3.2,0 4.8,-0.4 1.6,-0.3 3.1,-1 4.3,-2 1.9,-1.5 3,-3.7 3.5,-6.1 0.5,-2.4 0.2,-4.8 -0.5,-7 -1.4,-4.6 -4.3,-8.4 -6.7,-12.5 -1,-1.6 -1.9,-3.3 -2.8,-4.9 7.3,-8.2 13.2,-17.7 16.6,-28.1 3.7,-11.4 4.4,-23.7 2.8,-35.5 C 256,121.1 252.3,109.6 247.3,98.7 241.1,85 235.8,80.1 232.1,68.1 228,55.1 231.4,39.8 228.3,28 c -1.1,-4 -2.8,-7.8 -5,-11.3 -2.6,-4.1 -5.9,-7.8 -9.9,-10.6 -6.5,-4.3 -14.2,-6.6 -22,-6.7 z" /> <path
   id="path29719-5"
   class="st1"
   d="m 169,67.9 c -0.8,1 -1.4,2.3 -1.7,3.6 -0.3,1.3 -0.4,2.6 -0.5,4 -0.1,2.7 0.1,5.4 -0.6,8 -0.8,2.8 -2.5,5.2 -4.1,7.5 -2.9,4 -5.8,8.2 -7.2,12.9 -0.9,2.9 -1.1,5.9 -0.8,8.9 -3.2,4.7 -6,9.7 -8.3,15 -3.5,7.9 -5.9,16.4 -6.7,25 -1,10.6 0.3,21.4 4.5,31.2 3,7.1 7.5,13.5 13.3,18.5 2.9,2.6 6.2,4.7 9.7,6.5 12.1,6 27.1,6 39.1,-0.4 6.2,-3.3 11.5,-8.2 16.6,-13.1 3.1,-3 6.1,-6 8.4,-9.6 4.5,-6.9 6.1,-15.2 7,-23.3 1.7,-14.2 1.8,-29.3 -4.5,-42.2 -2.1,-4.4 -5,-8.5 -8.4,-12.1 -0.9,-6.2 -2.7,-12.3 -5.3,-18 -1.9,-4.1 -4.2,-8 -6,-12.2 -0.7,-1.7 -1.3,-3.5 -2.1,-5.1 -0.8,-1.7 -1.8,-3.3 -3.1,-4.6 -1.4,-1.3 -3.1,-2.2 -4.9,-2.8 -1.8,-0.6 -3.7,-0.9 -5.6,-1 -3.8,-0.2 -7.6,0.3 -11.4,0.2 -3,-0.1 -6,-0.7 -9.1,-0.5 -1.5,0.1 -3,0.4 -4.4,0.9 -1.7,0.6 -3,1.5 -3.9,2.7" /> </g><g
     id="g562"> <radialGradient
   id="path4400-1_1_"
   cx="-417.83249"
   cy="-32.3274"
   r="21.8526"
   gradientTransform="matrix(-0.8062,0,0,-0.7634,-188.2083,86.9184)"
   gradientUnits="userSpaceOnUse"> <stop
   offset="0"
   style="stop-color:#010101"
   id="stop7" /> <stop
   offset="1"
   style="stop-color:#010101;stop-opacity:0.2489"
   id="stop9" /> </radialGradient> <path
   id="path4400-1"
   class="st2"
   d="m 155.6,106 c 0.8,1.2 -0.5,5.4 18.4,2.7 0,0 -3.3,0.4 -6.6,1.1 -5.1,1.7 -9.5,3.6 -12.9,6.1 -3.4,2.5 -5.9,5.7 -9,8.5 0,0 5,-9.2 6.3,-12 1.3,-2.8 -0.2,-2.6 0.8,-6.7 1,-4.1 3.4,-8 3.4,-8 0,0 -2,5.9 -0.4,8.3 z"
   style="fill:url(#path4400-1_1_)" /> <radialGradient
   id="path4400-2-8_1_"
   cx="350.42068"
   cy="-44.955101"
   r="21.8526"
   gradientTransform="matrix(1,0,0,-0.7634,-142.0002,86.9184)"
   gradientUnits="userSpaceOnUse"> <stop
   offset="0"
   style="stop-color:#010101"
   id="stop13" /> <stop
   offset="1"
   style="stop-color:#010101;stop-opacity:0.2489"
   id="stop15" /> </radialGradient> <path
   id="path4400-2-8"
   class="st3"
   d="m 216.3,104.9 c -3.8,2.7 -6.1,2.4 -10.8,2.9 -4.7,0.5 -17.3,0.3 -17.3,0.3 0,0 1.8,0 5.9,0.7 4.1,0.8 12.3,1.5 17,3.3 4.7,1.8 6.4,2.3 9.2,4.1 4,2.5 7,6.5 10.8,9.3 0,0 0.2,-3.7 -1.4,-6.5 -1.6,-2.8 -5.7,-7.1 -7,-11.2 -1.2,-4.1 -1.8,-12.1 -1.8,-12.1 0,0 -0.7,6.6 -4.6,9.2 z"
   style="fill:url(#path4400-2-8_1_)" /> <radialGradient
   id="path4491-9_1_"
   cx="321.22839"
   cy="87.519096"
   r="8.6525002"
   gradientTransform="matrix(1,0,0,-1.0692,-142.0002,210.9924)"
   gradientUnits="userSpaceOnUse"> <stop
   offset="0"
   style="stop-color:#010101"
   id="stop19" /> <stop
   offset="1"
   style="stop-color:#010101;stop-opacity:0.2489"
   id="stop21" /> </radialGradient> <path
   id="path4491-9"
   class="st4"
   d="m 180.1,99.2 c -0.1,1.2 -0.3,2.3 -0.6,3.5 -0.1,0.6 -0.2,1.1 -0.4,1.7 -0.2,0.6 -0.5,1 -0.9,1.4 -0.4,0.3 -0.8,0.6 -1.3,0.8 -1.8,0.8 -3.7,1.4 -5.7,1.6 0.8,0.1 1.6,0.1 2.3,0.2 0.5,0.1 1,0.1 1.5,0.2 0.5,0.1 0.9,0.3 1.3,0.6 0.4,0.3 0.8,0.8 1,1.2 0.5,1 0.7,2 0.8,3.1 0.1,1.4 0.1,2.8 0,4.1 0.1,-0.9 0.3,-1.8 0.6,-2.7 0.5,-1.6 1.4,-3.1 2.5,-4.3 0.4,-0.5 0.9,-0.9 1.5,-1.3 1.7,-1.2 3.8,-1.7 5.8,-1.4 -2,0.1 -4.1,-0.6 -5.7,-1.8 -0.8,-0.6 -1.6,-1.4 -2.1,-2.3 -0.8,-1.3 -1,-3 -0.6,-4.6"
   style="fill:url(#path4491-9_1_)" /> <path
   id="path4542-7"
   class="st5"
   d="m 175.2,126.4 c -1,3.7 -1.7,7.5 -2,11.4 -0.5,5.4 -0.4,10.9 -0.7,16.4 -0.2,4.6 -0.8,9.3 0,13.9 0.4,2.2 1.1,4.3 2,6.3 0.2,-0.8 0.3,-1.5 0.3,-2.3 0.3,-3.7 -0.3,-7.4 -0.5,-11.1 -0.4,-6.5 0.5,-13 0.9,-19.5 0.4,-5.1 0.3,-10.1 0,-15.1 v 0" /> <path
   id="path28767-9-3"
   class="st6"
   d="m 157.7,89.6 c -0.1,-1.1 -1.7,-1.3 -2.5,-0.7 -0.6,0.5 -1.2,2.1 -0.7,2.8 0.9,1 3.3,-0.5 3.2,-2.1 z" /> <path
   id="path15189-4"
   class="st7"
   d="m 240.2,120.9 c 0.9,-0.1 6.8,4.8 6,6.7 -0.8,1.8 -2.3,0.7 -3.4,0.7 -1.1,0 -4,1.3 -4.5,0.5 -0.5,-0.8 1.3,-2.8 2.2,-4.5 0.8,-1.3 -1.2,-3.3 -0.3,-3.4 z" /> <path
   id="path28767-3"
   class="st8"
   d="m 204.5,9.7 c -2,1.4 -1.2,3.2 -0.3,5.1 0.9,1.9 -1.9,7 -2,7.2 0,0.2 5.5,-2.6 7.1,-4.5 1.8,-2.2 6.3,3 6.1,2.2 0,-1.4 -8.8,-11.4 -10.9,-10 z" /> <path
   id="path4596-3"
   class="st9"
   d="m 220,70.3 c -1.7,1.6 0.8,3.9 2,6.7 0.7,1.7 2.8,4.2 4.8,3.8 1.5,-0.3 2.4,-2.5 2.3,-4 -0.3,-2.9 -2.8,-3.6 -4.6,-4.6 -1.4,-0.8 -3.3,-3 -4.5,-1.9 z" /> <g
   id="g37"> <defs
   id="defs31"> <path
   id="SVGID_29_"
   d="m 169,67.9 c -0.8,1 -1.4,2.3 -1.7,3.6 -0.3,1.3 -0.4,2.6 -0.5,4 -0.1,2.7 0.1,5.4 -0.6,8 -0.8,2.8 -2.5,5.2 -4.1,7.5 -2.9,4 -5.8,8.2 -7.2,12.9 -0.9,2.9 -1.1,5.9 -0.8,8.9 -3.2,4.7 -6,9.7 -8.3,15 -3.5,7.9 -5.9,16.4 -6.7,25 -1,10.6 0.3,21.4 4.5,31.2 3,7.1 7.5,13.5 13.3,18.5 2.9,2.6 6.2,4.7 9.7,6.5 12.1,6 27.1,6 39.1,-0.4 6.2,-3.3 11.5,-8.2 16.6,-13.1 3.1,-3 6.1,-6 8.4,-9.6 4.5,-6.9 6.1,-15.2 7,-23.3 1.7,-14.2 1.8,-29.3 -4.5,-42.2 -2.1,-4.4 -5,-8.5 -8.4,-12.1 -0.9,-6.2 -2.7,-12.3 -5.3,-18 -1.9,-4.1 -4.2,-8 -6,-12.2 -0.7,-1.7 -1.3,-3.5 -2.1,-5.1 -0.8,-1.7 -1.8,-3.3 -3.1,-4.6 -1.4,-1.3 -3.1,-2.2 -4.9,-2.8 -1.8,-0.6 -3.7,-0.9 -5.6,-1 -3.8,-0.2 -7.6,0.3 -11.4,0.2 -3,-0.1 -6,-0.7 -9.1,-0.5 -1.5,0.1 -3,0.4 -4.4,0.9 -1.7,0.6 -3,1.5 -3.9,2.7" /> </defs> <clipPath
   id="SVGID_1_"> <use
   xlink:href="#SVGID_29_"
   style="overflow:visible"
   id="use33"
   x="0"
   y="0"
   width="100%"
   height="100%" /> </clipPath> <path
   id="path28461-8-7"
   class="st10"
   d="m 167.1,82.1 c 1.4,3.9 4.1,7.3 7.3,9.9 1.1,0.9 2.2,1.7 3.5,2.2 1.3,0.6 2.7,0.9 4,0.8 1.4,-0.1 2.6,-0.6 3.8,-1.3 1.2,-0.7 2.3,-1.5 3.4,-2.2 2,-1.2 4.1,-2.3 6.1,-3.4 2.5,-1.3 4.8,-2.9 6.9,-4.8 0.9,-0.9 1.8,-1.8 2.9,-2.6 1,-0.7 2.3,-1.3 3.6,-1.2 1,0.1 1.9,0.5 2.8,0.7 0.5,0.1 1,0.2 1.4,0.1 0.5,-0.1 0.9,-0.3 1.3,-0.6 0.4,-0.4 0.6,-1 0.6,-1.6 0,-0.6 -0.2,-1.2 -0.5,-1.7 -0.5,-1 -1.4,-1.9 -1.8,-3.1 -0.3,-1 -0.3,-2.1 -0.2,-3.1 0,-1 0,-2.1 -0.5,-3.1 -0.4,-0.7 -1,-1.3 -1.7,-1.6 -0.7,-0.4 -1.5,-0.6 -2.3,-0.6 -1.6,-0.1 -3.2,0.2 -4.8,0.3 -2.1,0.1 -4.2,-0.1 -6.4,0 -2.6,0.2 -5.2,0.9 -7.9,0.9 -3,0 -6,-1 -9,-0.5 -1.3,0.2 -2.5,0.7 -3.7,1.1 -1.2,0.4 -2.5,0.8 -3.8,0.8 -1.5,0 -2.9,-0.5 -4.4,-0.6 -0.7,-0.1 -1.5,0 -2.2,0.3 -0.7,0.3 -1.3,0.7 -1.7,1.4 -0.2,0.4 -0.3,0.8 -0.3,1.2 0,0.4 0,0.8 0.1,1.3 0.2,0.8 0.6,1.6 0.9,2.4 1.4,2.6 1.6,5.7 2.6,8.6"
   clip-path="url(#SVGID_1_)" /> </g> <g
   id="g46"> <defs
   id="defs40"> <path
   id="SVGID_31_"
   d="m 169,67.9 c -0.8,1 -1.4,2.3 -1.7,3.6 -0.3,1.3 -0.4,2.6 -0.5,4 -0.1,2.7 0.1,5.4 -0.6,8 -0.8,2.8 -2.5,5.2 -4.1,7.5 -2.9,4 -5.8,8.2 -7.2,12.9 -0.9,2.9 -1.1,5.9 -0.8,8.9 -3.2,4.7 -6,9.8 -8.3,15 -3.5,7.9 -5.9,16.4 -6.7,25 -1,10.6 0.3,21.4 4.5,31.2 3,7.1 7.5,13.5 13.3,18.5 2.9,2.6 6.2,4.7 9.7,6.5 12.1,6 27.1,6 39.1,-0.4 6.2,-3.3 11.5,-8.2 16.6,-13.1 3.1,-3 6.1,-6 8.4,-9.6 4.5,-6.9 6.1,-15.2 7,-23.3 1.7,-14.2 1.8,-29.3 -4.5,-42.2 -2.1,-4.4 -5,-8.5 -8.4,-12.1 -0.9,-6.2 -2.7,-12.3 -5.3,-18 -1.9,-4.1 -4.2,-8 -6,-12.2 -0.7,-1.7 -1.3,-3.5 -2.1,-5.1 -0.8,-1.6 -1.8,-3.3 -3.1,-4.6 -1.4,-1.3 -3.1,-2.2 -4.9,-2.8 -1.8,-0.6 -3.7,-0.9 -5.6,-1 -3.8,-0.2 -7.6,0.3 -11.4,0.2 -3,-0.1 -6,-0.7 -9.1,-0.5 -1.5,0.1 -3,0.4 -4.4,0.9 -1.7,0.6 -3,1.5 -3.9,2.7" /> </defs> <clipPath
   id="SVGID_2_"> <use
   xlink:href="#SVGID_31_"
   style="overflow:visible"
   id="use42"
   x="0"
   y="0"
   width="100%"
   height="100%" /> </clipPath> <path
   id="path28461-84-3"
   class="st11"
   d="m 163.3,70.9 c 2.6,1.6 5,3.6 7,5.9 1.8,2.1 3.4,4.5 5.8,6.1 1.7,1.1 3.7,1.7 5.8,1.9 2.4,0.2 4.9,-0.1 7.2,-0.8 2.2,-0.6 4.3,-1.4 6.2,-2.5 3.7,-2.1 6.7,-5.1 10.8,-6.5 0.9,-0.3 1.8,-0.5 2.7,-0.9 0.9,-0.4 1.7,-0.9 2.1,-1.7 0.4,-0.8 0.4,-1.6 0.5,-2.4 0.1,-0.9 0.4,-1.7 0.6,-2.6 0.2,-0.9 0.2,-1.8 -0.2,-2.6 -0.3,-0.7 -1,-1.2 -1.7,-1.5 -0.7,-0.3 -1.5,-0.5 -2.3,-0.5 -1.6,-0.1 -3.2,0.3 -4.8,0.4 -2.1,0.2 -4.2,-0.1 -6.4,0 -2.6,0.1 -5.2,0.6 -7.9,0.7 -3,0.1 -6,-0.3 -9,-0.4 -1.3,0 -2.6,0 -3.9,0.2 -1.3,0.2 -2.5,0.6 -3.6,1.3 -1.1,0.6 -1.9,1.5 -2.9,2.3 -0.5,0.4 -1,0.7 -1.6,1 -0.6,0.3 -1.2,0.4 -1.8,0.5 -0.3,0 -0.7,0 -1,0 -0.5,0.1 -1,0.4 -1.4,0.8 -0.2,0.2 -0.3,0.8 -0.2,1.3 v 0"
   clip-path="url(#SVGID_2_)" /> </g> </g><g
     id="g481"> <path
   id="path29705-5-0"
   class="st0"
   d="m 242.7,117.1 c 4.9,3.9 7.9,9.8 8.9,16 0.7,4.8 0.3,9.7 -0.8,14.5 -1.1,4.8 -2.8,9.3 -4.4,13.9 -0.7,1.8 -1.3,3.7 -1.6,5.6 -0.3,1.9 -0.1,4 0.8,5.7 1.1,2 3,3.3 5.2,3.9 2.1,0.6 4.4,0.6 6.5,0.1 2.1,-0.5 5.7,-1.2 7.4,-2.6 4.4,-3.4 5.4,-9.3 6.5,-14.6 1.1,-5.4 0.6,-11.1 -0.4,-16.6 -1.3,-7.5 -3.5,-14.8 -6.3,-21.9 -2.1,-5.2 -4.7,-10.2 -7.8,-14.8 -3.1,-4.5 -7.4,-8.1 -10.6,-12.5 -1.1,-1.5 -2.5,-3.1 -3.6,-4.7 -2.4,-3.3 -1.8,-2.7 -3.3,-4.9 -1.1,-1.6 -2.7,-2.1 -4.5,-2.8 -1.8,-0.7 -3.8,-0.9 -5.6,-0.4 -2.4,0.7 -4.4,2.6 -5.4,4.9 -1,2.3 -1.2,4.9 -0.8,7.4 0.5,3.2 2,6.1 3.6,8.9 1.9,3.1 4,6.2 6.8,8.5 2.9,2.4 6.4,4 9.4,6.4" /> <path
   id="path14967-1-0"
   class="st0"
   d="m 151.2,92.8 c -5.6,6.4 -11.5,12.6 -14.6,19.6 -1.6,3.5 -2.3,7.3 -3.4,11 -1.2,4.2 -2.9,8.3 -4.8,12.2 -1.7,3.7 -3.6,7.2 -5.5,10.8 -1.4,2.6 -2.8,5.3 -3.3,8.2 -0.4,2.3 -0.2,4.7 0.4,6.9 0.6,2.3 1.5,4.4 2.6,6.5 4.5,8.8 11.3,16.5 19.3,22.3 3.6,2.6 7.6,4.9 11.6,6.8 2.2,1 4.6,1.9 7,2 1.2,0 2.5,-0.2 3.6,-0.7 1.1,-0.5 2.1,-1.3 2.8,-2.3 0.8,-1.3 1.1,-2.8 0.9,-4.3 -0.2,-1.5 -0.7,-2.9 -1.5,-4.2 -1.9,-3.1 -4.9,-5.4 -7.8,-7.6 -6.3,-4.8 -12.3,-10 -18.1,-15.3 -1.6,-1.5 -3.3,-3.1 -4.4,-5 -1.1,-1.9 -1.7,-4 -2.1,-6.1 -1.1,-5.9 -0.8,-12 1.2,-17.7 0.8,-2.2 1.8,-4.3 2.8,-6.4 1.7,-3.7 3.4,-7.4 5.6,-10.7 2.8,-4.2 6.6,-7.7 8.9,-12.2 1.9,-3.8 2.7,-8 3.5,-12.2 0.6,-3.3 1.7,-6.5 2.3,-9.8 -1.1,2 -4.7,5.4 -7,8.2 z" /> </g><g
     id="g514"> <g
   id="g59"> <defs
   id="defs53"> <path
   id="SVGID_33_"
   d="m 242.7,117.1 c 4.9,3.9 7.9,9.8 8.9,16 0.7,4.8 0.3,9.7 -0.8,14.5 -1.1,4.7 -2.8,9.3 -4.4,13.9 -0.7,1.8 -1.3,3.7 -1.6,5.6 -0.3,1.9 -0.1,4 0.8,5.7 1.1,2 3,3.3 5.2,3.9 2.1,0.6 4.4,0.6 6.5,0.1 2.1,-0.5 4.1,-1.6 5.8,-2.9 4.4,-3.4 7.1,-8.7 8.1,-14.2 1,-5.5 0.6,-11.1 -0.4,-16.6 -1.3,-7.5 -3.5,-14.8 -6.3,-21.9 -2.1,-5.2 -4.7,-10.2 -7.8,-14.8 -3.1,-4.5 -7.4,-8.1 -10.6,-12.5 -1.1,-1.5 -2.5,-3.1 -3.6,-4.7 -2.4,-3.3 -1.8,-2.7 -3.3,-4.9 -1.1,-1.6 -2.7,-2.1 -4.5,-2.8 -1.8,-0.7 -3.8,-0.9 -5.6,-0.4 -2.4,0.7 -4.4,2.6 -5.4,4.9 -1,2.3 -1.2,4.9 -0.8,7.4 0.5,3.2 2,6.1 3.6,8.9 1.9,3.1 4,6.2 6.8,8.5 2.9,2.3 6.4,3.9 9.4,6.3" /> </defs> <clipPath
   id="SVGID_3_"> <use
   xlink:href="#SVGID_33_"
   style="overflow:visible"
   id="use55"
   x="0"
   y="0"
   width="100%"
   height="100%" /> </clipPath> <path
   id="path29705-9"
   class="st12"
   d="m 231.3,109.6 c 0.4,0.4 0.8,0.8 1.2,1.1 3,2.4 4.6,5.2 7.6,7.6 4.9,3.9 10,10.6 10.9,16.8 0.8,4.8 -0.2,7.4 -1.5,13.1 -1.2,5.7 -4.7,13.7 -6.6,19.1 -0.7,2.2 1.5,1.3 1.2,3.6 -0.1,1.1 -0.2,2.3 0,3.4 0,-0.2 0,-0.4 0.1,-0.7 0.4,-3.1 1.3,-6.1 2.4,-9.1 2,-5.7 4.3,-11.2 5.9,-17.1 1.6,-5.9 1.4,-10 0.6,-15 -1,-6.3 -4.7,-12.1 -9.9,-16 -3.7,-2.7 -8,-4.5 -11.9,-6.8 z"
   clip-path="url(#SVGID_3_)" /> </g> <g
   id="g68"> <defs
   id="defs62"> <path
   id="SVGID_35_"
   d="m 151.2,92.8 c -5.6,6.4 -11.5,12.6 -14.6,19.6 -1.6,3.5 -2.3,7.3 -3.4,11 -1.2,4.2 -2.9,8.3 -4.8,12.2 -1.7,3.7 -3.6,7.2 -5.5,10.8 -1.4,2.6 -2.8,5.3 -3.3,8.2 -0.4,2.3 -0.2,4.7 0.4,6.9 0.6,2.2 1.5,4.4 2.6,6.5 4.5,8.8 11.3,16.5 19.3,22.3 3.6,2.6 7.6,4.9 11.6,6.8 2.2,1 4.6,1.9 7,2 1.2,0 2.5,-0.2 3.6,-0.7 1.1,-0.5 2.1,-1.3 2.8,-2.3 0.8,-1.3 1.1,-2.8 0.9,-4.3 -0.2,-1.5 -0.7,-2.9 -1.5,-4.2 -1.9,-3.1 -4.9,-5.4 -7.8,-7.6 -6.3,-4.8 -12.3,-10 -18.1,-15.3 -1.6,-1.5 -3.3,-3.1 -4.4,-5 -1.1,-1.9 -1.7,-4 -2.1,-6.1 -1.1,-5.9 -0.8,-12 1.2,-17.7 0.8,-2.2 1.8,-4.3 2.8,-6.4 1.7,-3.7 3.4,-7.4 5.6,-10.7 2.8,-4.2 6.6,-7.7 8.9,-12.2 1.9,-3.8 2.7,-8 3.5,-12.2 0.6,-3.3 1.7,-6.5 2.3,-9.8 -1.1,2 -4.7,5.4 -7,8.2 z" /> </defs> <clipPath
   id="SVGID_4_"> <use
   xlink:href="#SVGID_35_"
   style="overflow:visible"
   id="use64"
   x="0"
   y="0"
   width="100%"
   height="100%" /> </clipPath> <path
   id="path15007-0"
   class="st13"
   d="m 144.7,116.1 c -1.9,1.7 -3.5,3.7 -4.7,5.8 -2.1,3.6 -3.4,7.6 -4.9,11.4 -1.2,2.9 -2.5,5.7 -2.7,8.8 -0.1,1.6 0.2,3.2 0.2,4.7 0.1,1.6 -0.1,3.2 -0.9,4.6 -0.6,1.2 -1.7,2.1 -3,2.5 1.7,0.6 3.2,1.7 4.3,3.1 0.9,1.2 1.5,2.6 2.2,3.9 0.6,1 1.4,2 2.3,2.7 0.9,0.8 2.1,1.3 3.3,1.4 1.6,0.2 3.4,-0.3 4.6,-1.5 -1.5,-14.4 -0.1,-29.1 4.1,-42.9 0.3,-0.9 0.5,-1.8 0.6,-2.7 0.1,-0.9 -0.1,-1.9 -0.7,-2.6 -0.3,-0.4 -0.7,-0.7 -1.1,-0.9 -0.4,-0.2 -0.9,-0.3 -1.4,-0.2 -0.5,0.1 -1,0.2 -1.3,0.5 -0.3,0.6 -0.7,1 -0.9,1.4 v 0"
   clip-path="url(#SVGID_4_)" /> </g> </g><g
     id="g457"> <g
   id="g444"> <linearGradient
   id="path14483-7-4_1_"
   gradientUnits="userSpaceOnUse"
   x1="378.6452"
   y1="-10.4521"
   x2="381.59451"
   y2="-32.459999"
   gradientTransform="matrix(1.0269,0,0,-1,-144.3942,183.0378)"> <stop
   offset="0"
   style="stop-color:#010101"
   id="stop71" /> <stop
   offset="1"
   style="stop-color:#010101;stop-opacity:0"
   id="stop73" /> </linearGradient> <path
   id="path14483-7-4"
   class="st14"
   d="m 275.4,199 c -0.4,1.2 -0.9,2.4 -1.7,3.5 -1.6,2.4 -4,4.2 -6.3,5.9 -4,2.8 -8.2,5.5 -11.9,8.7 -2.5,2.2 -4.8,4.6 -6.9,7.2 -1.8,2.2 -3.5,4.5 -5.6,6.4 -2.1,2 -4.5,3.5 -7.2,4.4 -3.2,1.1 -6.6,1 -9.7,0.2 -2.2,-0.6 -4.3,-1.5 -5.6,-3.3 -1.3,-1.8 -1.8,-4.1 -1.9,-6.4 -0.3,-4.1 0.2,-8.3 0.7,-12.4 0.4,-3.5 0.7,-6.9 0.9,-10.3 0.3,-6.3 -0.2,-12.5 -1,-18.6 -0.1,-1 -0.3,-2 -0.2,-3.1 0.1,-1.1 0.4,-2.1 1.2,-3 0.7,-0.7 1.6,-1.2 2.6,-1.4 0.9,-0.2 1.9,-0.2 2.9,-0.3 2.2,-0.1 4.5,-0.2 6.7,0 1.4,0.1 2.8,0.4 4.2,0.5 2.3,0.2 4.7,0.1 7.1,-0.6 2.5,-0.7 4.9,-2.1 7.5,-2.5 1,-0.2 2.1,-0.1 3.1,0 1,0.1 2.1,0.4 2.9,1.1 0.6,0.5 1.1,1.1 1.4,1.8 0.5,1.1 0.8,2.2 1,3.4 0.2,1.1 0.2,2.1 0.5,3.2 0.4,1.7 1.5,3.1 2.7,4.3 1.2,1.2 2.6,2.1 4.1,3 1.4,0.9 2.8,1.8 4.4,2.5 0.7,0.3 1.4,0.7 2.1,1.1 0.7,0.4 1.3,0.9 1.8,1.5 0.1,0.9 0.3,2.1 0.2,3.2 v 0"
   style="fill:url(#path14483-7-4_1_)" /> <linearGradient
   id="path14296-0_1_"
   gradientUnits="userSpaceOnUse"
   x1="471.94739"
   y1="-49.168499"
   x2="510.3082"
   y2="13.0267"
   gradientTransform="matrix(1,0,0,-1,-242.0002,183.0378)"> <stop
   offset="0"
   style="stop-color:#3D2C13"
   id="stop77" /> <stop
   offset="1"
   style="stop-color:#AC7A2B"
   id="stop79" /> </linearGradient> <path
   id="path14296-0"
   class="st15"
   d="m 289,205.8 c -2.1,2.5 -5,4.1 -7.9,5.6 -4.9,2.5 -10.1,4.7 -14.7,7.8 -3.1,2 -6,4.4 -8.7,7 -2.3,2.2 -4.5,4.5 -7,6.4 -2.6,1.9 -5.6,3.2 -8.8,3.7 -3.9,0.6 -7.8,-0.2 -11.4,-1.7 -2.5,-1.1 -4.9,-2.7 -6.4,-5 -1.4,-2.3 -1.8,-5.2 -1.8,-7.9 0,-4.8 0.9,-9.6 1.7,-14.4 0.7,-4 1.4,-7.9 1.8,-11.9 0.8,-7.3 0.8,-14.6 0.3,-22 -0.1,-1.2 -0.2,-2.5 0,-3.7 0.2,-1.2 0.7,-2.4 1.6,-3.2 0.9,-0.7 2,-1.1 3.1,-1.1 1.1,-0.1 2.3,0.1 3.4,0.3 2.6,0.4 5.3,0.7 7.9,1.4 1.6,0.4 3.2,1 4.8,1.4 2.7,0.7 5.6,1.1 8.4,0.8 3,-0.4 5.9,-1.5 9,-1.4 1.2,0 2.5,0.3 3.7,0.6 1.2,0.4 2.4,0.9 3.3,1.8 0.7,0.7 1.1,1.6 1.5,2.4 0.5,1.3 0.8,2.8 0.9,4.2 0.1,1.3 0.1,2.5 0.3,3.8 0.4,2.1 1.5,3.9 2.8,5.5 1.3,1.6 2.9,3 4.5,4.3 1.6,1.3 3.2,2.7 4.9,3.9 0.8,0.6 1.6,1.1 2.4,1.7 0.8,0.6 1.5,1.3 2,2.2 0.7,1.2 0.8,2.6 0.4,3.9 -0.3,1.2 -1,2.4 -2,3.6 z"
   style="fill:url(#path14296-0_1_)" /> <g
   id="g90"> <defs
   id="defs84"> <path
   id="SVGID_37_"
   d="m 289,205.8 c -2.1,2.5 -5,4.1 -7.9,5.6 -4.9,2.5 -10.1,4.7 -14.7,7.8 -3.1,2 -6,4.4 -8.7,7 -2.3,2.2 -4.5,4.5 -7,6.4 -2.6,1.9 -5.6,3.2 -8.8,3.7 -3.9,0.6 -7.8,-0.2 -11.4,-1.7 -2.5,-1.1 -4.9,-2.7 -6.4,-5 -1.4,-2.3 -1.8,-5.2 -1.8,-7.9 0,-4.8 0.9,-9.6 1.7,-14.4 0.7,-4 1.4,-7.9 1.8,-11.9 0.8,-7.3 0.8,-14.6 0.3,-22 -0.1,-1.2 -0.2,-2.5 0,-3.7 0.2,-1.2 0.7,-2.4 1.6,-3.2 0.9,-0.7 2,-1.1 3.1,-1.1 1.1,-0.1 2.3,0.1 3.4,0.3 2.6,0.4 5.3,0.7 7.9,1.4 1.6,0.4 3.2,1 4.8,1.4 2.7,0.7 5.6,1.1 8.4,0.8 3,-0.4 5.9,-1.5 9,-1.4 1.2,0 2.5,0.3 3.7,0.6 1.2,0.4 2.4,0.9 3.3,1.8 0.7,0.7 1.1,1.6 1.5,2.4 0.5,1.3 0.8,2.8 0.9,4.2 0.1,1.3 0.1,2.5 0.3,3.8 0.4,2.1 1.5,3.9 2.8,5.5 1.3,1.6 2.9,3 4.5,4.3 1.6,1.3 3.2,2.7 4.9,3.9 0.8,0.6 1.6,1.1 2.4,1.7 0.8,0.6 1.5,1.3 2,2.2 0.7,1.2 0.8,2.6 0.4,3.9 -0.3,1.2 -1,2.4 -2,3.6 z" /> </defs> <clipPath
   id="SVGID_5_"> <use
   xlink:href="#SVGID_37_"
   style="overflow:visible"
   id="use86"
   x="0"
   y="0"
   width="100%"
   height="100%" /> </clipPath> <path
   id="path14296-3-7"
   class="st16"
   d="m 288.8,199.5 c -0.5,1.2 -1.2,2.4 -2.1,3.4 -1.9,2.2 -4.6,3.7 -7.2,5 -4.5,2.3 -9.2,4.2 -13.4,7 -2.8,1.8 -5.5,4 -7.9,6.3 -2.1,2 -4.1,4.1 -6.4,5.8 -2.4,1.7 -5.1,2.9 -8,3.3 -3.5,0.5 -7.1,-0.2 -10.4,-1.6 -2.3,-1 -4.5,-2.4 -5.8,-4.5 -1.3,-2.1 -1.6,-4.7 -1.6,-7.1 0,-4.4 0.8,-8.7 1.6,-13 0.6,-3.6 1.3,-7.1 1.6,-10.7 0.7,-6.5 0.7,-13.2 0.2,-19.7 -0.1,-1.1 -0.2,-2.2 0,-3.3 0.2,-1.1 0.6,-2.2 1.5,-2.9 0.8,-0.7 1.8,-1 2.9,-1 1,-0.1 2.1,0.1 3.1,0.3 2.4,0.4 4.8,0.6 7.2,1.2 1.5,0.4 2.9,0.9 4.4,1.3 2.5,0.7 5.1,1 7.6,0.7 2.7,-0.3 5.4,-1.3 8.2,-1.3 1.1,0 2.3,0.2 3.3,0.6 1.1,0.3 2.2,0.8 3,1.6 0.6,0.6 1,1.4 1.4,2.2 0.5,1.2 0.8,2.5 0.9,3.8 0,1.4 -0.3,2.7 -0.1,4 0.1,1.1 0.6,2.1 1.2,3 0.6,0.9 1.3,1.8 2,2.6 1.4,1.6 2.7,3.3 4.5,4.5 2,1.4 4.3,2.2 6.3,3.6 0.6,0.4 1.2,0.8 1.6,1.4 0.6,1 0.8,2.3 0.4,3.5 v 0"
   clip-path="url(#SVGID_5_)" /> </g> <g
   id="g99"> <defs
   id="defs93"> <path
   id="SVGID_39_"
   d="m 289,205.8 c -2.1,2.5 -5,4.1 -7.9,5.6 -4.9,2.5 -10.1,4.7 -14.7,7.8 -3.1,2 -6,4.4 -8.7,7 -2.3,2.2 -4.5,4.5 -7,6.4 -2.6,1.9 -5.6,3.2 -8.8,3.7 -3.9,0.6 -7.8,-0.2 -11.4,-1.7 -2.5,-1.1 -4.9,-2.7 -6.4,-5 -1.4,-2.3 -1.8,-5.2 -1.8,-7.9 0,-4.8 0.9,-9.6 1.7,-14.4 0.7,-4 1.4,-7.9 1.8,-11.9 0.8,-7.3 0.8,-14.6 0.3,-22 -0.1,-1.2 -0.2,-2.5 0,-3.7 0.2,-1.2 0.7,-2.4 1.6,-3.2 0.9,-0.7 2,-1.1 3.1,-1.1 1.1,-0.1 2.3,0.1 3.4,0.3 2.6,0.4 5.3,0.7 7.9,1.4 1.6,0.4 3.2,1 4.8,1.4 2.7,0.7 5.6,1.1 8.4,0.8 3,-0.4 5.9,-1.5 9,-1.4 1.2,0 2.5,0.3 3.7,0.6 1.2,0.4 2.4,0.9 3.3,1.8 0.7,0.7 1.1,1.6 1.5,2.4 0.5,1.3 0.8,2.8 0.9,4.2 0.1,1.3 0.1,2.5 0.3,3.8 0.4,2.1 1.5,3.9 2.8,5.5 1.3,1.6 2.9,3 4.5,4.3 1.6,1.3 3.2,2.7 4.9,3.9 0.8,0.6 1.6,1.1 2.4,1.7 0.8,0.6 1.5,1.3 2,2.2 0.7,1.2 0.8,2.6 0.4,3.9 -0.3,1.2 -1,2.4 -2,3.6 z" /> </defs> <clipPath
   id="SVGID_6_"> <use
   xlink:href="#SVGID_39_"
   style="overflow:visible"
   id="use95"
   x="0"
   y="0"
   width="100%"
   height="100%" /> </clipPath> <path
   id="path14296-3-1-9"
   class="st17"
   d="m 288.5,198.1 c -0.5,1.2 -1.3,2.4 -2.1,3.4 -2,2.4 -4.6,4 -7.4,5.1 -4.6,1.7 -9.6,2 -14.1,3.9 -2.8,1.2 -5.2,3 -7.7,4.7 -2,1.4 -4.1,2.7 -6.3,3.7 -2.5,1.1 -5.2,1.7 -7.9,2.1 -1.7,0.3 -3.4,0.5 -5.2,0.4 -1.7,-0.1 -3.5,-0.5 -5,-1.4 -1.2,-0.7 -2.2,-1.6 -2.8,-2.9 -0.7,-1.4 -0.8,-3 -0.8,-4.6 0,-4.2 0.9,-8.3 0.9,-12.5 0,-3.6 -0.7,-7.2 -1,-10.8 -0.4,-7 1.1,-14.1 -0.2,-20.9 -0.2,-1.1 -0.5,-2.2 -0.5,-3.3 0,-0.6 0.1,-1.1 0.3,-1.6 0.2,-0.5 0.5,-1 0.9,-1.3 0.4,-0.3 0.8,-0.4 1.2,-0.5 0.4,-0.1 0.9,-0.1 1.3,0 0.9,0.1 1.7,0.5 2.5,0.7 2.4,0.7 5,0.7 7.4,1.2 1.5,0.3 3,0.9 4.5,1.3 2.6,0.7 5.2,1 7.8,0.7 2.8,-0.3 5.6,-1.4 8.4,-1.3 1.2,0 2.3,0.2 3.4,0.6 1.1,0.3 2.2,0.8 3.1,1.7 0.6,0.6 1,1.4 1.4,2.2 0.5,1.2 0.9,2.5 0.9,3.8 0,0.7 -0.1,1.4 -0.2,2 -0.1,0.7 -0.1,1.4 0.1,2 0.2,0.7 0.5,1.3 0.9,1.8 0.4,0.5 0.8,1 1.2,1.6 1.1,1.5 1.9,3.2 2.8,4.9 0.9,1.7 1.9,3.3 3.3,4.5 1.9,1.6 4.4,2.3 6.5,3.6 0.6,0.4 1.2,0.8 1.7,1.4 0.3,0.5 0.6,1.1 0.7,1.7 0.3,0.9 0.2,1.5 0,2.1 v 0"
   clip-path="url(#SVGID_6_)" /> </g> <g
   id="g113"> <defs
   id="defs102"> <path
   id="SVGID_41_"
   d="m 289,205.8 c -2.1,2.5 -5,4.1 -7.9,5.6 -4.9,2.5 -10.1,4.7 -14.7,7.8 -3.1,2 -6,4.4 -8.7,7 -2.3,2.2 -4.5,4.5 -7,6.4 -2.6,1.9 -5.6,3.2 -8.8,3.7 -3.9,0.6 -7.8,-0.2 -11.4,-1.7 -2.5,-1.1 -4.9,-2.7 -6.4,-5 -1.4,-2.3 -1.8,-5.2 -1.8,-7.9 0,-4.8 0.9,-9.6 1.7,-14.4 0.7,-4 1.4,-7.9 1.8,-11.9 0.8,-7.3 0.8,-14.6 0.3,-22 -0.1,-1.2 -0.2,-2.5 0,-3.7 0.2,-1.2 0.7,-2.4 1.6,-3.2 0.9,-0.7 2,-1.1 3.1,-1.1 1.1,-0.1 2.3,0.1 3.4,0.3 2.6,0.4 5.3,0.7 7.9,1.4 1.6,0.4 3.2,1 4.8,1.4 2.7,0.7 5.6,1.1 8.4,0.8 3,-0.4 5.9,-1.5 9,-1.4 1.2,0 2.5,0.3 3.7,0.6 1.2,0.4 2.4,0.9 3.3,1.8 0.7,0.7 1.1,1.6 1.5,2.4 0.5,1.3 0.8,2.8 0.9,4.2 0.1,1.3 0.1,2.5 0.3,3.8 0.4,2.1 1.5,3.9 2.8,5.5 1.3,1.6 2.9,3 4.5,4.3 1.6,1.3 3.2,2.7 4.9,3.9 0.8,0.6 1.6,1.1 2.4,1.7 0.8,0.6 1.5,1.3 2,2.2 0.7,1.2 0.8,2.6 0.4,3.9 -0.3,1.2 -1,2.4 -2,3.6 z" /> </defs> <clipPath
   id="SVGID_7_"> <use
   xlink:href="#SVGID_41_"
   style="overflow:visible"
   id="use104"
   x="0"
   y="0"
   width="100%"
   height="100%" /> </clipPath> <linearGradient
   id="path16493_1_"
   gradientUnits="userSpaceOnUse"
   x1="392.01871"
   y1="13.5693"
   x2="390.89041"
   y2="3.415"
   gradientTransform="matrix(1,0,0,-1,-142.0002,181.0378)"> <stop
   offset="0"
   style="stop-color:#F3CD16"
   id="stop107" /> <stop
   offset="1"
   style="stop-color:#F3CD16;stop-opacity:0"
   id="stop109" /> </linearGradient> <path
   id="path16493"
   class="st18"
   d="m 228.5,167.5 c 2.6,-0.7 4.8,1.3 6.7,2.8 1.2,1 3,0.8 4.5,0.8 2.5,-0.1 5,0.4 7.5,0.1 4.9,-0.4 9.7,-1.6 14.6,-1.8 2.4,-0.1 5,-0.3 7,1.1 0.8,0.6 2,3 2.8,2.1 -0.3,-2.5 -2.2,-5 -4.7,-5.7 -2,-0.3 -4,0.2 -6,0.1 -5.9,-0.1 -11.8,-1.2 -17.7,-0.9 -4.1,0 -8.3,-0.2 -12.4,-0.3 -1.6,-0.3 -2.2,1.1 -3.1,1.7"
   clip-path="url(#SVGID_7_)"
   style="fill:url(#path16493_1_)" /> </g> </g> <g
   id="g411"> <linearGradient
   id="path4635-1_1_"
   gradientUnits="userSpaceOnUse"
   x1="181.7229"
   y1="3.0118999"
   x2="219.80161"
   y2="-60.875702"
   gradientTransform="matrix(1,0,0,-1,-72.0002,183.0378)"> <stop
   offset="0"
   style="stop-color:#B8842C"
   id="stop116" /> <stop
   offset="1"
   style="stop-color:#372813"
   id="stop118" /> </linearGradient> <path
   id="path4635-1"
   class="st19"
   d="m 125,161.4 c 1.3,-0.5 2.7,-0.6 4.1,-0.4 1.4,0.3 2.6,0.8 3.8,1.6 2.3,1.6 4,3.8 5.6,6 3.7,5.1 7.3,10.4 10.6,15.8 2.6,4.4 5.1,9 8.1,13.1 2,2.7 4.2,5.2 6.2,7.9 2,2.7 3.8,5.6 4.7,8.9 1.2,4.2 0.7,8.8 -1.3,12.7 -1.4,2.7 -3.6,5.1 -6.2,6.7 -2.6,1.6 -5.7,2.4 -8.8,2.3 -4.9,-0.2 -9.3,-2.6 -13.9,-4.4 -9.2,-3.7 -19.3,-4.8 -28.8,-7.7 -2.9,-0.9 -5.8,-1.9 -8.8,-2.7 -1.3,-0.4 -2.6,-0.7 -3.9,-1.2 -1.2,-0.6 -2.4,-1.4 -3.1,-2.6 -0.5,-0.9 -0.8,-2 -0.7,-3 0.1,-1 0.3,-2.1 0.6,-3.1 0.7,-2 1.9,-3.8 2.6,-5.7 1.3,-3.2 1.5,-6.7 1.3,-10.1 -0.2,-3.4 -0.7,-6.8 -1,-10.2 -0.1,-1.5 -0.1,-3.1 0.1,-4.6 0.2,-1.5 0.9,-3 2,-4 1,-1 2.4,-1.6 3.7,-1.8 1.4,-0.3 2.8,-0.3 4.2,-0.3 1.4,0 2.8,0.1 4.2,0 1.4,-0.1 2.8,-0.4 4,-1.1 1.2,-0.7 2.1,-1.7 2.9,-2.7 0.8,-1.1 1.4,-2.3 2.1,-3.4 0.7,-1.2 1.3,-2.3 2.2,-3.4 0.9,-1.1 2.3,-2.1 3.5,-2.6"
   style="fill:url(#path4635-1_1_)" /> <g
   id="g129"> <defs
   id="defs123"> <path
   id="SVGID_43_"
   d="m 125,161.4 c 1.3,-0.5 2.7,-0.6 4.1,-0.4 1.4,0.3 2.6,0.8 3.8,1.6 2.3,1.6 4,3.8 5.6,6 3.7,5.1 7.3,10.4 10.6,15.8 2.6,4.4 5.1,9 8.1,13.1 2,2.7 4.2,5.2 6.2,7.9 2,2.7 3.8,5.6 4.7,8.9 1.2,4.2 0.7,8.8 -1.3,12.7 -1.4,2.7 -3.6,5.1 -6.2,6.7 -2.6,1.6 -5.7,2.4 -8.8,2.3 -4.9,-0.2 -9.3,-2.6 -13.9,-4.4 -9.2,-3.7 -19.3,-4.8 -28.8,-7.7 -2.9,-0.9 -5.8,-1.9 -8.8,-2.7 -1.3,-0.4 -2.6,-0.7 -3.9,-1.2 -1.2,-0.6 -2.4,-1.4 -3.1,-2.6 -0.5,-0.9 -0.8,-2 -0.7,-3 0,-1 0.3,-2.1 0.6,-3.1 0.7,-2 1.9,-3.8 2.6,-5.7 1.3,-3.2 1.5,-6.7 1.3,-10.1 -0.2,-3.4 -0.7,-6.8 -1,-10.2 -0.1,-1.5 -0.1,-3.1 0.1,-4.6 0.3,-1.5 0.9,-3 2,-4 1,-1 2.4,-1.6 3.7,-1.8 1.4,-0.3 2.8,-0.3 4.2,-0.3 1.4,0 2.8,0.1 4.2,0 1.4,-0.1 2.8,-0.4 4,-1.1 1.2,-0.7 2.1,-1.7 2.9,-2.7 0.8,-1.1 1.4,-2.3 2.1,-3.4 0.7,-1.2 1.3,-2.3 2.2,-3.4 0.9,-1.1 2.3,-2.1 3.5,-2.6" /> </defs> <clipPath
   id="SVGID_8_"> <use
   xlink:href="#SVGID_43_"
   style="overflow:visible"
   id="use125"
   x="0"
   y="0"
   width="100%"
   height="100%" /> </clipPath> <path
   id="path13596-6"
   class="st20"
   d="m 127,163.6 c 1.2,-0.5 2.5,-0.5 3.7,-0.2 1.2,0.3 2.4,0.9 3.3,1.6 2,1.5 3.4,3.7 4.7,5.8 3.2,5.1 6.3,10.3 9.2,15.6 2.2,4 4.3,8.1 7.1,11.7 1.8,2.4 3.9,4.7 5.7,7 1.8,2.4 3.5,5 4.3,7.9 1.1,3.8 0.6,7.9 -1.2,11.4 -1.3,2.5 -3.3,4.6 -5.7,6 -2.4,1.4 -5.2,2.1 -8,2 -4.5,-0.2 -8.5,-2.4 -12.7,-3.9 -8.1,-2.9 -16.8,-3.3 -25.1,-5.6 -3,-0.8 -5.9,-1.9 -8.8,-2.6 -1.3,-0.3 -2.7,-0.6 -3.9,-1.1 -1.3,-0.5 -2.4,-1.3 -3.1,-2.5 -0.5,-0.9 -0.7,-1.9 -0.7,-2.9 0,-1 0.3,-2 0.6,-2.9 0.7,-1.9 1.9,-3.6 2.6,-5.5 1.1,-2.9 1.2,-6 1,-9 -0.2,-3 -0.7,-6.1 -0.9,-9.1 -0.1,-1.4 -0.1,-2.7 0.2,-4.1 0.3,-1.3 0.9,-2.6 1.8,-3.6 1.1,-1 2.5,-1.6 4,-1.8 1.5,-0.2 3,-0.1 4.4,0 1.5,0.1 3,0.3 4.4,0.2 1.5,-0.1 3,-0.4 4.2,-1.3 1.1,-0.8 2,-1.9 2.6,-3 0.6,-1.2 1.1,-2.4 1.6,-3.7 0.5,-1.2 1,-2.5 1.8,-3.6 0.6,-1.3 1.7,-2.3 2.9,-2.8"
   clip-path="url(#SVGID_8_)" /> </g> <g
   id="g138"> <defs
   id="defs132"> <path
   id="SVGID_45_"
   d="m 125,161.4 c 1.3,-0.5 2.7,-0.6 4.1,-0.4 1.4,0.3 2.6,0.8 3.8,1.6 2.3,1.6 4,3.8 5.6,6 3.7,5.1 7.3,10.4 10.6,15.8 2.6,4.4 5.1,9 8.1,13.1 2,2.7 4.2,5.2 6.2,7.9 2,2.7 3.8,5.6 4.7,8.9 1.2,4.2 0.7,8.8 -1.3,12.7 -1.4,2.7 -3.6,5.1 -6.2,6.7 -2.6,1.6 -5.7,2.4 -8.8,2.3 -4.9,-0.2 -9.3,-2.6 -13.9,-4.4 -9.2,-3.7 -19.3,-4.8 -28.8,-7.7 -2.9,-0.9 -5.8,-1.9 -8.8,-2.7 -1.3,-0.4 -2.6,-0.7 -3.9,-1.2 -1.2,-0.6 -2.4,-1.4 -3.1,-2.6 -0.5,-0.9 -0.8,-2 -0.7,-3 0,-1 0.3,-2.1 0.6,-3.1 0.7,-2 1.9,-3.8 2.6,-5.7 1.3,-3.2 1.5,-6.7 1.3,-10.1 -0.2,-3.4 -0.7,-6.8 -1,-10.2 -0.1,-1.5 -0.1,-3.1 0.1,-4.6 0.3,-1.5 0.9,-3 2,-4 1,-1 2.4,-1.6 3.7,-1.8 1.4,-0.3 2.8,-0.3 4.2,-0.3 1.4,0 2.8,0.1 4.2,0 1.4,-0.1 2.8,-0.4 4,-1.1 1.2,-0.7 2.1,-1.7 2.9,-2.7 0.8,-1.1 1.4,-2.3 2.1,-3.4 0.7,-1.2 1.3,-2.3 2.2,-3.4 0.9,-1.1 2.3,-2.1 3.5,-2.6" /> </defs> <clipPath
   id="SVGID_9_"> <use
   xlink:href="#SVGID_45_"
   style="overflow:visible"
   id="use134"
   x="0"
   y="0"
   width="100%"
   height="100%" /> </clipPath> <path
   id="path4635-2-4"
   class="st21"
   d="m 125.9,160.7 c 1.1,-0.6 2.4,-0.7 3.7,-0.4 1.2,0.3 2.4,0.9 3.3,1.6 1.9,1.6 3.2,3.8 4.3,6 2.6,5.1 5.1,10.2 8.2,15 2.3,3.5 4.9,6.7 7.2,10.1 3.1,4.7 5.7,9.8 6.7,15.3 0.7,3.7 0.7,7.7 -1.1,11 -1.2,2.2 -3.1,4 -5.3,5.1 -2.2,1.1 -4.8,1.6 -7.3,1.4 -4,-0.3 -7.5,-2.3 -11.3,-3.6 -6.6,-2.4 -13.7,-3 -20.5,-4.8 -2.9,-0.8 -5.7,-1.8 -8.6,-2.4 -1.3,-0.3 -2.6,-0.5 -3.8,-0.9 -1.2,-0.5 -2.4,-1.2 -3,-2.4 -0.4,-0.8 -0.6,-1.7 -0.5,-2.6 0.1,-0.9 0.3,-1.8 0.7,-2.6 0.7,-1.7 1.8,-3.2 2.3,-4.9 0.8,-2.5 0.5,-5.3 -0.1,-7.9 -0.6,-2.6 -1.5,-5.1 -1.8,-7.8 -0.1,-1.2 -0.1,-2.4 0.2,-3.5 0.3,-1.2 0.8,-2.3 1.7,-3.1 1.1,-1.1 2.7,-1.6 4.2,-1.7 1.5,-0.1 3.1,0.1 4.6,0.3 1.5,0.2 3.1,0.5 4.6,0.4 1.6,-0.1 3.1,-0.5 4.4,-1.4 1.2,-0.9 2,-2.3 2.4,-3.8 0.4,-1.4 0.6,-3 0.8,-4.5 0.2,-1.5 0.4,-3 1,-4.4 0.7,-1.5 1.7,-2.8 3,-3.5"
   clip-path="url(#SVGID_9_)" /> </g> <linearGradient
   id="path4792-8_1_"
   gradientUnits="userSpaceOnUse"
   x1="224.45979"
   y1="-12.8957"
   x2="236.44749"
   y2="-35.460899"
   gradientTransform="matrix(1,0,0,-1,-72.5305,181.2701)"> <stop
   offset="0"
   style="stop-color:#EAC41D"
   id="stop140" /> <stop
   offset="1"
   style="stop-color:#EAC41D;stop-opacity:0"
   id="stop142" /> </linearGradient> <path
   id="path4792-8"
   class="st22"
   d="m 140,173.3 c 2.1,3.8 3.3,8.1 5.4,11.9 1.9,3.5 4.1,7.1 6,10.3 0.9,1.4 2.9,3.6 4.9,7.1 1.8,3.1 3.7,7.4 4.7,8.9 -0.6,-1.7 -1.8,-6.3 -3.3,-9.5 -1.4,-3 -3,-4.8 -3.9,-6.4 -1.9,-3.2 -4,-6.1 -6,-9.2 -2.7,-4.3 -4.8,-9 -7.8,-13.1 z"
   style="fill:url(#path4792-8_1_)" /> </g> </g><g
     id="g526"> <radialGradient
   id="path29714-8-2_1_"
   cx="354.69861"
   cy="164.5381"
   r="13.4394"
   gradientTransform="matrix(1.3082,0.3505,0.368,-1.3732,-275.4326,281.1037)"
   gradientUnits="userSpaceOnUse"> <stop
   offset="0"
   style="stop-color:#16100B"
   id="stop148" /> <stop
   offset="0.5907"
   style="stop-color:#A65D26;stop-opacity:0.8"
   id="stop150" /> <stop
   offset="1"
   style="stop-color:#F79226;stop-opacity:0"
   id="stop152" /> </radialGradient> <path
   id="path29714-8-2"
   class="st23"
   d="m 263.7,173.1 c -0.4,-0.9 -1.3,-1.5 -2.2,-1.9 -0.9,-0.4 -1.9,-0.5 -2.9,-0.5 -2,0 -3.9,0.5 -5.9,0.4 -1.7,-0.1 -3.2,-0.8 -4.9,-1.2 -1.7,-0.4 -3.4,-0.6 -5.1,-0.1 -1.8,0.5 -3.3,1.7 -4.3,3.2 -0.9,1.4 -1.3,3 -1.4,4.6 -0.1,1.6 0,3.2 0.2,4.9 0.1,1.2 0.3,2.3 0.5,3.5 0.3,1.1 0.7,2.3 1.4,3.2 1,1.4 2.5,2.3 4,2.9 2.6,1 5.5,0.9 8.1,-0.1 4.5,-2 8.3,-5.5 10.7,-9.8 0.8,-1.6 1.5,-3.2 1.9,-4.9 0.2,-0.7 0.3,-1.4 0.3,-2.1 0.1,-0.8 0,-1.5 -0.4,-2.1"
   style="fill:url(#path29714-8-2_1_)" /> <radialGradient
   id="path29714-8-3-0_1_"
   cx="377.77811"
   cy="82.4823"
   r="13.4394"
   gradientTransform="matrix(1.3082,0.2534,0.368,-0.9927,-275.4325,161.3476)"
   gradientUnits="userSpaceOnUse"> <stop
   offset="0"
   style="stop-color:#16100B"
   id="stop156" /> <stop
   offset="0.5907"
   style="stop-color:#A65D26;stop-opacity:0.8"
   id="stop158" /> <stop
   offset="1"
   style="stop-color:#F79226;stop-opacity:0"
   id="stop160" /> </radialGradient> <path
   id="path29714-8-3-0"
   class="st24"
   d="m 263.7,170.6 c -0.4,-0.6 -1.3,-1.1 -2.2,-1.4 -0.9,-0.3 -1.9,-0.4 -2.9,-0.4 -2,0 -3.9,0.4 -5.9,0.3 -1.7,-0.1 -3.2,-0.6 -4.9,-0.8 -1.7,-0.3 -3.4,-0.4 -5.1,-0.1 -1.8,0.3 -3.3,1.2 -4.3,2.3 -0.9,1 -1.3,2.2 -1.4,3.3 -0.1,1.1 0,2.3 0.2,3.5 0.1,0.8 0.3,1.7 0.5,2.5 0.2,0.8 0.7,1.6 1.4,2.3 1,1 2.5,1.7 4,2.1 2.6,0.7 5.5,0.7 8.1,-0.1 4.5,-1.4 8.3,-4 10.7,-7.1 0.8,-1.1 1.5,-2.3 1.9,-3.6 0.2,-0.5 0.3,-1 0.3,-1.5 0.1,-0.4 0,-0.9 -0.4,-1.3"
   style="fill:url(#path29714-8-3-0_1_)" /> </g><g
     id="g545"> <path
   id="path29714-5-4"
   class="st0"
   d="m 267.5,164.9 c -0.3,-0.9 -0.9,-1.7 -1.6,-2.3 -0.7,-0.6 -1.5,-1.1 -2.4,-1.5 -1.7,-0.7 -3.6,-1 -5.5,-1.4 -1.7,-0.3 -3.5,-0.7 -5.2,-1 -1.8,-0.3 -3.7,-0.5 -5.5,-0.1 -1.6,0.4 -3,1.2 -4.2,2.2 -1.2,1 -2.1,2.4 -2.8,3.9 -1.2,2.6 -1.5,5.5 -1.3,8.3 0.2,2.1 0.7,4.3 2.1,5.9 1.1,1.3 2.7,2.1 4.3,2.6 2.8,0.8 5.9,0.8 8.7,-0.1 4.6,-1.5 8.7,-4.6 11.4,-8.6 0.9,-1.3 1.7,-2.8 2,-4.3 0.4,-1.2 0.4,-2.5 0,-3.6" /> <g
   id="g178"> <defs
   id="defs167"> <path
   id="SVGID_47_"
   d="m 267.5,164.9 c -0.3,-0.9 -0.9,-1.7 -1.6,-2.3 -0.7,-0.6 -1.5,-1.1 -2.4,-1.5 -1.7,-0.7 -3.6,-1 -5.5,-1.4 -1.7,-0.3 -3.5,-0.7 -5.2,-1 -1.8,-0.3 -3.7,-0.5 -5.5,-0.1 -1.6,0.4 -3,1.2 -4.2,2.2 -1.2,1 -2.1,2.4 -2.8,3.9 -1.2,2.6 -1.5,5.5 -1.3,8.3 0.2,2.1 0.7,4.3 2.1,5.9 1.1,1.3 2.7,2.1 4.3,2.6 2.8,0.8 5.9,0.8 8.7,-0.1 4.6,-1.5 8.7,-4.6 11.4,-8.6 0.9,-1.3 1.7,-2.8 2,-4.3 0.4,-1.2 0.4,-2.5 0,-3.6" /> </defs> <clipPath
   id="SVGID_10_"> <use
   xlink:href="#SVGID_47_"
   style="overflow:visible"
   id="use169"
   x="0"
   y="0"
   width="100%"
   height="100%" /> </clipPath> <radialGradient
   id="path29714-3-9-9_1_"
   cx="1169.1256"
   cy="-492.39719"
   r="16.384899"
   gradientTransform="matrix(0.3603,0.1568,0.07246786,-0.1665,-122.6,-102.3262)"
   gradientUnits="userSpaceOnUse"> <stop
   offset="0"
   style="stop-color:#7D7D7D"
   id="stop172" /> <stop
   offset="1"
   style="stop-color:#7D7D7D;stop-opacity:0.3294"
   id="stop174" /> </radialGradient> <path
   id="path29714-3-9-9"
   class="st25"
   d="m 248.4,157.8 c -0.4,0 -0.9,0.1 -1.3,0.1 -2.8,0.5 -5.3,2.2 -6.7,4.7 -1,1.7 -1.5,3.7 -1.3,5.7 0.1,-1.4 0.4,-2.7 1.1,-4 1.1,-2.1 3.2,-3.6 5.5,-4 1.4,-0.3 2.9,-0.1 4.3,0.1 1.4,0.2 2.8,0.4 4.1,0.6 2.1,0.5 4.2,1.2 6,2.4 0.4,0.3 0.8,0.6 1.1,1 0.3,0.4 0.6,0.8 0.7,1.3 0.1,0.7 -0.1,1.5 -0.4,2.1 -0.4,0.6 -0.8,1.2 -1.4,1.7 -0.4,0.4 -0.9,0.8 -1.3,1.2 2,-0.4 4.1,-1 5.8,-2.1 0.7,-0.5 1.4,-1.1 1.8,-1.9 0.4,-0.8 0.6,-1.7 0.4,-2.5 -0.1,-0.6 -0.5,-1.1 -0.8,-1.5 -0.3,-0.4 -0.9,-0.8 -1.3,-1.1 -2.1,-1.5 -4.6,-2.5 -7.2,-2.8 -1.7,-0.3 -3.3,-0.6 -5,-0.8 -1.5,-0.2 -2.8,-0.3 -4.1,-0.2 z"
   clip-path="url(#SVGID_10_)"
   style="fill:url(#path29714-3-9-9_1_)" /> </g> <g
   id="g192"> <defs
   id="defs181"> <path
   id="SVGID_49_"
   d="m 267.5,164.9 c -0.3,-0.9 -0.9,-1.7 -1.6,-2.3 -0.7,-0.6 -1.5,-1.1 -2.4,-1.5 -1.7,-0.7 -3.6,-1 -5.5,-1.4 -1.7,-0.3 -3.5,-0.7 -5.2,-1 -1.8,-0.3 -3.7,-0.5 -5.5,-0.1 -1.6,0.4 -3,1.2 -4.2,2.2 -1.2,1.1 -2.1,2.4 -2.8,3.9 -1.2,2.6 -1.5,5.5 -1.3,8.3 0.2,2.1 0.7,4.3 2.1,5.9 1.1,1.3 2.7,2.1 4.3,2.6 2.8,0.8 5.9,0.8 8.7,-0.1 4.6,-1.5 8.7,-4.6 11.4,-8.6 0.9,-1.3 1.7,-2.8 2,-4.3 0.4,-1.2 0.4,-2.5 0,-3.6" /> </defs> <clipPath
   id="SVGID_11_"> <use
   xlink:href="#SVGID_49_"
   style="overflow:visible"
   id="use183"
   x="0"
   y="0"
   width="100%"
   height="100%" /> </clipPath> <linearGradient
   id="path29714-3-9-3-8_1_"
   gradientUnits="userSpaceOnUse"
   x1="387.591"
   y1="18.4212"
   x2="389.98441"
   y2="18.520901"
   gradientTransform="matrix(1,0,0,-1,-142.0002,183.0378)"> <stop
   offset="0"
   style="stop-color:#7D7D7D"
   id="stop186" /> <stop
   offset="1"
   style="stop-color:#7D7D7D;stop-opacity:0.3294"
   id="stop188" /> </linearGradient> <path
   id="path29714-3-9-3-8"
   class="st26"
   d="m 248.4,157.8 c -0.4,0 -0.9,0.1 -1.3,0.1 -2.8,0.5 -5.3,2.2 -6.7,4.7 -1,1.7 -1.5,3.7 -1.3,5.7 0.1,-1.4 0.4,-2.7 1.1,-4 1.1,-2.1 3.2,-3.6 5.5,-4 1.4,-0.3 2.9,-0.1 4.3,0.1 1.4,0.2 2.8,0.4 4.1,0.6 2.1,0.5 4.2,1.2 6,2.4 0.4,0.3 0.8,0.6 1.1,1 0.3,0.4 0.6,0.8 0.7,1.3 0.1,0.7 -0.1,1.5 -0.4,2.1 -0.4,0.6 -0.8,1.2 -1.4,1.7 -0.4,0.4 -0.9,0.8 -1.3,1.2 2,-0.4 4.1,-1 5.8,-2.1 0.7,-0.5 1.4,-1.1 1.8,-1.9 0.4,-0.8 0.6,-1.7 0.4,-2.5 -0.1,-0.6 -0.5,-1.1 -0.8,-1.5 -0.3,-0.4 -0.9,-0.8 -1.3,-1.1 -2.1,-1.5 -4.6,-2.5 -7.2,-2.8 -1.7,-0.3 -3.3,-0.6 -5,-0.8 -1.5,-0.2 -2.8,-0.3 -4.1,-0.2 z"
   clip-path="url(#SVGID_11_)"
   style="fill:url(#path29714-3-9-3-8_1_)" /> </g> </g><g
     id="g777"> <g
   id="g669"> <g
   id="g643"> <radialGradient
   id="path28795-9-5_1_"
   cx="340.55991"
   cy="192.81821"
   r="11.6257"
   gradientTransform="matrix(0.8152,-0.03431182,-0.02961133,-1.248,-99.8465,299.3177)"
   gradientUnits="userSpaceOnUse"> <stop
   offset="0"
   style="stop-color:#FFFFFD"
   id="stop195" /> <stop
   offset="0.7573"
   style="stop-color:#FFFFFD"
   id="stop197" /> <stop
   offset="1"
   style="stop-color:#D4D4D4"
   id="stop199" /> </radialGradient> <path
   id="path28795-9-5"
   class="st27"
   d="m 170.2,34.8 c -1.4,0.1 -2.8,0.7 -3.8,1.7 -1,1 -1.8,2.2 -2.2,3.6 -0.9,2.7 -0.7,5.6 -0.5,8.5 0.2,2.6 0.4,5.2 1.3,7.6 0.5,1.2 1.2,2.3 2.1,3.2 0.9,0.9 2,1.6 3.3,1.9 1.2,0.3 2.4,0.2 3.6,-0.1 1.2,-0.4 2.2,-1 3.1,-1.9 1.3,-1.2 2.1,-2.8 2.6,-4.5 0.5,-1.7 0.6,-3.5 0.6,-5.2 0,-2.2 -0.3,-4.4 -1,-6.5 -0.7,-2.1 -1.8,-4.1 -3.3,-5.7 -0.7,-0.8 -1.6,-1.4 -2.6,-1.9 -1.1,-0.5 -2.1,-0.7 -3.2,-0.7"
   style="fill:url(#path28795-9-5_1_)" /> <g
   id="g605"> <path
   id="path29453-9"
   class="st0"
   d="m 166.8,46.6 c -0.3,1.8 -0.3,3.7 0.3,5.4 0.4,1.1 1.1,2.2 1.9,3 0.5,0.6 1.1,1.1 1.8,1.4 0.7,0.3 1.5,0.5 2.3,0.3 0.7,-0.2 1.3,-0.6 1.8,-1.2 0.5,-0.6 0.8,-1.2 1,-1.9 0.6,-2 0.5,-4.3 -0.1,-6.3 -0.5,-1.5 -1.2,-2.9 -2.4,-3.9 -0.6,-0.5 -1.2,-0.9 -2,-1 -0.7,-0.2 -1.5,-0.1 -2.2,0.2 -0.8,0.3 -1.3,1 -1.7,1.7 -0.4,0.7 -0.6,1.5 -0.7,2.3" /> <linearGradient
   id="path29465-8_1_"
   gradientUnits="userSpaceOnUse"
   x1="212.1754"
   y1="140.52699"
   x2="216.8295"
   y2="132.2061"
   gradientTransform="matrix(1,0,0,-1,-42.0001,183.0378)"> <stop
   offset="0"
   style="stop-color:#767675;stop-opacity:0"
   id="stop204" /> <stop
   offset="0.2629"
   style="stop-color:#767675"
   id="stop206" /> <stop
   offset="0.5"
   style="stop-color:#767675"
   id="stop208" /> <stop
   offset="1"
   style="stop-color:#767675;stop-opacity:0"
   id="stop210" /> </linearGradient> <path
   id="path29465-8"
   class="st28"
   d="m 170.6,45.3 c 0.2,0.5 0.8,0.7 1.2,1.1 0.3,0.4 0.7,0.8 0.9,1.3 0.4,0.9 -0.4,2.3 0.4,3 0.2,0.2 0.7,0.2 0.9,0 0.9,-0.8 0.7,-2.5 0.3,-3.7 -0.3,-1.1 -1.1,-2.1 -2.1,-2.6 -0.5,-0.2 -1.2,-0.4 -1.6,-0.1 -0.2,0.2 -0.2,0.7 0,1 z"
   style="fill:url(#path29465-8_1_)" /> </g> <g
   id="g227"> <defs
   id="defs216"> <path
   id="SVGID_51_"
   d="m 170.2,34.8 c -1.4,0.1 -2.8,0.7 -3.8,1.7 -1,1 -1.8,2.2 -2.2,3.6 -0.9,2.7 -0.7,5.6 -0.5,8.5 0.2,2.6 0.4,5.2 1.3,7.6 0.5,1.2 1.2,2.3 2.1,3.2 0.9,0.9 2,1.6 3.3,1.9 1.2,0.3 2.4,0.2 3.6,-0.1 1.2,-0.4 2.2,-1 3.1,-1.9 1.3,-1.2 2.1,-2.8 2.6,-4.5 0.5,-1.7 0.6,-3.5 0.6,-5.2 0,-2.2 -0.3,-4.4 -1,-6.5 -0.7,-2.1 -1.8,-4.1 -3.3,-5.7 -0.7,-0.8 -1.6,-1.4 -2.6,-1.9 -1.1,-0.5 -2.1,-0.7 -3.2,-0.7" /> </defs> <clipPath
   id="SVGID_12_"> <use
   xlink:href="#SVGID_51_"
   style="overflow:visible"
   id="use218"
   x="0"
   y="0"
   width="100%"
   height="100%" /> </clipPath> <radialGradient
   id="path29551-9_1_"
   cx="1400.6229"
   cy="-1626.1671"
   r="28.330999"
   gradientTransform="matrix(0.2014,-0.03316079,-0.03065006,-0.1862,-161.3392,-216.3842)"
   gradientUnits="userSpaceOnUse"> <stop
   offset="0"
   style="stop-color:#C8C8C8"
   id="stop221" /> <stop
   offset="1"
   style="stop-color:#7A7A79"
   id="stop223" /> </radialGradient> <path
   id="path29551-9"
   class="st29"
   d="m 167.1,40.6 c 2.1,-1.3 4.8,-1.6 7.2,-1.3 2.4,0.3 4.9,1 7.3,1.6 1.8,0.5 3.6,0.9 5.2,1.7 1.7,0.8 3.2,1.9 4.1,3.5 0.1,0.3 0.3,0.5 0.4,0.8 0.2,0.2 0.3,0.5 0.6,0.7 0.2,0.2 0.5,0.3 0.8,0.3 0.1,0 0.3,0 0.4,-0.1 0.1,-0.1 0.2,-0.2 0.3,-0.3 0.1,-0.1 0.1,-0.3 0.1,-0.5 0,-0.2 0,-0.3 -0.1,-0.5 -0.6,-2.2 -2,-4.1 -3.1,-6.1 -0.6,-1.2 -1.2,-2.5 -1.8,-3.7 -2.2,-4.1 -5.9,-7.4 -10.1,-9.5 -4.2,-2.1 -8.9,-3.1 -13.6,-3.4 -5.4,-0.3 -10.9,0.3 -16.2,1.3 -2.3,0.4 -4.7,0.9 -6.7,2 -1,0.6 -2,1.3 -2.7,2.2 -0.7,0.9 -1.3,2 -1.4,3.2 -0.2,1.1 0,2.3 0.4,3.3 0.4,1.1 1,2 1.7,2.9 1.4,1.8 3.3,3.1 5,4.7 1.7,1.5 3.3,3.2 5.2,4.4 0.9,0.6 2,1.1 3.1,1.4 1.1,0.3 2.3,0.4 3.4,0.2 1.2,-0.2 2.2,-0.8 3.2,-1.5 1,-0.7 1.7,-1.6 2.5,-2.5 1.4,-1.7 2.8,-3.6 4.8,-4.8"
   clip-path="url(#SVGID_12_)"
   style="fill:url(#path29551-9_1_)" /> </g> <linearGradient
   id="path28795-9-2-2_1_"
   gradientUnits="userSpaceOnUse"
   x1="302.33829"
   y1="154.51781"
   x2="313.02841"
   y2="144.2224"
   gradientTransform="matrix(1,0,0,-1,-132.0002,183.0378)"> <stop
   offset="0"
   style="stop-color:#656565;stop-opacity:0"
   id="stop229" /> <stop
   offset="0.3063"
   style="stop-color:#656565;stop-opacity:0.5825"
   id="stop231" /> <stop
   offset="0.47"
   style="stop-color:#656565"
   id="stop233" /> <stop
   offset="0.7283"
   style="stop-color:#656565;stop-opacity:0.2573"
   id="stop235" /> <stop
   offset="1"
   style="stop-color:#656565;stop-opacity:0"
   id="stop237" /> </linearGradient> <path
   id="path28795-9-2-2"
   class="st30"
   d="m 176,33.3 c 2,1.9 3.5,4.2 4.5,6.6 -0.4,-2.7 -1.1,-4.9 -2.9,-6.6 -1.1,-1 -2.3,-1.9 -3.7,-2.5 -1.2,-0.5 -2.6,-0.9 -3.3,-0.9 -0.8,0 -1,0 -1.1,0 -0.2,0 -0.3,0 0.2,0.1 0.5,0.1 1.6,0.4 2.8,0.9 1.2,0.5 2.5,1.3 3.5,2.4 z"
   style="fill:url(#path28795-9-2-2_1_)" /> </g> <g
   id="g652"> <radialGradient
   id="path28795-3_1_"
   cx="225.5112"
   cy="195.98129"
   r="11.6257"
   gradientTransform="matrix(1.0858,-0.03431182,-0.03943781,-1.248,-35.8195,299.3177)"
   gradientUnits="userSpaceOnUse"> <stop
   offset="0"
   style="stop-color:#FFFFFD"
   id="stop242" /> <stop
   offset="0.7573"
   style="stop-color:#FFFFFD"
   id="stop244" /> <stop
   offset="1"
   style="stop-color:#D4D4D4"
   id="stop246" /> </radialGradient> <path
   id="path28795-3"
   class="st31"
   d="m 195.3,34.8 c -2.2,1.5 -4.1,3.6 -5,6.2 -1.1,3.2 -0.7,6.8 0.4,10 1.1,3.3 3,6.4 5.9,8.4 1.4,1 3.1,1.7 4.8,1.9 1.7,0.2 3.5,-0.1 5.1,-0.9 1.9,-1 3.3,-2.7 4.2,-4.6 0.9,-1.9 1.3,-4 1.4,-6.2 0.2,-2.7 -0.1,-5.4 -1,-8 -1,-2.8 -2.7,-5.3 -5.2,-6.9 -1.2,-0.8 -2.6,-1.3 -4.1,-1.5 -1.5,-0.2 -3,-0.1 -4.3,0.5 -0.7,0.2 -1.5,0.7 -2.2,1.1"
   style="fill:url(#path28795-3_1_)" /> <g
   id="g613"> <path
   id="path28879-6"
   class="st0"
   d="m 200.5,41.5 c -0.8,0.1 -1.6,0.3 -2.4,0.8 -0.7,0.4 -1.3,1 -1.8,1.7 -0.9,1.4 -1.4,3.1 -1.4,4.7 -0.1,1.3 0.1,2.5 0.5,3.7 0.4,1.2 1.1,2.3 2.1,3.1 1,0.8 2.2,1.3 3.5,1.4 1.3,0.1 2.6,-0.3 3.6,-1 0.8,-0.6 1.5,-1.4 2,-2.3 0.5,-0.9 0.8,-1.9 0.9,-2.9 0.2,-1.8 0,-3.7 -0.9,-5.3 -0.8,-1.6 -2.2,-2.9 -3.9,-3.6 -0.7,-0.2 -1.5,-0.3 -2.2,-0.3" /> <path
   id="path28891-5"
   class="st32"
   d="m 202.4,47 c -0.7,0.3 -1.8,0.1 -2.1,0.8 -0.2,0.4 0.1,1.1 0.5,1.2 0.8,0.3 2.1,-0.3 2.4,-1.1 0.1,-0.4 -0.1,-0.9 -0.4,-1.1 -0.1,0 -0.2,0.2 -0.4,0.2 z" /> <linearGradient
   id="path28887-6_1_"
   gradientUnits="userSpaceOnUse"
   x1="253.1431"
   y1="139.8972"
   x2="258.50241"
   y2="133.5508"
   gradientTransform="matrix(1,0,0,-1,-52.0001,183.0378)"> <stop
   offset="0"
   style="stop-color:#959494;stop-opacity:0.3922"
   id="stop252" /> <stop
   offset="0.5"
   style="stop-color:#959494"
   id="stop254" /> <stop
   offset="1"
   style="stop-color:#959494;stop-opacity:0.3922"
   id="stop256" /> </linearGradient> <path
   id="path28887-6"
   class="st33"
   d="m 205.6,48.8 c 0.9,-0.9 -0.7,-3.4 -1.9,-4.4 -0.9,-0.7 -3.5,-1.5 -3.4,-0.7 0.1,0.8 1.3,1.8 2.1,2.6 1,1 2.8,2.9 3.2,2.5 z"
   style="fill:url(#path28887-6_1_)" /> </g> <g
   id="g281"> <defs
   id="defs262"> <path
   id="SVGID_53_"
   d="m 195.3,34.8 c -2.2,1.5 -4.1,3.6 -5,6.2 -1.1,3.2 -0.7,6.8 0.4,10 1.1,3.3 3,6.4 5.9,8.4 1.4,1 3.1,1.7 4.8,1.9 1.7,0.2 3.5,-0.1 5.1,-0.9 1.9,-1 3.3,-2.7 4.2,-4.6 0.9,-1.9 1.3,-4 1.4,-6.2 0.2,-2.7 -0.1,-5.4 -1,-8 -1,-2.8 -2.7,-5.3 -5.2,-6.9 -1.2,-0.8 -2.6,-1.3 -4.1,-1.5 -1.5,-0.2 -3,-0.1 -4.3,0.5 -0.7,0.2 -1.5,0.7 -2.2,1.1" /> </defs> <clipPath
   id="SVGID_13_"> <use
   xlink:href="#SVGID_53_"
   style="overflow:visible"
   id="use264"
   x="0"
   y="0"
   width="100%"
   height="100%" /> </clipPath> <linearGradient
   id="path28972-5_1_"
   gradientUnits="userSpaceOnUse"
   x1="379.51489"
   y1="151.7617"
   x2="396.56781"
   y2="141.7892"
   gradientTransform="matrix(1,0,0,-1,-182.0002,183.0378)"> <stop
   offset="0"
   style="stop-color:#757575"
   id="stop267" /> <stop
   offset="0.125"
   style="stop-color:#8C8C8C"
   id="stop269" /> <stop
   offset="0.25"
   style="stop-color:#A4A4A5"
   id="stop271" /> <stop
   offset="0.5"
   style="stop-color:#D4D4D4"
   id="stop273" /> <stop
   offset="0.6192"
   style="stop-color:#D4D4D4"
   id="stop275" /> <stop
   offset="1"
   style="stop-color:#7D7D7D"
   id="stop277" /> </linearGradient> <path
   id="path28972-5"
   class="st34"
   d="m 187,42.9 c 1.9,-1.6 4.1,-2.8 6.5,-3.5 4.9,-1.5 10.4,-0.9 14.7,1.8 1.5,0.9 2.8,2.1 4.2,3.2 1.4,1.1 2.8,2.1 4.5,2.7 0.9,0.3 1.8,0.5 2.8,0.4 0.9,-0.1 1.7,-0.4 2.4,-0.9 0.7,-0.5 1.3,-1.1 1.7,-1.9 0.9,-1.5 1.2,-3.2 1,-4.9 -0.3,-3.4 -2.2,-6.4 -3.8,-9.4 -0.5,-0.9 -1,-1.9 -1.6,-2.8 -1.9,-2.7 -4.8,-4.5 -8,-5.5 -3.1,-1 -6.4,-1.4 -9.7,-1.8 -1.5,-0.2 -2.9,-0.4 -4.4,-0.2 -1.7,0.2 -3.3,0.9 -4.9,1.3 -0.8,0.2 -1.6,0.3 -2.3,0.6 -0.8,0.2 -1.5,0.5 -2.2,1 -0.9,0.7 -1.5,1.8 -1.7,3 -0.2,1.1 -0.2,2.3 0,3.5 0.4,2.3 1.2,4.6 1.1,6.9 -0.1,1.6 -0.6,3.2 -0.5,4.8 0,0.5 0.1,0.9 0.2,1.4"
   clip-path="url(#SVGID_13_)"
   style="fill:url(#path28972-5_1_)" /> </g> <linearGradient
   id="path28795-92-2_1_"
   gradientUnits="userSpaceOnUse"
   x1="334.8764"
   y1="154.99809"
   x2="346.22949"
   y2="144.27969"
   gradientTransform="matrix(1,0,0,-1,-132.0002,183.0378)"> <stop
   offset="0"
   style="stop-color:#656565;stop-opacity:0"
   id="stop283" /> <stop
   offset="0.3063"
   style="stop-color:#656565;stop-opacity:0.5825"
   id="stop285" /> <stop
   offset="0.47"
   style="stop-color:#656565"
   id="stop287" /> <stop
   offset="0.7283"
   style="stop-color:#656565;stop-opacity:0.2573"
   id="stop289" /> <stop
   offset="1"
   style="stop-color:#656565;stop-opacity:0"
   id="stop291" /> </linearGradient> <path
   id="path28795-92-2"
   class="st35"
   d="m 203,28.3 c -0.4,0.5 -0.7,1 -1,1.6 1.7,0.4 3.4,1.1 4.8,2 2.8,1.9 5,4.6 6.5,7.7 0.4,-0.4 0.7,-0.8 0.9,-1.3 -1.5,-3.2 -3.7,-6.1 -6.6,-8 -1.3,-0.9 -2.9,-1.6 -4.6,-2 z"
   style="fill:url(#path28795-92-2_1_)" /> </g> </g> <g
   id="g735"> <radialGradient
   id="path28849-2_1_"
   cx="64.926697"
   cy="-150.5005"
   r="12.2719"
   gradientTransform="matrix(0.6978,-0.5072,-0.4603,-0.6334,67.8114,-7.3358)"
   gradientUnits="userSpaceOnUse"> <stop
   offset="0"
   style="stop-color:#050507"
   id="stop297" /> <stop
   offset="0.7345"
   style="stop-color:#050507"
   id="stop299" /> <stop
   offset="1"
   style="stop-color:#5D5D5D"
   id="stop301" /> </radialGradient> <path
   id="path28849-2"
   class="st36"
   d="m 176.9,53.6 c 1.4,-1.6 2.4,-3.5 3.7,-5.2 0.7,-0.8 1.5,-1.6 2.4,-2.1 0.9,-0.5 2,-0.8 3,-0.7 1.2,0.1 2.3,0.7 3.1,1.5 0.9,0.8 1.5,1.8 2,2.9 0.5,1 0.9,2.1 1.6,3 0.8,0.9 1.8,1.6 2.8,2.3 0.5,0.4 0.9,0.8 1.3,1.2 0.4,0.4 0.7,1 0.8,1.6 0.1,0.6 0.1,1.2 -0.1,1.8 -0.2,0.6 -0.6,1.1 -1,1.5 -0.9,0.8 -2.1,1.3 -3.3,1.5 -2.4,0.3 -4.9,-0.4 -7.3,-0.3 -2.5,0.1 -4.9,0.9 -7.4,0.9 -1.2,0 -2.5,-0.3 -3.5,-1.1 -0.5,-0.4 -1,-0.8 -1.3,-1.3 -0.3,-0.5 -0.5,-1.1 -0.5,-1.8 0,-0.6 0.1,-1.2 0.4,-1.7 0.2,-0.5 0.6,-1 0.9,-1.5 0.7,-0.9 1.6,-1.6 2.4,-2.5"
   style="fill:url(#path28849-2_1_)" /> <g
   id="g712"> <radialGradient
   id="path28461-2_1_"
   cx="177.8562"
   cy="-204.1877"
   r="24.8207"
   gradientTransform="matrix(0.9362,-0.3864,-0.2713,-0.6574,-28.2746,-0.7371)"
   gradientUnits="userSpaceOnUse"> <stop
   offset="0"
   style="stop-color:#D1952A"
   id="stop305" /> <stop
   offset="0.7514"
   style="stop-color:#D69D28"
   id="stop307" /> <stop
   offset="0.8658"
   style="stop-color:#B5802B"
   id="stop309" /> <stop
   offset="1"
   style="stop-color:#946327"
   id="stop311" /> </radialGradient> <path
   id="path28461-2"
   class="st37"
   d="m 163.4,68.9 c 0,0.2 0.1,0.5 0.3,0.7 0.2,0.4 0.5,0.6 0.9,0.9 0.3,0.2 0.7,0.4 1,0.7 1.9,1.2 3.4,2.8 4.7,4.6 1.8,2.3 3.4,4.9 5.8,6.6 1.7,1.2 3.7,1.9 5.8,2.1 2.4,0.2 4.9,-0.1 7.2,-0.8 2.2,-0.6 4.3,-1.5 6.2,-2.7 3.7,-2.3 6.7,-5.6 10.8,-7.1 0.9,-0.3 1.8,-0.6 2.7,-1 0.9,-0.4 1.7,-1 2.1,-1.8 0.4,-0.8 0.4,-1.8 0.5,-2.7 0.1,-1 0.4,-1.9 0.6,-2.8 0.2,-1 0.2,-2 -0.2,-2.8 -0.3,-0.7 -1,-1.3 -1.7,-1.7 -0.7,-0.4 -1.5,-0.5 -2.3,-0.6 -1.6,-0.1 -3.2,0.3 -4.8,0.5 -2.1,0.2 -4.2,-0.1 -6.4,0 -2.6,0.1 -5.2,0.7 -7.9,0.8 -3,0.1 -6,-0.3 -9,-0.4 -1.3,-0.1 -2.6,0 -3.9,0.2 -1.3,0.2 -2.5,0.7 -3.6,1.4 -1,0.7 -1.9,1.7 -2.8,2.5 -0.5,0.4 -1,0.8 -1.6,1.1 -0.6,0.3 -1.2,0.4 -1.8,0.4 -0.3,0 -0.7,-0.1 -1,0 -0.2,0.1 -0.4,0.2 -0.5,0.3 -0.1,0.1 -0.3,0.3 -0.4,0.5 -0.2,0.2 -0.5,0.7 -0.7,1.1"
   style="fill:url(#path28461-2_1_)" /> <path
   id="path28487-2"
   class="st38"
   d="m 175.2,72.1 c -0.3,1.3 -0.1,2.7 0.5,3.8 0.6,1.1 1.7,2 3,2.5 1.6,0.5 3.4,0.3 4.8,-0.5 0.9,-0.4 1.6,-1.1 2.1,-1.9 0.2,-0.4 0.4,-0.9 0.5,-1.4 0.1,-0.5 0,-1 -0.1,-1.4 -0.2,-0.5 -0.5,-0.9 -0.9,-1.3 -0.4,-0.3 -0.9,-0.6 -1.4,-0.8 -1,-0.3 -2.1,-0.3 -3.1,-0.3 -1.6,0.1 -3.2,0.3 -4.8,0.6" /> <path
   id="path27476-7-8"
   class="st39"
   d="m 170.1,62.2 c -1.1,0.6 -2.1,1.3 -3.1,2 -0.5,0.4 -1.1,0.8 -1.3,1.4 -0.2,0.4 -0.2,0.9 -0.2,1.3 0,0.5 0,0.9 0,1.4 0,0.3 -0.1,0.6 -0.1,0.9 0,0.2 0,0.3 0,0.5 0,0.1 0.1,0.3 0.2,0.4 0.1,0.1 0.3,0.2 0.5,0.3 0.2,0.1 0.4,0.1 0.6,0.1 0.9,0.2 1.8,0.8 2.5,1.4 0.7,0.6 1.4,1.4 2.1,2 2,1.6 4.7,2.3 7.3,2.4 2.6,0 5.2,-0.5 7.7,-1.1 2,-0.5 4,-0.9 5.9,-1.6 3,-1.1 5.7,-2.7 8.1,-4.8 1.1,-0.9 2.1,-2 3.3,-2.7 1.1,-0.7 2.3,-1.1 3.4,-1.8 0.1,-0.1 0.2,-0.1 0.3,-0.2 0.1,-0.1 0.2,-0.2 0.2,-0.3 0.1,-0.2 0.1,-0.4 0,-0.6 -0.1,-0.2 -0.2,-0.4 -0.3,-0.5 -0.1,-0.2 -0.3,-0.3 -0.5,-0.5 -1.1,-1 -2.7,-1.3 -4.2,-1.4 -1.5,-0.1 -3,0 -4.5,-0.3 -1.4,-0.2 -2.7,-0.7 -4,-1.2 -1.4,-0.5 -2.8,-0.8 -4.3,-1 -3.4,-0.6 -7,-0.5 -10.4,0.3 -3.3,0.7 -6.4,1.9 -9.2,3.6" /> <linearGradient
   id="path27476-4_1_"
   gradientUnits="userSpaceOnUse"
   x1="306.30969"
   y1="119.7664"
   x2="351.36951"
   y2="120.119"
   gradientTransform="matrix(1,0,0,-1,-142.0002,183.0378)"> <stop
   offset="0"
   style="stop-color:#AC7A2B"
   id="stop317" /> <stop
   offset="0.1197"
   style="stop-color:#D7A029"
   id="stop319" /> <stop
   offset="0.2551"
   style="stop-color:#ECB91E"
   id="stop321" /> <stop
   offset="0.3919"
   style="stop-color:#EAC81C"
   id="stop323" /> <stop
   offset="0.5274"
   style="stop-color:#F5D839"
   id="stop325" /> <stop
   offset="0.7691"
   style="stop-color:#F6D812"
   id="stop327" /> <stop
   offset="1"
   style="stop-color:#F5CD33"
   id="stop329" /> </linearGradient> <path
   id="path27476-4"
   class="st40"
   d="m 169.7,58.6 c -1.5,1 -2.9,2.3 -4.1,3.7 -0.7,0.8 -1.3,1.7 -1.6,2.7 -0.3,0.8 -0.4,1.6 -0.5,2.4 -0.1,0.3 -0.1,0.6 -0.1,0.9 0,0.2 0,0.3 0.1,0.5 0,0.1 0.1,0.3 0.2,0.4 0.2,0.2 0.4,0.3 0.7,0.3 0.3,0.1 0.5,0.1 0.8,0.1 1.2,0.1 2.2,0.7 3.2,1.4 1,0.7 1.8,1.4 2.8,2.1 2.2,1.4 4.8,2 7.4,2.1 2.6,0.1 5.2,-0.3 7.7,-0.8 2,-0.4 4,-0.9 5.9,-1.6 2.9,-1.2 5.6,-2.9 8.1,-4.8 1.1,-0.9 2.3,-1.7 3.3,-2.7 0.3,-0.3 0.7,-0.7 1.1,-1 0.4,-0.3 0.8,-0.6 1.2,-0.7 0.7,-0.2 1.5,-0.2 2.2,0 0.5,0.1 1.1,0.2 1.7,0.2 0.3,0 0.6,-0.1 0.8,-0.2 0.3,-0.1 0.5,-0.3 0.7,-0.5 0.2,-0.3 0.4,-0.6 0.4,-1 0,-0.4 -0.1,-0.7 -0.3,-1 -0.4,-0.6 -1,-1.1 -1.7,-1.4 -0.9,-0.4 -1.9,-0.6 -2.9,-0.8 -3,-0.7 -5.9,-1.8 -8.6,-3.2 -1.4,-0.7 -2.7,-1.4 -4,-2.2 -1.4,-0.7 -2.8,-1.5 -4.3,-1.9 -3.4,-1 -7,-0.7 -10.4,0.5 -3.9,1.3 -7.2,3.5 -9.8,6.5 v 0"
   style="fill:url(#path27476-4_1_)" /> <path
   id="path28357-7"
   class="st41"
   d="m 193.3,59.3 c -0.2,-0.2 -0.4,-0.4 -0.7,-0.5 -0.3,-0.1 -0.6,-0.1 -0.9,0 -0.6,0.1 -1.1,0.4 -1.6,0.7 -1.4,0.9 -2.6,2.1 -3.6,3.4 -1.4,1.7 -2.5,3.6 -2.9,5.8 -0.1,0.4 -0.1,0.7 -0.1,1.1 0,0.4 0.2,0.7 0.4,1 0.2,0.2 0.5,0.4 0.9,0.4 0.3,0 0.7,0 1,-0.1 0.6,-0.2 1.1,-0.6 1.6,-1.1 2.7,-2.4 5.1,-5.2 6,-8.7 0.1,-0.3 0.2,-0.7 0.2,-1.1 0.1,-0.2 0,-0.6 -0.3,-0.9" /> <g
   id="g681"> <radialGradient
   id="path28396-7_1_"
   cx="120.8963"
   cy="-116.3847"
   r="2.5769999"
   gradientTransform="matrix(1,0,0,-0.5833,67.9998,-13.2169)"
   gradientUnits="userSpaceOnUse"> <stop
   offset="0"
   style="stop-color:#392B14"
   id="stop334" /> <stop
   offset="0.5547"
   style="stop-color:#735421"
   id="stop336" /> <stop
   offset="1"
   style="stop-color:#AB8D30"
   id="stop338" /> </radialGradient> <path
   id="path28396-7"
   class="st42"
   d="m 187,54.4 c 0.2,0.6 1.1,0.5 1.7,0.8 0.5,0.2 0.9,0.8 1.4,0.8 0.5,0 1.3,-0.2 1.4,-0.7 0.1,-0.7 -0.9,-1.1 -1.5,-1.4 -0.8,-0.3 -1.9,-0.5 -2.6,-0.1 -0.3,0.2 -0.5,0.4 -0.4,0.6 z"
   style="fill:url(#path28396-7_1_)" /> <radialGradient
   id="path28398-7_1_"
   cx="109.291"
   cy="152.1337"
   r="1.2246"
   gradientTransform="matrix(1,0,0,-1.0751,67.9998,218.3972)"
   gradientUnits="userSpaceOnUse"> <stop
   offset="0"
   style="stop-color:#392B14"
   id="stop342" /> <stop
   offset="0.5547"
   style="stop-color:#735421"
   id="stop344" /> <stop
   offset="1"
   style="stop-color:#AB8D30"
   id="stop346" /> </radialGradient> <path
   id="path28398-7"
   class="st43"
   d="m 177.9,54.1 c -0.7,-0.2 -1.9,1 -1.5,1.7 0.1,0.2 0.4,0.4 0.6,0.3 0.3,-0.2 0.6,-0.8 0.9,-1.1 0.3,-0.2 0.2,-0.8 0,-0.9 z"
   style="fill:url(#path28398-7_1_)" /> </g> <g
   id="g363"> <defs
   id="defs352"> <path
   id="SVGID_55_"
   d="m 185.7,51 c -2.2,0 -4.4,0.4 -6.5,1.1 -3.7,1.3 -7,3.6 -9.5,6.5 -1.5,1 -2.9,2.3 -4.1,3.7 -0.7,0.8 -1.3,1.7 -1.6,2.7 -0.3,0.8 -0.4,1.6 -0.5,2.4 -0.1,0.3 -0.1,0.6 -0.1,0.9 0,0.2 0,0.3 0.1,0.5 0,0 0,0.1 0.1,0.1 0.1,0.2 0.1,0.4 0.2,0.5 0.2,0.4 0.5,0.6 0.9,0.9 0.3,0.2 0.7,0.4 1,0.7 1.9,1.2 3.4,2.8 4.7,4.6 1.8,2.3 3.4,4.9 5.8,6.6 1.7,1.2 3.7,1.9 5.8,2.1 2.4,0.2 4.9,-0.1 7.2,-0.8 2.2,-0.6 4.3,-1.5 6.2,-2.7 3.7,-2.3 6.7,-5.6 10.8,-7.1 0.9,-0.3 1.8,-0.6 2.7,-1 0.9,-0.4 1.7,-1 2.1,-1.8 0.4,-0.8 0.4,-1.8 0.5,-2.7 0.1,-1 0.4,-1.9 0.6,-2.8 0.2,-1 0.2,-2 -0.2,-2.8 -0.1,-0.2 -0.2,-0.4 -0.3,-0.5 0,-0.4 -0.1,-0.7 -0.3,-1 -0.4,-0.6 -1,-1.1 -1.7,-1.4 -0.9,-0.4 -1.9,-0.6 -2.9,-0.8 -3,-0.7 -5.9,-1.8 -8.6,-3.2 -1.4,-0.7 -2.7,-1.4 -4,-2.2 -1.4,-0.7 -2.8,-1.5 -4.3,-1.9 -1.4,-0.4 -2.7,-0.6 -4.1,-0.6 z" /> </defs> <clipPath
   id="SVGID_14_"> <use
   xlink:href="#SVGID_55_"
   style="overflow:visible"
   id="use354"
   x="0"
   y="0"
   width="100%"
   height="100%" /> </clipPath> <linearGradient
   id="path28570-8_1_"
   gradientUnits="userSpaceOnUse"
   x1="285.89621"
   y1="236.7789"
   x2="286.2453"
   y2="234.5849"
   gradientTransform="matrix(1.0956,0,0.1702,-1.5181,-144.1268,421.3328)"> <stop
   offset="0"
   style="stop-color:#F6CE2E"
   id="stop357" /> <stop
   offset="1"
   style="stop-color:#D59B29"
   id="stop359" /> </linearGradient> <path
   id="path28570-8"
   class="st44"
   d="m 211.7,63.4 c -0.2,1.6 -1.3,2.8 -2.6,2.8 0,0 0,0 0,0 -1.3,0 -2.1,-1.3 -2,-2.8 0.2,-1.6 1.3,-2.8 2.6,-2.8 1.3,0 2.2,1.3 2,2.8 0,0 0,0 0,0 z"
   clip-path="url(#SVGID_14_)"
   style="fill:url(#path28570-8_1_)" /> </g> </g> </g> </g></g> </g> </svg>
