<?xml version="1.0" encoding="UTF-8" standalone="no"?>
<!-- Generator: Adobe Illustrator 24.1.2, SVG Export Plug-In . SVG Version: 6.00 Build 0)  -->

<svg
   xmlns:dc="http://purl.org/dc/elements/1.1/"
   xmlns:cc="http://creativecommons.org/ns#"
   xmlns:rdf="http://www.w3.org/1999/02/22-rdf-syntax-ns#"
   xmlns:svg="http://www.w3.org/2000/svg"
   xmlns="http://www.w3.org/2000/svg"
   xmlns:sodipodi="http://sodipodi.sourceforge.net/DTD/sodipodi-0.dtd"
   xmlns:inkscape="http://www.inkscape.org/namespaces/inkscape"
   version="1.1"
   id="Layer_1"
   x="0px"
   y="0px"
   viewBox="0 0 600 600"
   xml:space="preserve"
   sodipodi:docname="logo_rescale.svg"
   width="600"
   height="600"
   inkscape:version="0.92.5 (2060ec1f9f, 2020-04-08)"><metadata
   id="metadata45"><rdf:RDF><cc:Work
       rdf:about=""><dc:format>image/svg+xml</dc:format><dc:type
         rdf:resource="http://purl.org/dc/dcmitype/StillImage" /><dc:title></dc:title></cc:Work></rdf:RDF></metadata><defs
   id="defs43">
	
	
</defs><sodipodi:namedview
   pagecolor="#ffffff"
   bordercolor="#666666"
   borderopacity="1"
   objecttolerance="10"
   gridtolerance="10"
   guidetolerance="10"
   inkscape:pageopacity="0"
   inkscape:pageshadow="2"
   inkscape:window-width="1920"
   inkscape:window-height="1016"
   id="namedview41"
   showgrid="false"
   inkscape:zoom="0.45337302"
   inkscape:cx="802.88378"
   inkscape:cy="294.66903"
   inkscape:window-x="1920"
   inkscape:window-y="27"
   inkscape:window-maximized="1"
   inkscape:current-layer="Layer_1" />
<style
   type="text/css"
   id="style2">
	.st0{fill-rule:evenodd;clip-rule:evenodd;fill:#434343;}
	.st1{fill-rule:evenodd;clip-rule:evenodd;fill:#3199BA;}
	.st2{fill-rule:evenodd;clip-rule:evenodd;fill:#646565;}
	.st3{fill-rule:evenodd;clip-rule:evenodd;fill:#B4B4B5;}
	.st4{fill-rule:evenodd;clip-rule:evenodd;fill:#8C8C8C;}
	.st5{fill:#424242;}
</style>
<g
   id="g20"
   transform="translate(-187.3,17.5)">
		<path
   style="clip-rule:evenodd;fill:#434343;fill-rule:evenodd"
   inkscape:connector-curvature="0"
   id="path4"
   d="m 319.6,229.6 c -9.3,0 -16.8,-7.8 -16.8,-17.4 0,-9.6 7.5,-17.4 16.8,-17.4 h 20.9 c 2.3,-5 4.8,-9.7 7.5,-14.4 4.6,-7.9 10,-15.6 16,-22.8 30.4,-36.5 75.9,-59.9 126.6,-59.9 h 10.3 v 0.1 c 12,0 23.7,1.3 34.8,3.8 11.3,2.5 22.1,6.1 32.5,10.8 48.4,21.9 84.5,66.7 94.9,120.6 h 2.5 v 0.1 c 32.1,0 61.3,13.1 82.5,34.1 21.3,21.2 34.6,50.5 34.6,82.9 h 0.1 v 0.1 h -0.1 c 0,32.3 -13.3,61.6 -34.7,82.9 -21.2,21 -50.4,34.1 -82.4,34.1 v 0.1 H 346.2 V 467 c -11.6,0 -22.8,-1.7 -33.3,-4.8 -0.5,-0.1 -1,-0.3 -1.4,-0.5 -1.7,-0.5 -2.9,-0.9 -3.7,-1.2 -0.3,-0.1 -0.6,-0.2 -0.8,-0.3 -8.3,-3 -16.1,-6.9 -23.5,-11.6 v 0 l -0.3,-0.2 -0.9,-0.6 -0.1,-0.1 v 0.1 l -0.9,-0.7 c -0.3,-0.2 -0.5,-0.4 -0.8,-0.6 -1.7,-1.2 -3.3,-2.3 -4.7,-3.4 -7.5,-5.7 -9.1,-16.6 -3.6,-24.4 5.5,-7.8 16,-9.5 23.5,-3.8 1.1,0.8 2.2,1.6 3.2,2.3 l 0.6,0.3 0.9,0.6 v 0 l 0.8,0.5 v 0 c 5.2,3.3 10.9,6.1 16.8,8.3 0.2,0.1 0.5,0.1 0.7,0.2 1.1,0.4 2,0.7 2.6,0.8 0.3,0.1 0.7,0.2 1,0.3 7.7,2.3 15.8,3.6 24.1,3.6 v -0.1 h 319.4 v 0.1 c 23.1,0 44.1,-9.4 59.3,-24.4 15,-14.9 24.3,-35.4 24.3,-57.8 v 0 -0.1 0 c 0,-22.4 -9.3,-42.9 -24.3,-57.8 -15.2,-15.1 -36.2,-24.4 -59.2,-24.4 v 0.1 h -17 v 0 c -8.5,0 -15.8,-6.7 -16.7,-15.7 -4.6,-48 -35.1,-88.7 -77.3,-107.8 -8.2,-3.7 -16.9,-6.6 -25.9,-8.6 -9.1,-2 -18.5,-3 -28,-3 v 0.1 h -10.3 c -40.6,0 -77,18.6 -101.2,47.7 -4.6,5.5 -8.8,11.6 -12.6,18.1 -3.7,6.4 -7,13.1 -9.6,20.1 v 0 l -0.1,0.1 v 0 0 c -2.5,6.4 -8.5,11 -15.6,11 h -1.8 z m 1.6,198.7 c 0.4,0.2 0.8,0.3 1,0.4 z"
   class="st0" />
		<path
   style="clip-rule:evenodd;fill:#3199ba;fill-rule:evenodd"
   inkscape:connector-curvature="0"
   id="path6"
   d="m 312,406.3 h 48.4 c 5.5,0 10,-4.7 10,-10.4 V 352 c 0,-14.8 16,-31.5 30.3,-31.5 H 443 c 5.5,0 10,-4.7 10,-10.4 v -50.2 c 0,-5.7 -4.5,-10.4 -10,-10.4 h -48.4 c -5.5,0 -10,4.7 -10,10.4 v 43.9 c 0,14.8 -16,31.4 -30.3,31.4 H 312 c -5.5,0 -10,4.7 -10,10.4 v 50.2 c 0,5.8 4.5,10.5 10,10.5"
   class="st1" />
		<path
   style="clip-rule:evenodd;fill:#434343;fill-rule:evenodd"
   inkscape:connector-curvature="0"
   id="path8"
   d="m 228.9,406.3 h 48.4 c 5.5,0 10,-4.7 10,-10.4 V 352 c 0,-14.8 16,-31.5 30.3,-31.5 h 42.3 c 5.5,0 10,-4.7 10,-10.4 v -51.3 c 0,-5.7 -4.5,-10.4 -10,-10.4 h -42.3 c -14.3,0 -30.3,-16.6 -30.3,-31.5 V 173 c 0,-5.7 -4.5,-10.4 -10,-10.4 h -48.4 c -5.5,0 -10,4.7 -10,10.4 v 50.2 c 0,5.7 4.5,10.4 10,10.4 h 42.3 c 14.3,0 30.3,16.6 30.3,31.4 v 38.6 c 0,14.8 -16,31.4 -30.3,31.4 h -42.3 c -5.5,0 -10,4.7 -10,10.4 v 50.2 c -0.1,6 4.5,10.7 10,10.7"
   class="st0" />
		<path
   style="clip-rule:evenodd;fill:#646565;fill-rule:evenodd"
   inkscape:connector-curvature="0"
   id="path10"
   d="m 246.6,307.2 v -33.7 c 0,-6.4 -5,-11.6 -11.2,-11.6 H 203 c -6.2,0 -11.2,5.2 -11.2,11.6 v 33.7 c 0,6.4 5,11.6 11.2,11.6 h 32.4 c 6.2,0 11.2,-5.3 11.2,-11.6"
   class="st2" />
		<path
   style="clip-rule:evenodd;fill:#b4b4b5;fill-rule:evenodd"
   inkscape:connector-curvature="0"
   id="path12"
   d="m 502.4,362.1 v -29.3 c 0,-5.5 -4.4,-10.1 -9.7,-10.1 h -28.3 c -5.3,0 -9.7,4.5 -9.7,10.1 v 29.3 c 0,5.5 4.4,10.1 9.7,10.1 h 28.3 c 5.3,0 9.7,-4.6 9.7,-10.1"
   class="st3" />
		<path
   style="clip-rule:evenodd;fill:#8c8c8c;fill-rule:evenodd"
   inkscape:connector-curvature="0"
   id="path14"
   d="m 470.2,223.4 v -27 c 0,-5.2 -4,-9.3 -9,-9.3 h -26 c -4.9,0 -9,4.2 -9,9.3 v 27 c 0,5.1 4,9.3 9,9.3 h 26 c 4.9,0 9,-4.2 9,-9.3"
   class="st4" />
		<path
   style="clip-rule:evenodd;fill:#8c8c8c;fill-rule:evenodd"
   inkscape:connector-curvature="0"
   id="path16"
   d="m 528.4,301.1 v -27.3 c 0,-5.2 -4.1,-9.4 -9.1,-9.4 H 493 c -5,0 -9.1,4.3 -9.1,9.4 v 27.3 c 0,5.2 4.1,9.4 9.1,9.4 h 26.3 c 4.9,0 9,-4.2 9.1,-9.4"
   class="st4" />
		<path
   style="clip-rule:evenodd;fill:#b4b4b5;fill-rule:evenodd"
   inkscape:connector-curvature="0"
   id="path18"
   d="m 569.6,317.4 v -17.8 c 0,-3.4 -2.6,-6.2 -5.9,-6.2 h -17.2 c -3.3,0 -5.9,2.8 -5.9,6.2 v 17.8 c 0,3.4 2.7,6.1 5.9,6.1 h 17.2 c 3.3,0 5.9,-2.8 5.9,-6.1"
   class="st3" />
	</g>
</svg>