<?xml version="1.0" standalone="no"?>
<!DOCTYPE svg PUBLIC "-//W3C//DTD SVG 20010904//EN"
 "http://www.w3.org/TR/2001/REC-SVG-20010904/DTD/svg10.dtd">
<svg version="1.0" xmlns="http://www.w3.org/2000/svg"
 width="146.000000pt" height="136.000000pt" viewBox="0 0 146.000000 136.000000"
 preserveAspectRatio="xMidYMid meet">
<metadata>
Created by potrace 1.16, written by Peter Selinger 2001-2019
</metadata>
<g transform="translate(0.000000,136.000000) scale(0.100000,-0.100000)"
fill="#000000" stroke="none">
<path d="M108 1349 c-16 -9 -18 -29 -18 -180 l0 -169 26 -10 c14 -6 42 -10 61
-10 34 0 49 12 190 152 84 84 153 160 153 170 0 10 -9 27 -20 38 -19 19 -33
20 -197 20 -102 0 -185 -5 -195 -11z"/>
<path d="M593 1207 c-100 -101 -153 -161 -153 -175 0 -22 34 -52 59 -52 16 0
291 273 310 308 18 34 -9 72 -52 72 -6 0 -80 -69 -164 -153z"/>
<path d="M802 1087 c-149 -150 -272 -277 -272 -283 0 -23 33 -54 58 -54 21 0
77 51 289 263 235 234 263 265 263 294 0 32 -21 53 -52 53 -7 0 -136 -123
-286 -273z"/>
<path d="M1346 1321 c-21 -21 -34 -41 -29 -43 4 -3 3 -4 -3 -2 -6 1 -183 -170
-394 -381 -314 -314 -382 -387 -382 -410 0 -34 13 -47 47 -47 22 -1 65 38 221
193 l194 194 0 61 c0 90 2 91 200 96 239 5 250 15 250 227 0 119 -2 131 -19
141 -32 16 -45 12 -85 -29z"/>
<path d="M739 402 c-103 -103 -192 -198 -199 -211 -18 -36 -4 -90 26 -101 14
-6 107 -10 207 -10 149 0 187 3 205 16 22 15 22 19 22 239 0 190 -2 226 -16
239 -34 35 -55 20 -245 -172z"/>
</g>
</svg>
